<?xml version="1.0" encoding="UTF-8" standalone="no"?><svg xmlns="http://www.w3.org/2000/svg" xmlns:xlink="http://www.w3.org/1999/xlink" contentStyleType="text/css" height="1332px" preserveAspectRatio="none" style="width:1363px;height:1332px;background:#FFFFFF;" version="1.1" viewBox="0 0 1363 1332" width="1363px" zoomAndPan="magnify"><defs/><g><text fill="#000000" font-family="sans-serif" font-size="14" font-weight="bold" lengthAdjust="spacing" textLength="156" x="596.6661" y="22.9951">Modèle du domaine</text><!--cluster Serveur--><g id="cluster_Serveur"><path d="M163.3322,43.2969 L225.3322,43.2969 A3.75,3.75 0 0 1 227.8322,45.7969 L234.8322,65.5938 L1202.3322,65.5938 A2.5,2.5 0 0 1 1204.8322,68.0938 L1204.8322,555.7969 A2.5,2.5 0 0 1 1202.3322,558.2969 L163.3322,558.2969 A2.5,2.5 0 0 1 160.8322,555.7969 L160.8322,45.7969 A2.5,2.5 0 0 1 163.3322,43.2969 " fill="none" style="stroke:#000000;stroke-width:1.5;"/><line style="stroke:#000000;stroke-width:1.5;" x1="160.8322" x2="234.8322" y1="65.5938" y2="65.5938"/><text fill="#000000" font-family="sans-serif" font-size="14" font-weight="bold" lengthAdjust="spacing" textLength="61" x="164.8322" y="58.292">Serveur</text></g><!--class Se--><g id="elem_Se"><rect codeLine="20" fill="#FFF4C8" height="72.5938" id="Se" rx="2.5" ry="2.5" style="stroke:#181818;stroke-width:0.5;" width="126" x="951.8322" y="97.2969"/><ellipse cx="987.9822" cy="113.2969" fill="#ADD1B2" rx="11" ry="11" style="stroke:#181818;stroke-width:1.0;"/><path d="M990.326,108.9688 C989.3885,108.5313 988.7947,108.3906 987.9197,108.3906 C985.2947,108.3906 983.2947,110.4688 983.2947,113.1875 L983.2947,114.3125 C983.2947,116.8906 985.4041,118.7813 988.2947,118.7813 C989.5135,118.7813 990.6697,118.4844 991.4197,117.9375 C991.9978,117.5313 992.326,117.0781 992.326,116.6875 C992.326,116.2344 991.9353,115.8438 991.4666,115.8438 C991.2478,115.8438 991.0447,115.9219 990.8572,116.1094 C990.4041,116.5938 990.4041,116.5938 990.2166,116.6875 C989.7947,116.9531 989.1072,117.0781 988.3416,117.0781 C986.2947,117.0781 984.9978,115.9844 984.9978,114.2813 L984.9978,113.1875 C984.9978,111.4063 986.2478,110.0938 987.9822,110.0938 C988.5603,110.0938 989.1697,110.25 989.6385,110.5 C990.1228,110.7813 990.2947,111 990.3885,111.4063 C990.451,111.8125 990.4822,111.9375 990.6228,112.0625 C990.7635,112.2031 990.9978,112.3125 991.2166,112.3125 C991.4822,112.3125 991.7478,112.1719 991.9197,111.9531 C992.0291,111.7969 992.0603,111.6094 992.0603,111.1875 L992.0603,109.7656 C992.0603,109.3281 992.0447,109.2031 991.951,109.0469 C991.7947,108.7813 991.5135,108.6406 991.2166,108.6406 C990.9197,108.6406 990.7166,108.7344 990.4978,109.0469 L990.326,108.9688 Z " fill="#000000"/><text fill="#000000" font-family="sans-serif" font-size="14" lengthAdjust="spacing" textLength="47" x="1006.6822" y="118.1436">Server</text><line style="stroke:#181818;stroke-width:0.5;" x1="952.8322" x2="1076.8322" y1="129.2969" y2="129.2969"/><rect fill="none" height="6" style="stroke:#C82930;stroke-width:1.0;" width="6" x="959.8322" y="139.9453"/><text fill="#000000" font-family="sans-serif" font-size="14" lengthAdjust="spacing" textLength="100" x="971.8322" y="146.292">minter Minter</text><rect fill="none" height="6" style="stroke:#C82930;stroke-width:1.0;" width="6" x="959.8322" y="156.2422"/><text fill="#000000" font-family="sans-serif" font-size="14" lengthAdjust="spacing" textLength="98" x="971.8322" y="162.5889">router Router</text></g><!--class SS--><g id="elem_SS"><rect codeLine="25" fill="#FFF4C8" height="88.8906" id="SS" rx="2.5" ry="2.5" style="stroke:#181818;stroke-width:0.5;" width="338" x="523.8322" y="453.2969"/><ellipse cx="646.5822" cy="469.2969" fill="#B4A7E5" rx="11" ry="11" style="stroke:#181818;stroke-width:1.0;"/><path d="M647.5353,466.0781 L649.2541,466.0781 C649.6447,466.0781 649.8322,466.0469 649.9572,465.9688 C650.2228,465.8125 650.3635,465.5313 650.3635,465.2344 C650.3635,464.9688 650.2541,464.7031 650.0197,464.5313 C649.8478,464.4219 649.7072,464.3906 649.2541,464.3906 L644.1135,464.3906 C643.676,464.3906 643.551,464.4063 643.3947,464.5 C643.1447,464.6563 642.9885,464.9531 642.9885,465.2344 C642.9885,465.5156 643.1291,465.7656 643.3478,465.9375 C643.5041,466.0469 643.6916,466.0781 644.1135,466.0781 L645.8322,466.0781 L645.8322,472.5938 L644.1135,472.5938 C643.676,472.5938 643.551,472.6094 643.3947,472.7188 C643.1447,472.875 642.9885,473.1563 642.9885,473.4531 C642.9885,473.7031 643.1291,473.9688 643.3478,474.125 C643.5041,474.25 643.7072,474.2969 644.1135,474.2969 L649.2541,474.2969 C650.0041,474.2969 650.3635,474.0156 650.3635,473.4531 C650.3635,473.1719 650.2541,472.9219 650.0197,472.75 C649.8478,472.625 649.7072,472.5938 649.2541,472.5938 L647.5353,472.5938 L647.5353,466.0781 Z " fill="#000000"/><text fill="#000000" font-family="sans-serif" font-size="14" font-style="italic" lengthAdjust="spacing" textLength="84" x="667.0822" y="474.1436">SecretStore</text><line style="stroke:#181818;stroke-width:0.5;" x1="524.8322" x2="860.8322" y1="485.2969" y2="485.2969"/><ellipse cx="534.8322" cy="498.9453" fill="#84BE84" rx="3" ry="3" style="stroke:#038048;stroke-width:1.0;"/><text fill="#000000" font-family="sans-serif" font-size="14" lengthAdjust="spacing" textLength="233" x="543.8322" y="502.292">Secret(uid UserId) (Secret, error)</text><ellipse cx="534.8322" cy="515.2422" fill="#84BE84" rx="3" ry="3" style="stroke:#038048;stroke-width:1.0;"/><text fill="#000000" font-family="sans-serif" font-size="14" lengthAdjust="spacing" textLength="312" x="543.8322" y="518.5889">StoreToken(id TokenID, token Token) error</text><ellipse cx="534.8322" cy="531.5391" fill="#84BE84" rx="3" ry="3" style="stroke:#038048;stroke-width:1.0;"/><text fill="#000000" font-family="sans-serif" font-size="14" lengthAdjust="spacing" textLength="220" x="543.8322" y="534.8857">Tokens() *map[TokenID]Token</text></g><!--class Ch--><g id="elem_Ch"><rect codeLine="31" fill="#FFF4C8" height="56.2969" id="Ch" rx="2.5" ry="2.5" style="stroke:#181818;stroke-width:0.5;" width="312" x="176.8322" y="469.7969"/><ellipse cx="289.5822" cy="485.7969" fill="#B4A7E5" rx="11" ry="11" style="stroke:#181818;stroke-width:1.0;"/><path d="M290.5353,482.5781 L292.2541,482.5781 C292.6447,482.5781 292.8322,482.5469 292.9572,482.4688 C293.2228,482.3125 293.3635,482.0313 293.3635,481.7344 C293.3635,481.4688 293.2541,481.2031 293.0197,481.0313 C292.8478,480.9219 292.7072,480.8906 292.2541,480.8906 L287.1135,480.8906 C286.676,480.8906 286.551,480.9063 286.3947,481 C286.1447,481.1563 285.9885,481.4531 285.9885,481.7344 C285.9885,482.0156 286.1291,482.2656 286.3478,482.4375 C286.5041,482.5469 286.6916,482.5781 287.1135,482.5781 L288.8322,482.5781 L288.8322,489.0938 L287.1135,489.0938 C286.676,489.0938 286.551,489.1094 286.3947,489.2188 C286.1447,489.375 285.9885,489.6563 285.9885,489.9531 C285.9885,490.2031 286.1291,490.4688 286.3478,490.625 C286.5041,490.75 286.7072,490.7969 287.1135,490.7969 L292.2541,490.7969 C293.0041,490.7969 293.3635,490.5156 293.3635,489.9531 C293.3635,489.6719 293.2541,489.4219 293.0197,489.25 C292.8478,489.125 292.7072,489.0938 292.2541,489.0938 L290.5353,489.0938 L290.5353,482.5781 Z " fill="#000000"/><text fill="#000000" font-family="sans-serif" font-size="14" font-style="italic" lengthAdjust="spacing" textLength="78" x="310.0822" y="490.6436">Challenger</text><line style="stroke:#181818;stroke-width:0.5;" x1="177.8322" x2="487.8322" y1="501.7969" y2="501.7969"/><ellipse cx="187.8322" cy="515.4453" fill="#84BE84" rx="3" ry="3" style="stroke:#038048;stroke-width:1.0;"/><text fill="#000000" font-family="sans-serif" font-size="14" lengthAdjust="spacing" textLength="286" x="196.8322" y="518.792">Challenge(price int64) PaymentRequest</text></g><!--class SM--><g id="elem_SM"><rect codeLine="35" fill="#FFF4C8" height="72.5938" id="SM" rx="2.5" ry="2.5" style="stroke:#181818;stroke-width:0.5;" width="291" x="897.3322" y="461.2969"/><ellipse cx="980.5822" cy="477.2969" fill="#B4A7E5" rx="11" ry="11" style="stroke:#181818;stroke-width:1.0;"/><path d="M981.5353,474.0781 L983.2541,474.0781 C983.6447,474.0781 983.8322,474.0469 983.9572,473.9688 C984.2228,473.8125 984.3635,473.5313 984.3635,473.2344 C984.3635,472.9688 984.2541,472.7031 984.0197,472.5313 C983.8478,472.4219 983.7072,472.3906 983.2541,472.3906 L978.1135,472.3906 C977.676,472.3906 977.551,472.4063 977.3947,472.5 C977.1447,472.6563 976.9885,472.9531 976.9885,473.2344 C976.9885,473.5156 977.1291,473.7656 977.3478,473.9375 C977.5041,474.0469 977.6916,474.0781 978.1135,474.0781 L979.8322,474.0781 L979.8322,480.5938 L978.1135,480.5938 C977.676,480.5938 977.551,480.6094 977.3947,480.7188 C977.1447,480.875 976.9885,481.1563 976.9885,481.4531 C976.9885,481.7031 977.1291,481.9688 977.3478,482.125 C977.5041,482.25 977.7072,482.2969 978.1135,482.2969 L983.2541,482.2969 C984.0041,482.2969 984.3635,482.0156 984.3635,481.4531 C984.3635,481.1719 984.2541,480.9219 984.0197,480.75 C983.8478,480.625 983.7072,480.5938 983.2541,480.5938 L981.5353,480.5938 L981.5353,474.0781 Z " fill="#000000"/><text fill="#000000" font-family="sans-serif" font-size="14" font-style="italic" lengthAdjust="spacing" textLength="116" x="1001.0822" y="482.1436">ServiceManager</text><line style="stroke:#181818;stroke-width:0.5;" x1="898.3322" x2="1187.3322" y1="493.2969" y2="493.2969"/><ellipse cx="908.3322" cy="506.9453" fill="#84BE84" rx="3" ry="3" style="stroke:#038048;stroke-width:1.0;"/><text fill="#000000" font-family="sans-serif" font-size="14" lengthAdjust="spacing" textLength="219" x="917.3322" y="510.292">Service(service String) Service</text><ellipse cx="908.3322" cy="523.2422" fill="#84BE84" rx="3" ry="3" style="stroke:#038048;stroke-width:1.0;"/><text fill="#000000" font-family="sans-serif" font-size="14" lengthAdjust="spacing" textLength="265" x="917.3322" y="526.5889">Capabilities(service String) []Caveats</text></g><!--class Mi--><g id="elem_Mi"><rect codeLine="40" fill="#FFF4C8" height="129.4844" id="Mi" rx="2.5" ry="2.5" style="stroke:#181818;stroke-width:0.5;" width="412" x="486.8322" y="247.2969"/><ellipse cx="665.0822" cy="263.2969" fill="#ADD1B2" rx="11" ry="11" style="stroke:#181818;stroke-width:1.0;"/><path d="M667.426,258.9688 C666.4885,258.5313 665.8947,258.3906 665.0197,258.3906 C662.3947,258.3906 660.3947,260.4688 660.3947,263.1875 L660.3947,264.3125 C660.3947,266.8906 662.5041,268.7813 665.3947,268.7813 C666.6135,268.7813 667.7697,268.4844 668.5197,267.9375 C669.0978,267.5313 669.426,267.0781 669.426,266.6875 C669.426,266.2344 669.0353,265.8438 668.5666,265.8438 C668.3478,265.8438 668.1447,265.9219 667.9572,266.1094 C667.5041,266.5938 667.5041,266.5938 667.3166,266.6875 C666.8947,266.9531 666.2072,267.0781 665.4416,267.0781 C663.3947,267.0781 662.0978,265.9844 662.0978,264.2813 L662.0978,263.1875 C662.0978,261.4063 663.3478,260.0938 665.0822,260.0938 C665.6603,260.0938 666.2697,260.25 666.7385,260.5 C667.2228,260.7813 667.3947,261 667.4885,261.4063 C667.551,261.8125 667.5822,261.9375 667.7228,262.0625 C667.8635,262.2031 668.0978,262.3125 668.3166,262.3125 C668.5822,262.3125 668.8478,262.1719 669.0197,261.9531 C669.1291,261.7969 669.1603,261.6094 669.1603,261.1875 L669.1603,259.7656 C669.1603,259.3281 669.1447,259.2031 669.051,259.0469 C668.8947,258.7813 668.6135,258.6406 668.3166,258.6406 C668.0197,258.6406 667.8166,258.7344 667.5978,259.0469 L667.426,258.9688 Z " fill="#000000"/><text fill="#000000" font-family="sans-serif" font-size="14" lengthAdjust="spacing" textLength="47" x="685.5822" y="268.1436">Minter</text><line style="stroke:#181818;stroke-width:0.5;" x1="487.8322" x2="897.8322" y1="279.2969" y2="279.2969"/><rect fill="none" height="6" style="stroke:#C82930;stroke-width:1.0;" width="6" x="494.8322" y="289.9453"/><text fill="#000000" font-family="sans-serif" font-size="14" lengthAdjust="spacing" textLength="169" x="506.8322" y="296.292">service ServiceManager</text><rect fill="none" height="6" style="stroke:#C82930;stroke-width:1.0;" width="6" x="494.8322" y="306.2422"/><text fill="#000000" font-family="sans-serif" font-size="14" lengthAdjust="spacing" textLength="156" x="506.8322" y="312.5889">challenger Challenger</text><rect fill="none" height="6" style="stroke:#C82930;stroke-width:1.0;" width="6" x="494.8322" y="322.5391"/><text fill="#000000" font-family="sans-serif" font-size="14" lengthAdjust="spacing" textLength="130" x="506.8322" y="328.8857">store SecretStore</text><line style="stroke:#181818;stroke-width:0.5;" x1="487.8322" x2="897.8322" y1="336.1875" y2="336.1875"/><ellipse cx="497.8322" cy="349.8359" fill="#84BE84" rx="3" ry="3" style="stroke:#038048;stroke-width:1.0;"/><text fill="#000000" font-family="sans-serif" font-size="14" lengthAdjust="spacing" textLength="386" x="506.8322" y="353.1826">mintToken(uid UserId, service Service) (PreLsat, error)</text><rect fill="#F24D5C" height="6" style="stroke:#C82930;stroke-width:1.0;" width="6" x="494.8322" y="363.1328"/><text fill="#000000" font-family="sans-serif" font-size="14" lengthAdjust="spacing" textLength="286" x="506.8322" y="369.4795">authToken(uid UserId, lsat *Token) error</text></g><!--class Uid--><g id="elem_Uid"><rect codeLine="10" fill="#F1F1F1" height="32" id="Uid" rx="2.5" ry="2.5" style="stroke:#181818;stroke-width:0.5;" width="76" x="65.8322" y="481.7969"/><ellipse cx="80.8322" cy="497.7969" fill="#ADD1B2" rx="11" ry="11" style="stroke:#181818;stroke-width:1.0;"/><path d="M79.6291,498.6719 L81.0822,498.6719 L81.0822,498.7813 C81.0822,499.1875 81.1135,499.3438 81.1916,499.5 C81.3478,499.75 81.6291,499.9063 81.926,499.9063 C82.176,499.9063 82.4416,499.7656 82.5978,499.5469 C82.7228,499.3906 82.7541,499.2344 82.7541,498.7813 L82.7541,496.8594 C82.7541,496.7031 82.7541,496.6563 82.7385,496.5 C82.676,496.0313 82.3635,495.7188 81.9103,495.7188 C81.6603,495.7188 81.3947,495.8594 81.2228,496.0781 C81.1135,496.25 81.0822,496.4063 81.0822,496.8594 L81.0822,496.9844 L79.6291,496.9844 L79.6291,494.5781 L83.6135,494.5781 L83.6135,495.4375 C83.6135,495.8438 83.6447,496.0156 83.7228,496.1719 C83.8947,496.4219 84.176,496.5781 84.4572,496.5781 C84.7228,496.5781 84.9885,496.4375 85.1603,496.2188 C85.2697,496.0469 85.301,495.9063 85.301,495.4375 L85.301,492.8906 L77.676,492.8906 C77.2385,492.8906 77.1135,492.9063 76.9572,493 C76.7072,493.1563 76.551,493.4531 76.551,493.7344 C76.551,494.0156 76.6916,494.2656 76.9103,494.4375 C77.0666,494.5469 77.2541,494.5781 77.676,494.5781 L77.926,494.5781 L77.926,501.0938 L77.676,501.0938 C77.2697,501.0938 77.1135,501.1094 76.9572,501.2188 C76.7072,501.3906 76.551,501.6563 76.551,501.9531 C76.551,502.2188 76.6916,502.4688 76.9103,502.625 C77.051,502.75 77.2853,502.7969 77.676,502.7969 L85.676,502.7969 L85.676,500.2188 C85.676,499.7813 85.6447,499.6406 85.5666,499.4844 C85.3947,499.2344 85.1135,499.0781 84.8322,499.0781 C84.5666,499.0781 84.301,499.1875 84.1291,499.4375 C84.0197,499.5938 83.9885,499.7344 83.9885,500.2188 L83.9885,501.0938 L79.6291,501.0938 L79.6291,498.6719 Z " fill="#000000"/><text fill="#000000" font-family="sans-serif" font-size="14" lengthAdjust="spacing" textLength="44" x="94.8322" y="502.6436">UserId</text></g><!--class Sec--><g id="elem_Sec"><rect codeLine="12" fill="#F1F1F1" height="32" id="Sec" rx="2.5" ry="2.5" style="stroke:#181818;stroke-width:0.5;" width="80" x="534.8322" y="807.7969"/><ellipse cx="549.8322" cy="823.7969" fill="#ADD1B2" rx="11" ry="11" style="stroke:#181818;stroke-width:1.0;"/><path d="M548.6291,824.6719 L550.0822,824.6719 L550.0822,824.7813 C550.0822,825.1875 550.1135,825.3438 550.1916,825.5 C550.3478,825.75 550.6291,825.9063 550.926,825.9063 C551.176,825.9063 551.4416,825.7656 551.5978,825.5469 C551.7228,825.3906 551.7541,825.2344 551.7541,824.7813 L551.7541,822.8594 C551.7541,822.7031 551.7541,822.6563 551.7385,822.5 C551.676,822.0313 551.3635,821.7188 550.9103,821.7188 C550.6603,821.7188 550.3947,821.8594 550.2228,822.0781 C550.1135,822.25 550.0822,822.4063 550.0822,822.8594 L550.0822,822.9844 L548.6291,822.9844 L548.6291,820.5781 L552.6135,820.5781 L552.6135,821.4375 C552.6135,821.8438 552.6447,822.0156 552.7228,822.1719 C552.8947,822.4219 553.176,822.5781 553.4572,822.5781 C553.7228,822.5781 553.9885,822.4375 554.1603,822.2188 C554.2697,822.0469 554.301,821.9063 554.301,821.4375 L554.301,818.8906 L546.676,818.8906 C546.2385,818.8906 546.1135,818.9063 545.9572,819 C545.7072,819.1563 545.551,819.4531 545.551,819.7344 C545.551,820.0156 545.6916,820.2656 545.9103,820.4375 C546.0666,820.5469 546.2541,820.5781 546.676,820.5781 L546.926,820.5781 L546.926,827.0938 L546.676,827.0938 C546.2697,827.0938 546.1135,827.1094 545.9572,827.2188 C545.7072,827.3906 545.551,827.6563 545.551,827.9531 C545.551,828.2188 545.6916,828.4688 545.9103,828.625 C546.051,828.75 546.2853,828.7969 546.676,828.7969 L554.676,828.7969 L554.676,826.2188 C554.676,825.7813 554.6447,825.6406 554.5666,825.4844 C554.3947,825.2344 554.1135,825.0781 553.8322,825.0781 C553.5666,825.0781 553.301,825.1875 553.1291,825.4375 C553.0197,825.5938 552.9885,825.7344 552.9885,826.2188 L552.9885,827.0938 L548.6291,827.0938 L548.6291,824.6719 Z " fill="#000000"/><text fill="#000000" font-family="sans-serif" font-size="14" lengthAdjust="spacing" textLength="48" x="563.8322" y="828.6436">Secret</text></g><!--class U--><g id="elem_U"><rect codeLine="14" fill="#F1F1F1" height="72.5938" id="U" rx="2.5" ry="2.5" style="stroke:#181818;stroke-width:0.5;" width="124" x="512.8322" y="629.2969"/><ellipse cx="554.8322" cy="645.2969" fill="#A9DCDF" rx="11" ry="11" style="stroke:#181818;stroke-width:1.0;"/><path d="M556.9103,647.1094 L557.301,648.0938 L556.9103,648.0938 C556.4572,648.0938 556.3478,648.1094 556.1916,648.2188 C555.9416,648.375 555.7853,648.6563 555.7853,648.9531 C555.7853,649.2188 555.926,649.4688 556.1447,649.625 C556.2853,649.75 556.4885,649.7969 556.9103,649.7969 L559.2697,649.7969 C559.6291,649.7969 559.8478,649.7656 559.9885,649.6719 C560.2385,649.5313 560.3947,649.2344 560.3947,648.9531 C560.3947,648.6719 560.2541,648.4219 560.0353,648.2656 C559.8635,648.125 559.7072,648.0938 559.2385,648.0938 L555.8478,639.8906 L552.176,639.8906 C551.7228,639.8906 551.5978,639.9063 551.4416,640 C551.1916,640.1719 551.0353,640.4531 551.0353,640.7344 C551.0353,641.0156 551.176,641.2656 551.3947,641.4375 C551.5666,641.5469 551.7385,641.5781 552.176,641.5781 L553.2541,641.5781 L550.6135,648.0938 C550.1916,648.0938 550.0353,648.1094 549.8791,648.2188 C549.6291,648.375 549.4728,648.6563 549.4728,648.9531 C549.4728,649.5156 549.8478,649.7969 550.5978,649.7969 L552.8635,649.7969 C553.2228,649.7969 553.4416,649.7656 553.5666,649.6719 C553.8322,649.5313 553.9728,649.2344 553.9728,648.9531 C553.9728,648.6719 553.8478,648.4219 553.6291,648.25 C553.4572,648.125 553.3166,648.0938 552.8635,648.0938 L552.4728,648.0938 L552.8635,647.1094 L556.9103,647.1094 Z M556.2072,645.4063 L553.5353,645.4063 L554.8791,642.1406 L556.2072,645.4063 Z " fill="#000000"/><text fill="#000000" font-family="sans-serif" font-size="14" font-style="italic" lengthAdjust="spacing" textLength="32" x="574.8322" y="650.1436">User</text><line style="stroke:#181818;stroke-width:0.5;" x1="513.8322" x2="635.8322" y1="661.2969" y2="661.2969"/><ellipse cx="523.8322" cy="674.9453" fill="none" rx="3" ry="3" style="stroke:#038048;stroke-width:1.0;"/><text fill="#000000" font-family="sans-serif" font-size="14" lengthAdjust="spacing" textLength="69" x="532.8322" y="678.292">uid UserId</text><ellipse cx="523.8322" cy="691.2422" fill="none" rx="3" ry="3" style="stroke:#038048;stroke-width:1.0;"/><text fill="#000000" font-family="sans-serif" font-size="14" lengthAdjust="spacing" textLength="98" x="532.8322" y="694.5889">secret Secret</text></g><!--class LN--><g id="elem_LN"><rect codeLine="52" fill="#F1F1F1" height="32" id="LN" rx="2.5" ry="2.5" style="stroke:#181818;stroke-width:0.5;" width="135" x="1221.3322" y="117.7969"/><ellipse cx="1236.3322" cy="133.7969" fill="#B4A7E5" rx="11" ry="11" style="stroke:#181818;stroke-width:1.0;"/><path d="M1237.2853,130.5781 L1239.0041,130.5781 C1239.3947,130.5781 1239.5822,130.5469 1239.7072,130.4688 C1239.9728,130.3125 1240.1135,130.0313 1240.1135,129.7344 C1240.1135,129.4688 1240.0041,129.2031 1239.7697,129.0313 C1239.5978,128.9219 1239.4572,128.8906 1239.0041,128.8906 L1233.8635,128.8906 C1233.426,128.8906 1233.301,128.9063 1233.1447,129 C1232.8947,129.1563 1232.7385,129.4531 1232.7385,129.7344 C1232.7385,130.0156 1232.8791,130.2656 1233.0978,130.4375 C1233.2541,130.5469 1233.4416,130.5781 1233.8635,130.5781 L1235.5822,130.5781 L1235.5822,137.0938 L1233.8635,137.0938 C1233.426,137.0938 1233.301,137.1094 1233.1447,137.2188 C1232.8947,137.375 1232.7385,137.6563 1232.7385,137.9531 C1232.7385,138.2031 1232.8791,138.4688 1233.0978,138.625 C1233.2541,138.75 1233.4572,138.7969 1233.8635,138.7969 L1239.0041,138.7969 C1239.7541,138.7969 1240.1135,138.5156 1240.1135,137.9531 C1240.1135,137.6719 1240.0041,137.4219 1239.7697,137.25 C1239.5978,137.125 1239.4572,137.0938 1239.0041,137.0938 L1237.2853,137.0938 L1237.2853,130.5781 Z " fill="#000000"/><text fill="#000000" font-family="sans-serif" font-size="14" font-style="italic" lengthAdjust="spacing" textLength="103" x="1250.3322" y="138.6436">LightningNode</text></g><!--class Token--><g id="elem_Token"><rect codeLine="54" fill="#F1F1F1" height="72.5938" id="Token" rx="2.5" ry="2.5" style="stroke:#181818;stroke-width:0.5;" width="156" x="529.8322" y="1253.2969"/><ellipse cx="581.0822" cy="1269.2969" fill="#ADD1B2" rx="11" ry="11" style="stroke:#181818;stroke-width:1.0;"/><path d="M583.426,1264.9688 C582.4885,1264.5313 581.8947,1264.3906 581.0197,1264.3906 C578.3947,1264.3906 576.3947,1266.4688 576.3947,1269.1875 L576.3947,1270.3125 C576.3947,1272.8906 578.5041,1274.7813 581.3947,1274.7813 C582.6135,1274.7813 583.7697,1274.4844 584.5197,1273.9375 C585.0978,1273.5313 585.426,1273.0781 585.426,1272.6875 C585.426,1272.2344 585.0353,1271.8438 584.5666,1271.8438 C584.3478,1271.8438 584.1447,1271.9219 583.9572,1272.1094 C583.5041,1272.5938 583.5041,1272.5938 583.3166,1272.6875 C582.8947,1272.9531 582.2072,1273.0781 581.4416,1273.0781 C579.3947,1273.0781 578.0978,1271.9844 578.0978,1270.2813 L578.0978,1269.1875 C578.0978,1267.4063 579.3478,1266.0938 581.0822,1266.0938 C581.6603,1266.0938 582.2697,1266.25 582.7385,1266.5 C583.2228,1266.7813 583.3947,1267 583.4885,1267.4063 C583.551,1267.8125 583.5822,1267.9375 583.7228,1268.0625 C583.8635,1268.2031 584.0978,1268.3125 584.3166,1268.3125 C584.5822,1268.3125 584.8478,1268.1719 585.0197,1267.9531 C585.1291,1267.7969 585.1603,1267.6094 585.1603,1267.1875 L585.1603,1265.7656 C585.1603,1265.3281 585.1447,1265.2031 585.051,1265.0469 C584.8947,1264.7813 584.6135,1264.6406 584.3166,1264.6406 C584.0197,1264.6406 583.8166,1264.7344 583.5978,1265.0469 L583.426,1264.9688 Z " fill="#000000"/><text fill="#000000" font-family="sans-serif" font-size="14" lengthAdjust="spacing" textLength="45" x="601.5822" y="1274.1436">Token</text><line style="stroke:#181818;stroke-width:0.5;" x1="530.8322" x2="684.8322" y1="1285.2969" y2="1285.2969"/><text fill="#000000" font-family="sans-serif" font-size="14" lengthAdjust="spacing" textLength="144" x="535.8322" y="1302.292">macaroon Macaroon</text><text fill="#000000" font-family="sans-serif" font-size="14" lengthAdjust="spacing" textLength="117" x="535.8322" y="1318.5889">preimage String</text></g><!--class pToken--><g id="elem_pToken"><rect codeLine="59" fill="#F1F1F1" height="72.5938" id="pToken" rx="2.5" ry="2.5" style="stroke:#181818;stroke-width:0.5;" width="156" x="277.8322" y="1103.2969"/><ellipse cx="317.5822" cy="1119.2969" fill="#ADD1B2" rx="11" ry="11" style="stroke:#181818;stroke-width:1.0;"/><path d="M319.926,1114.9688 C318.9885,1114.5313 318.3947,1114.3906 317.5197,1114.3906 C314.8947,1114.3906 312.8947,1116.4688 312.8947,1119.1875 L312.8947,1120.3125 C312.8947,1122.8906 315.0041,1124.7813 317.8947,1124.7813 C319.1135,1124.7813 320.2697,1124.4844 321.0197,1123.9375 C321.5978,1123.5313 321.926,1123.0781 321.926,1122.6875 C321.926,1122.2344 321.5353,1121.8438 321.0666,1121.8438 C320.8478,1121.8438 320.6447,1121.9219 320.4572,1122.1094 C320.0041,1122.5938 320.0041,1122.5938 319.8166,1122.6875 C319.3947,1122.9531 318.7072,1123.0781 317.9416,1123.0781 C315.8947,1123.0781 314.5978,1121.9844 314.5978,1120.2813 L314.5978,1119.1875 C314.5978,1117.4063 315.8478,1116.0938 317.5822,1116.0938 C318.1603,1116.0938 318.7697,1116.25 319.2385,1116.5 C319.7228,1116.7813 319.8947,1117 319.9885,1117.4063 C320.051,1117.8125 320.0822,1117.9375 320.2228,1118.0625 C320.3635,1118.2031 320.5978,1118.3125 320.8166,1118.3125 C321.0822,1118.3125 321.3478,1118.1719 321.5197,1117.9531 C321.6291,1117.7969 321.6603,1117.6094 321.6603,1117.1875 L321.6603,1115.7656 C321.6603,1115.3281 321.6447,1115.2031 321.551,1115.0469 C321.3947,1114.7813 321.1135,1114.6406 320.8166,1114.6406 C320.5197,1114.6406 320.3166,1114.7344 320.0978,1115.0469 L319.926,1114.9688 Z " fill="#000000"/><text fill="#000000" font-family="sans-serif" font-size="14" lengthAdjust="spacing" textLength="69" x="337.0822" y="1124.1436">PreToken</text><line style="stroke:#181818;stroke-width:0.5;" x1="278.8322" x2="432.8322" y1="1135.2969" y2="1135.2969"/><text fill="#000000" font-family="sans-serif" font-size="14" lengthAdjust="spacing" textLength="144" x="283.8322" y="1152.292">macaroon Macaroon</text><text fill="#000000" font-family="sans-serif" font-size="14" lengthAdjust="spacing" textLength="99" x="283.8322" y="1168.5889">invoice String</text></g><!--class Mac--><g id="elem_Mac"><rect codeLine="65" fill="#F1F1F1" height="88.8906" id="Mac" rx="2.5" ry="2.5" style="stroke:#181818;stroke-width:0.5;" width="131" x="459.3322" y="937.2969"/><ellipse cx="487.8322" cy="953.2969" fill="#ADD1B2" rx="11" ry="11" style="stroke:#181818;stroke-width:1.0;"/><path d="M490.176,948.9688 C489.2385,948.5313 488.6447,948.3906 487.7697,948.3906 C485.1447,948.3906 483.1447,950.4688 483.1447,953.1875 L483.1447,954.3125 C483.1447,956.8906 485.2541,958.7813 488.1447,958.7813 C489.3635,958.7813 490.5197,958.4844 491.2697,957.9375 C491.8478,957.5313 492.176,957.0781 492.176,956.6875 C492.176,956.2344 491.7853,955.8438 491.3166,955.8438 C491.0978,955.8438 490.8947,955.9219 490.7072,956.1094 C490.2541,956.5938 490.2541,956.5938 490.0666,956.6875 C489.6447,956.9531 488.9572,957.0781 488.1916,957.0781 C486.1447,957.0781 484.8478,955.9844 484.8478,954.2813 L484.8478,953.1875 C484.8478,951.4063 486.0978,950.0938 487.8322,950.0938 C488.4103,950.0938 489.0197,950.25 489.4885,950.5 C489.9728,950.7813 490.1447,951 490.2385,951.4063 C490.301,951.8125 490.3322,951.9375 490.4728,952.0625 C490.6135,952.2031 490.8478,952.3125 491.0666,952.3125 C491.3322,952.3125 491.5978,952.1719 491.7697,951.9531 C491.8791,951.7969 491.9103,951.6094 491.9103,951.1875 L491.9103,949.7656 C491.9103,949.3281 491.8947,949.2031 491.801,949.0469 C491.6447,948.7813 491.3635,948.6406 491.0666,948.6406 C490.7697,948.6406 490.5666,948.7344 490.3478,949.0469 L490.176,948.9688 Z " fill="#000000"/><text fill="#000000" font-family="sans-serif" font-size="14" lengthAdjust="spacing" textLength="69" x="504.8322" y="958.1436">Macaroon</text><line style="stroke:#181818;stroke-width:0.5;" x1="460.3322" x2="589.3322" y1="969.2969" y2="969.2969"/><text fill="#000000" font-family="sans-serif" font-size="14" lengthAdjust="spacing" textLength="119" x="465.3322" y="986.292">caveats []Caveat</text><text fill="#000000" font-family="sans-serif" font-size="14" lengthAdjust="spacing" textLength="68" x="465.3322" y="1002.5889">sig String</text><text fill="#000000" font-family="sans-serif" font-size="14" lengthAdjust="spacing" textLength="99" x="465.3322" y="1018.8857">service String</text></g><!--class Tid--><g id="elem_Tid"><rect codeLine="71" fill="#F1F1F1" height="88.8906" id="Tid" rx="2.5" ry="2.5" style="stroke:#181818;stroke-width:0.5;" width="122" x="843.8322" y="621.2969"/><ellipse cx="873.2322" cy="637.2969" fill="#ADD1B2" rx="11" ry="11" style="stroke:#181818;stroke-width:1.0;"/><path d="M875.576,632.9688 C874.6385,632.5313 874.0447,632.3906 873.1697,632.3906 C870.5447,632.3906 868.5447,634.4688 868.5447,637.1875 L868.5447,638.3125 C868.5447,640.8906 870.6541,642.7813 873.5447,642.7813 C874.7635,642.7813 875.9197,642.4844 876.6697,641.9375 C877.2478,641.5313 877.576,641.0781 877.576,640.6875 C877.576,640.2344 877.1853,639.8438 876.7166,639.8438 C876.4978,639.8438 876.2947,639.9219 876.1072,640.1094 C875.6541,640.5938 875.6541,640.5938 875.4666,640.6875 C875.0447,640.9531 874.3572,641.0781 873.5916,641.0781 C871.5447,641.0781 870.2478,639.9844 870.2478,638.2813 L870.2478,637.1875 C870.2478,635.4063 871.4978,634.0938 873.2322,634.0938 C873.8103,634.0938 874.4197,634.25 874.8885,634.5 C875.3728,634.7813 875.5447,635 875.6385,635.4063 C875.701,635.8125 875.7322,635.9375 875.8728,636.0625 C876.0135,636.2031 876.2478,636.3125 876.4666,636.3125 C876.7322,636.3125 876.9978,636.1719 877.1697,635.9531 C877.2791,635.7969 877.3103,635.6094 877.3103,635.1875 L877.3103,633.7656 C877.3103,633.3281 877.2947,633.2031 877.201,633.0469 C877.0447,632.7813 876.7635,632.6406 876.4666,632.6406 C876.1697,632.6406 875.9666,632.7344 875.7478,633.0469 L875.576,632.9688 Z " fill="#000000"/><text fill="#000000" font-family="sans-serif" font-size="14" lengthAdjust="spacing" textLength="58" x="890.4322" y="642.1436">TokenId</text><line style="stroke:#181818;stroke-width:0.5;" x1="844.8322" x2="964.8322" y1="653.2969" y2="653.2969"/><text fill="#000000" font-family="sans-serif" font-size="14" lengthAdjust="spacing" textLength="71" x="849.8322" y="670.292">hash Hash</text><text fill="#000000" font-family="sans-serif" font-size="14" lengthAdjust="spacing" textLength="69" x="849.8322" y="686.5889">uid UserId</text><text fill="#000000" font-family="sans-serif" font-size="14" lengthAdjust="spacing" textLength="110" x="849.8322" y="702.8857">version Version</text></g><!--class Ca--><g id="elem_Ca"><rect codeLine="77" fill="#F1F1F1" height="72.5938" id="Ca" rx="2.5" ry="2.5" style="stroke:#181818;stroke-width:0.5;" width="100" x="399.8322" y="787.2969"/><ellipse cx="422.9322" cy="803.2969" fill="#ADD1B2" rx="11" ry="11" style="stroke:#181818;stroke-width:1.0;"/><path d="M425.276,798.9688 C424.3385,798.5313 423.7447,798.3906 422.8697,798.3906 C420.2447,798.3906 418.2447,800.4688 418.2447,803.1875 L418.2447,804.3125 C418.2447,806.8906 420.3541,808.7813 423.2447,808.7813 C424.4635,808.7813 425.6197,808.4844 426.3697,807.9375 C426.9478,807.5313 427.276,807.0781 427.276,806.6875 C427.276,806.2344 426.8853,805.8438 426.4166,805.8438 C426.1978,805.8438 425.9947,805.9219 425.8072,806.1094 C425.3541,806.5938 425.3541,806.5938 425.1666,806.6875 C424.7447,806.9531 424.0572,807.0781 423.2916,807.0781 C421.2447,807.0781 419.9478,805.9844 419.9478,804.2813 L419.9478,803.1875 C419.9478,801.4063 421.1978,800.0938 422.9322,800.0938 C423.5103,800.0938 424.1197,800.25 424.5885,800.5 C425.0728,800.7813 425.2447,801 425.3385,801.4063 C425.401,801.8125 425.4322,801.9375 425.5728,802.0625 C425.7135,802.2031 425.9478,802.3125 426.1666,802.3125 C426.4322,802.3125 426.6978,802.1719 426.8697,801.9531 C426.9791,801.7969 427.0103,801.6094 427.0103,801.1875 L427.0103,799.7656 C427.0103,799.3281 426.9947,799.2031 426.901,799.0469 C426.7447,798.7813 426.4635,798.6406 426.1666,798.6406 C425.8697,798.6406 425.6666,798.7344 425.4478,799.0469 L425.276,798.9688 Z " fill="#000000"/><text fill="#000000" font-family="sans-serif" font-size="14" lengthAdjust="spacing" textLength="50" x="438.7322" y="808.1436">Caveat</text><line style="stroke:#181818;stroke-width:0.5;" x1="400.8322" x2="498.8322" y1="819.2969" y2="819.2969"/><text fill="#000000" font-family="sans-serif" font-size="14" lengthAdjust="spacing" textLength="88" x="405.8322" y="836.292">name String</text><text fill="#000000" font-family="sans-serif" font-size="14" lengthAdjust="spacing" textLength="85" x="405.8322" y="852.5889">value String</text></g><!--class Ser--><g id="elem_Ser"><rect codeLine="83" fill="#F1F1F1" height="72.5938" id="Ser" rx="2.5" ry="2.5" style="stroke:#181818;stroke-width:0.5;" width="100" x="743.8322" y="1103.2969"/><ellipse cx="765.5822" cy="1119.2969" fill="#ADD1B2" rx="11" ry="11" style="stroke:#181818;stroke-width:1.0;"/><path d="M767.926,1114.9688 C766.9885,1114.5313 766.3947,1114.3906 765.5197,1114.3906 C762.8947,1114.3906 760.8947,1116.4688 760.8947,1119.1875 L760.8947,1120.3125 C760.8947,1122.8906 763.0041,1124.7813 765.8947,1124.7813 C767.1135,1124.7813 768.2697,1124.4844 769.0197,1123.9375 C769.5978,1123.5313 769.926,1123.0781 769.926,1122.6875 C769.926,1122.2344 769.5353,1121.8438 769.0666,1121.8438 C768.8478,1121.8438 768.6447,1121.9219 768.4572,1122.1094 C768.0041,1122.5938 768.0041,1122.5938 767.8166,1122.6875 C767.3947,1122.9531 766.7072,1123.0781 765.9416,1123.0781 C763.8947,1123.0781 762.5978,1121.9844 762.5978,1120.2813 L762.5978,1119.1875 C762.5978,1117.4063 763.8478,1116.0938 765.5822,1116.0938 C766.1603,1116.0938 766.7697,1116.25 767.2385,1116.5 C767.7228,1116.7813 767.8947,1117 767.9885,1117.4063 C768.051,1117.8125 768.0822,1117.9375 768.2228,1118.0625 C768.3635,1118.2031 768.5978,1118.3125 768.8166,1118.3125 C769.0822,1118.3125 769.3478,1118.1719 769.5197,1117.9531 C769.6291,1117.7969 769.6603,1117.6094 769.6603,1117.1875 L769.6603,1115.7656 C769.6603,1115.3281 769.6447,1115.2031 769.551,1115.0469 C769.3947,1114.7813 769.1135,1114.6406 768.8166,1114.6406 C768.5197,1114.6406 768.3166,1114.7344 768.0978,1115.0469 L767.926,1114.9688 Z " fill="#000000"/><text fill="#000000" font-family="sans-serif" font-size="14" lengthAdjust="spacing" textLength="53" x="781.0822" y="1124.1436">Service</text><line style="stroke:#181818;stroke-width:0.5;" x1="744.8322" x2="842.8322" y1="1135.2969" y2="1135.2969"/><text fill="#000000" font-family="sans-serif" font-size="14" lengthAdjust="spacing" textLength="88" x="749.8322" y="1152.292">name String</text><text fill="#000000" font-family="sans-serif" font-size="14" lengthAdjust="spacing" textLength="78" x="749.8322" y="1168.5889">price int64</text></g><!--class PR--><g id="elem_PR"><rect codeLine="88" fill="#F1F1F1" height="56.2969" id="PR" rx="2.5" ry="2.5" style="stroke:#181818;stroke-width:0.5;" width="155" x="256.3322" y="637.7969"/><ellipse cx="271.3322" cy="653.7969" fill="#ADD1B2" rx="11" ry="11" style="stroke:#181818;stroke-width:1.0;"/><path d="M273.676,649.4688 C272.7385,649.0313 272.1447,648.8906 271.2697,648.8906 C268.6447,648.8906 266.6447,650.9688 266.6447,653.6875 L266.6447,654.8125 C266.6447,657.3906 268.7541,659.2813 271.6447,659.2813 C272.8635,659.2813 274.0197,658.9844 274.7697,658.4375 C275.3478,658.0313 275.676,657.5781 275.676,657.1875 C275.676,656.7344 275.2853,656.3438 274.8166,656.3438 C274.5978,656.3438 274.3947,656.4219 274.2072,656.6094 C273.7541,657.0938 273.7541,657.0938 273.5666,657.1875 C273.1447,657.4531 272.4572,657.5781 271.6916,657.5781 C269.6447,657.5781 268.3478,656.4844 268.3478,654.7813 L268.3478,653.6875 C268.3478,651.9063 269.5978,650.5938 271.3322,650.5938 C271.9103,650.5938 272.5197,650.75 272.9885,651 C273.4728,651.2813 273.6447,651.5 273.7385,651.9063 C273.801,652.3125 273.8322,652.4375 273.9728,652.5625 C274.1135,652.7031 274.3478,652.8125 274.5666,652.8125 C274.8322,652.8125 275.0978,652.6719 275.2697,652.4531 C275.3791,652.2969 275.4103,652.1094 275.4103,651.6875 L275.4103,650.2656 C275.4103,649.8281 275.3947,649.7031 275.301,649.5469 C275.1447,649.2813 274.8635,649.1406 274.5666,649.1406 C274.2697,649.1406 274.0666,649.2344 273.8478,649.5469 L273.676,649.4688 Z " fill="#000000"/><text fill="#000000" font-family="sans-serif" font-size="14" lengthAdjust="spacing" textLength="123" x="285.3322" y="658.6436">PaymentRequest</text><line style="stroke:#181818;stroke-width:0.5;" x1="257.3322" x2="410.3322" y1="669.7969" y2="669.7969"/><text fill="#000000" font-family="sans-serif" font-size="14" lengthAdjust="spacing" textLength="99" x="262.3322" y="686.792">invoice String</text></g><!--link Token to Mac--><g id="link_Token_Mac"><path codeLine="92" d="M598.1382,1253.0566 C582.8412,1196.6619 553.1512,1087.1999 536.6362,1026.3139 " fill="none" id="Token-Mac" style="stroke:#181818;stroke-width:1.0;"/><polygon fill="#000000" points="580.5233,1135.0376,580.0547,1144.5367,585.7276,1142.9979,580.5233,1135.0376" style="stroke:#000000;stroke-width:1.0;"/><text fill="#000000" font-family="sans-serif" font-size="13" lengthAdjust="spacing" textLength="26" x="590.8322" y="1144.3638">Sert</text><text fill="#000000" font-family="sans-serif" font-size="13" lengthAdjust="spacing" textLength="8" x="587.699" y="1242.2912">1</text><text fill="#000000" font-family="sans-serif" font-size="13" lengthAdjust="spacing" textLength="8" x="529.8312" y="1046.3644">1</text></g><!--link pToken to Token--><g id="link_pToken_Token"><path codeLine="93" d="M384.5382,1176.3789 C398.9012,1192.3979 417.3582,1210.5329 436.8322,1223.2969 C465.0162,1241.7697 499.1782,1256.1745 529.5352,1266.713 " fill="none" id="pToken-Token" style="stroke:#181818;stroke-width:1.0;"/><polygon fill="#000000" points="446.076,1217.5072,439.953,1210.2299,436.8449,1215.2188,446.076,1217.5072" style="stroke:#000000;stroke-width:1.0;"/><text fill="#000000" font-family="sans-serif" font-size="13" lengthAdjust="spacing" textLength="47" x="450.8322" y="1219.3638">Génére</text><text fill="#000000" font-family="sans-serif" font-size="13" lengthAdjust="spacing" textLength="8" x="380.7845" y="1196.0687">1</text><text fill="#000000" font-family="sans-serif" font-size="13" lengthAdjust="spacing" textLength="8" x="513.9485" y="1260.9853">1</text></g><!--link Mi to pToken--><g id="link_Mi_pToken"><path codeLine="94" d="M486.5022,328.7849 C286.4012,350.1449 12.8322,397.5039 12.8322,496.7969 C12.8322,496.7969 12.8322,496.7969 12.8322,982.7969 C12.8322,1098.4239 176.3382,1128.7499 277.5712,1136.4459 " fill="none" id="Mi-pToken" style="stroke:#181818;stroke-width:1.0;"/><polygon fill="#000000" points="16.58,753.7039,21.6905,745.6831,16,744.2111,16.58,753.7039" style="stroke:#000000;stroke-width:1.0;"/><text fill="#000000" font-family="sans-serif" font-size="13" lengthAdjust="spacing" textLength="26" x="26.8322" y="753.3638">Mint</text><text fill="#000000" font-family="sans-serif" font-size="13" lengthAdjust="spacing" textLength="8" x="470.9435" y="326.1885">1</text><text fill="#000000" font-family="sans-serif" font-size="13" lengthAdjust="spacing" textLength="7" x="262.7784" y="1132.5042">*</text></g><!--link PR to pToken--><g id="link_PR_pToken"><path codeLine="95" d="M335.0942,693.8689 C338.8462,774.3779 349.9382,1012.3359 354.1672,1103.0849 " fill="none" id="PR-pToken" style="stroke:#181818;stroke-width:1.0;"/><polygon fill="#000000" points="350.065,903.8579,352.5796,894.6858,346.7081,894.9594,350.065,903.8579" style="stroke:#000000;stroke-width:1.0;"/><text fill="#000000" font-family="sans-serif" font-size="13" lengthAdjust="spacing" textLength="61" x="358.8322" y="903.3638">Compose</text><text fill="#000000" font-family="sans-serif" font-size="13" lengthAdjust="spacing" textLength="8" x="326.461" y="714.1428">1</text><text fill="#000000" font-family="sans-serif" font-size="13" lengthAdjust="spacing" textLength="8" x="345.1581" y="1092.3245">1</text></g><!--link Mac to pToken--><g id="link_Mac_pToken"><path codeLine="96" d="M459.1362,1026.2069 C446.6042,1035.5619 433.9432,1045.8089 422.8322,1056.2969 C407.9382,1070.3559 393.3642,1087.7329 381.6322,1102.9079 " fill="none" id="Mac-pToken" style="stroke:#181818;stroke-width:1.0;"/><polygon fill="#000000" points="424.2783,1068.3804,432.7747,1064.1068,428.6401,1059.929,424.2783,1068.3804" style="stroke:#000000;stroke-width:1.0;"/><text fill="#000000" font-family="sans-serif" font-size="13" lengthAdjust="spacing" textLength="61" x="436.8322" y="1069.3638">Compose</text><text fill="#000000" font-family="sans-serif" font-size="13" lengthAdjust="spacing" textLength="8" x="443.5132" y="1027.324">1</text><text fill="#000000" font-family="sans-serif" font-size="13" lengthAdjust="spacing" textLength="8" x="377.5153" y="1092.116">1</text></g><!--link Tid to Token--><g id="link_Tid_Token"><path codeLine="98" d="M903.5422,710.5009 C902.7292,741.7729 901.8322,784.8729 901.8322,822.7969 C901.8322,822.7969 901.8322,822.7969 901.8322,1140.7969 C901.8322,1237.6563 772.9462,1271.1342 685.8472,1282.6995 " fill="none" id="Tid-Token" style="stroke:#181818;stroke-width:1.0;"/><polygon fill="#000000" points="905.0543,986.5365,911.0174,979.1276,905.5237,977.0375,905.0543,986.5365" style="stroke:#000000;stroke-width:1.0;"/><text fill="#000000" font-family="sans-serif" font-size="13" lengthAdjust="spacing" textLength="51" x="915.8322" y="986.3638">Identifie</text><text fill="#000000" font-family="sans-serif" font-size="13" lengthAdjust="spacing" textLength="8" x="894.7652" y="730.253">1</text><text fill="#000000" font-family="sans-serif" font-size="13" lengthAdjust="spacing" textLength="8" x="693.9206" y="1278.356">1</text></g><!--link Mac to Ser--><g id="link_Mac_Ser"><path codeLine="99" d="M590.3882,1021.2089 C617.9782,1037.3399 650.4412,1056.2729 679.8322,1073.2969 C700.6702,1085.3669 723.6942,1098.6119 743.5642,1110.0149 " fill="none" id="Mac-Ser" style="stroke:#181818;stroke-width:1.0;"/><polygon fill="#000000" points="689.1578,1067.3711,682.8068,1060.2919,679.8587,1065.3769,689.1578,1067.3711" style="stroke:#000000;stroke-width:1.0;"/><text fill="#000000" font-family="sans-serif" font-size="13" lengthAdjust="spacing" textLength="70" x="693.8322" y="1069.3638">Authentifie</text><text fill="#000000" font-family="sans-serif" font-size="13" lengthAdjust="spacing" textLength="8" x="598.4306" y="1021.9796">1</text><text fill="#000000" font-family="sans-serif" font-size="13" lengthAdjust="spacing" textLength="7" x="728.667" y="1101.6456">*</text></g><!--link Ca to Mac--><g id="link_Ca_Mac"><path codeLine="100" d="M454.6212,860.4089 C457.4912,875.3699 461.9642,892.6599 468.8322,907.2969 C473.6702,917.6079 480.1322,927.8539 486.9452,937.2759 " fill="none" id="Ca-Mac" style="stroke:#181818;stroke-width:1.0;"/><polygon fill="#000000" points="475.7704,903.4723,474.9733,893.9952,469.555,896.2737,475.7704,903.4723" style="stroke:#000000;stroke-width:1.0;"/><text fill="#000000" font-family="sans-serif" font-size="13" lengthAdjust="spacing" textLength="58" x="482.8322" y="903.3638">Restreint</text><text fill="#000000" font-family="sans-serif" font-size="13" lengthAdjust="spacing" textLength="7" x="447.8347" y="879.8265">*</text><text fill="#000000" font-family="sans-serif" font-size="13" lengthAdjust="spacing" textLength="7" x="473.3492" y="926.0712">*</text></g><!--link Mi to Ch--><g id="link_Mi_Ch"><path codeLine="102" d="M486.4082,351.1769 C427.3312,366.0429 373.3392,384.7199 352.8322,406.2969 C336.8702,423.0929 332.5372,449.6279 331.8012,469.6319 " fill="none" id="Mi-Ch" style="stroke:#181818;stroke-width:1.0;"/><polygon fill="#000000" points="353.8632,417.9042,362.8306,414.736,359.2558,410.0702,353.8632,417.9042" style="stroke:#000000;stroke-width:1.0;"/><text fill="#000000" font-family="sans-serif" font-size="13" lengthAdjust="spacing" textLength="38" x="366.8322" y="419.3638">Utilise</text><text fill="#000000" font-family="sans-serif" font-size="13" lengthAdjust="spacing" textLength="8" x="470.8461" y="349.3831">1</text><text fill="#000000" font-family="sans-serif" font-size="13" lengthAdjust="spacing" textLength="8" x="322.7007" y="458.8791">1</text></g><!--link Mi to SS--><g id="link_Mi_SS"><path codeLine="103" d="M692.8322,376.3769 C692.8322,401.7229 692.8322,430.2599 692.8322,453.1899 " fill="none" id="Mi-SS" style="stroke:#181818;stroke-width:1.0;"/><polygon fill="#000000" points="697.8322,419.8633,700.7711,410.8182,694.8933,410.8182,697.8322,419.8633" style="stroke:#000000;stroke-width:1.0;"/><text fill="#000000" font-family="sans-serif" font-size="13" lengthAdjust="spacing" textLength="38" x="706.8322" y="419.3638">Utilise</text><text fill="#000000" font-family="sans-serif" font-size="13" lengthAdjust="spacing" textLength="8" x="684.3697" y="396.7577">1</text><text fill="#000000" font-family="sans-serif" font-size="13" lengthAdjust="spacing" textLength="8" x="684.2197" y="442.2964">1</text></g><!--link Mi to SM--><g id="link_Mi_SM"><path codeLine="104" d="M813.7722,376.3769 C867.8132,404.7869 929.4812,437.2069 975.2062,461.2449 " fill="none" id="Mi-SM" style="stroke:#181818;stroke-width:1.0;"/><polygon fill="#000000" points="908.2579,417.1899,901.6193,410.3796,898.8842,415.5823,908.2579,417.1899" style="stroke:#000000;stroke-width:1.0;"/><text fill="#000000" font-family="sans-serif" font-size="13" lengthAdjust="spacing" textLength="38" x="912.8322" y="419.3638">Utilise</text><text fill="#000000" font-family="sans-serif" font-size="13" lengthAdjust="spacing" textLength="8" x="819.2934" y="396.7577">1</text><text fill="#000000" font-family="sans-serif" font-size="13" lengthAdjust="spacing" textLength="8" x="954.0002" y="450.2394">1</text></g><!--link SS to U--><g id="link_SS_U"><path codeLine="106" d="M623.8922,542.6479 C613.2322,551.9889 603.3022,562.6089 595.8322,574.2969 C585.4092,590.6059 580.1432,611.5099 577.4902,629.1189 " fill="none" id="SS-U" style="stroke:#181818;stroke-width:1.0;"/><polygon fill="#000000" points="598.468,587.269,605.3345,580.6886,600.1553,577.9093,598.468,587.269" style="stroke:#000000;stroke-width:1.0;"/><text fill="#000000" font-family="sans-serif" font-size="13" lengthAdjust="spacing" textLength="54" x="609.8322" y="587.3638">Contient</text><text fill="#000000" font-family="sans-serif" font-size="13" lengthAdjust="spacing" textLength="8" x="605.635" y="562.0937">1</text><text fill="#000000" font-family="sans-serif" font-size="13" lengthAdjust="spacing" textLength="7" x="570.3402" y="618.3646">*</text></g><!--link SS to Token--><g id="link_SS_Token"><path codeLine="107" d="M692.0192,542.4839 C691.4652,575.9579 690.8322,623.2939 690.8322,664.7969 C690.8322,664.7969 690.8322,664.7969 690.8322,1140.7969 C690.8322,1183.3659 664.3882,1225.0319 641.3522,1253.2521 " fill="none" id="SS-Token" style="stroke:#181818;stroke-width:1.0;"/><polygon fill="#000000" points="695.4767,903.8506,699.0513,895.0374,693.1883,894.6195,695.4767,903.8506" style="stroke:#000000;stroke-width:1.0;"/><text fill="#000000" font-family="sans-serif" font-size="13" lengthAdjust="spacing" textLength="54" x="704.8322" y="903.3638">Contient</text><text fill="#000000" font-family="sans-serif" font-size="13" lengthAdjust="spacing" textLength="8" x="683.3123" y="562.2335">1</text><text fill="#000000" font-family="sans-serif" font-size="13" lengthAdjust="spacing" textLength="7" x="639.8871" y="1242.2479">*</text></g><!--link SS to Uid--><g id="link_SS_Uid"><path codeLine="108" d="M594.1712,453.1909 C555.4602,437.9669 510.1242,422.8789 467.3322,415.2969 C399.7522,403.3229 223.8902,426.2019 160.8322,453.2969 C145.3752,459.9379 130.4832,471.8189 119.7982,481.6349 " fill="none" id="SS-Uid" style="stroke:#181818;stroke-width:1.0;"/><polygon fill="#000000" points="414.3412,415.1626,423.5459,417.5548,423.1941,411.6875,414.3412,415.1626" style="stroke:#000000;stroke-width:1.0;"/><text fill="#000000" font-family="sans-serif" font-size="13" lengthAdjust="spacing" textLength="38" x="428.3322" y="419.3638">Utilise</text><text fill="#000000" font-family="sans-serif" font-size="13" lengthAdjust="spacing" textLength="8" x="570.4512" y="442.2976">1</text><text fill="#000000" font-family="sans-serif" font-size="13" lengthAdjust="spacing" textLength="7" x="117.0841" y="470.5908">*</text></g><!--link SS to Tid--><g id="link_SS_Tid"><path codeLine="109" d="M748.5332,542.4119 C779.5702,566.7149 818.0992,596.8829 849.1362,621.1859 " fill="none" id="SS-Tid" style="stroke:#181818;stroke-width:1.0;"/><polygon fill="#000000" points="813.7689,585.9458,808.4592,578.0555,804.8354,582.6834,813.7689,585.9458" style="stroke:#000000;stroke-width:1.0;"/><text fill="#000000" font-family="sans-serif" font-size="13" lengthAdjust="spacing" textLength="38" x="818.8322" y="587.3638">Utilise</text><text fill="#000000" font-family="sans-serif" font-size="13" lengthAdjust="spacing" textLength="8" x="748.1268" y="562.1509">1</text><text fill="#000000" font-family="sans-serif" font-size="13" lengthAdjust="spacing" textLength="7" x="833.0718" y="610.2918">*</text></g><!--link U to Sec--><g id="link_U_Sec"><path codeLine="110" d="M574.8322,702.5869 C574.8322,735.6899 574.8322,783.3079 574.8322,807.4749 " fill="none" id="U-Sec" style="stroke:#181818;stroke-width:1.0;"/><polygon fill="#000000" points="579.8322,753.8633,582.7711,744.8182,576.8933,744.8182,579.8322,753.8633" style="stroke:#000000;stroke-width:1.0;"/><text fill="#000000" font-family="sans-serif" font-size="13" lengthAdjust="spacing" textLength="54" x="588.8322" y="753.3638">Possède</text><text fill="#000000" font-family="sans-serif" font-size="13" lengthAdjust="spacing" textLength="8" x="566.1697" y="722.0339">1</text><text fill="#000000" font-family="sans-serif" font-size="13" lengthAdjust="spacing" textLength="8" x="565.5072" y="796.6727">1</text></g><!--link Uid to U--><g id="link_Uid_U"><path codeLine="111" d="M112.5394,513.8039 C122.3182,529.3069 139.6292,553.0499 160.8322,566.2969 C193.7212,586.8449 407.9112,616.3399 428.8322,621.2969 C456.6272,627.8819 486.9552,636.6529 512.7312,644.5939 " fill="none" id="Uid-U" style="stroke:#181818;stroke-width:1.0;"/><polygon fill="#000000" points="259.5848,584.4165,251.9002,578.8132,250.0743,584.4002,259.5848,584.4165" style="stroke:#000000;stroke-width:1.0;"/><text fill="#000000" font-family="sans-serif" font-size="13" lengthAdjust="spacing" textLength="51" x="263.8322" y="587.3638">Identifie</text><text fill="#000000" font-family="sans-serif" font-size="13" lengthAdjust="spacing" textLength="8" x="106.1575" y="533.9741">1</text><text fill="#000000" font-family="sans-serif" font-size="13" lengthAdjust="spacing" textLength="8" x="496.6751" y="638.1954">1</text></g><!--link Sec to Mac--><g id="link_Sec_Mac"><path codeLine="112" d="M569.9472,840.0389 C562.7962,862.3489 549.2002,904.7679 538.7952,937.2309 " fill="none" id="Sec-Mac" style="stroke:#181818;stroke-width:1.0;"/><polygon fill="#000000" points="556.3061,903.6247,561.8655,895.9083,556.2682,894.1142,556.3061,903.6247" style="stroke:#000000;stroke-width:1.0;"/><text fill="#000000" font-family="sans-serif" font-size="13" lengthAdjust="spacing" textLength="47" x="566.8322" y="903.3638">Génére</text><text fill="#000000" font-family="sans-serif" font-size="13" lengthAdjust="spacing" textLength="8" x="559.004" y="859.9923">1</text><text fill="#000000" font-family="sans-serif" font-size="13" lengthAdjust="spacing" textLength="7" x="533.3974" y="926.3437">*</text></g><!--link Ser to SM--><g id="link_Ser_SM"><path codeLine="114" d="M792.7572,1103.1749 C791.8972,1071.5579 790.8322,1024.1069 790.8322,982.7969 C790.8322,664.7969 790.8322,664.7969 790.8322,664.7969 C790.8322,623.4029 781.8652,601.7649 812.8322,574.2969 C824.0502,564.3469 865.3252,570.0899 879.8322,566.2969 C909.7612,558.4719 941.4462,546.3149 968.8432,534.4619 " fill="none" id="Ser-SM" style="stroke:#181818;stroke-width:1.0;"/><polygon fill="#000000" points="794.3534,828.6396,799.8361,820.8684,794.2212,819.1299,794.3534,828.6396" style="stroke:#000000;stroke-width:1.0;"/><text fill="#000000" font-family="sans-serif" font-size="13" lengthAdjust="spacing" textLength="31" x="804.8322" y="828.3638">Gère</text><text fill="#000000" font-family="sans-serif" font-size="13" lengthAdjust="spacing" textLength="8" x="783.8215" y="1092.1565">1</text><text fill="#000000" font-family="sans-serif" font-size="13" lengthAdjust="spacing" textLength="7" x="949.0091" y="553.8882">*</text></g><!--link Ch to PR--><g id="link_Ch_PR"><path codeLine="115" d="M332.9952,525.8369 C333.1812,556.7059 333.4832,606.9039 333.6692,637.7679 " fill="none" id="Ch-PR" style="stroke:#181818;stroke-width:1.0;"/><polygon fill="#000000" points="338.8623,587.8632,341.7467,578.8006,335.869,578.836,338.8623,587.8632" style="stroke:#000000;stroke-width:1.0;"/><text fill="#000000" font-family="sans-serif" font-size="13" lengthAdjust="spacing" textLength="47" x="347.8322" y="587.3638">Génére</text><text fill="#000000" font-family="sans-serif" font-size="13" lengthAdjust="spacing" textLength="8" x="324.1079" y="546.1034">1</text><text fill="#000000" font-family="sans-serif" font-size="13" lengthAdjust="spacing" textLength="7" x="325.8221" y="626.5997">*</text></g><!--link Se to Mi--><g id="link_Se_Mi"><path codeLine="117" d="M951.5992,169.3569 C911.0312,191.5369 857.1332,220.9969 809.0322,247.2869 " fill="none" id="Se-Mi" style="stroke:#181818;stroke-width:1.0;"/><polygon fill="#000000" points="892.4449,211.2615,901.7913,209.5019,898.972,204.3443,892.4449,211.2615" style="stroke:#000000;stroke-width:1.0;"/><text fill="#000000" font-family="sans-serif" font-size="13" lengthAdjust="spacing" textLength="54" x="905.8322" y="213.3638">Contient</text><text fill="#000000" font-family="sans-serif" font-size="13" lengthAdjust="spacing" textLength="8" x="935.8254" y="169.6994">1</text><text fill="#000000" font-family="sans-serif" font-size="13" lengthAdjust="spacing" textLength="8" x="814.0053" y="236.0073">1</text></g><!--link Se to Ser--><g id="link_Se_Ser"><path codeLine="118" d="M1078.0622,153.6269 C1145.2322,177.9969 1241.8322,227.5169 1241.8322,310.7969 C1241.8322,310.7969 1241.8322,310.7969 1241.8322,982.7969 C1241.8322,1066.2879 960.8232,1115.3819 843.9192,1132.1929 " fill="none" id="Se-Ser" style="stroke:#181818;stroke-width:1.0;"/><polygon fill="#000000" points="1245.6687,670.726,1250.6318,662.6131,1244.9153,661.2453,1245.6687,670.726" style="stroke:#000000;stroke-width:1.0;"/><text fill="#000000" font-family="sans-serif" font-size="13" lengthAdjust="spacing" textLength="33" x="1255.8322" y="670.3638">Offre</text><text fill="#000000" font-family="sans-serif" font-size="13" lengthAdjust="spacing" textLength="8" x="1085.8357" y="152.1506">1</text><text fill="#000000" font-family="sans-serif" font-size="13" lengthAdjust="spacing" textLength="7" x="851.7898" y="1127.081">*</text></g><!--SRC=[VLN1RXen4BtxAqRq0cauL8ggAegGMggqaKAAGkWboi7P7S3Axdfh6wIeolyaty6FTJpsibwWkM3lp9ldcJTZuvGh42OwtxxIcgyXrwLK5GfXdrHLIoDBo0ffBVmL0DzazhGqUbtbOrreSt4nGxF1jHcDuCFbvUNP-8ju4MAbSWJhqA1sppM6RonhzmmbbezeB549h9mYIszkqLpbFP0MvYeNE_iCCuEExRGLGZvQPsJcOZeS5w8ujO-mLZa4Clwq70-1ngTLK_9oYH1pvgZ8nIOJpuAqB0y264AfAYe89hn46mdXRRUyaEt5bmN0a8NCiAbXvhJ1G3vBoGESREUKRe3sso86q0-sKq1Zj1aaM4zufv-mwXESDrVVJy7vJVWSX9WsXAssFu2JKjRtCUI1ruEinojP55WjeoBZrM7IPFEiEsI_Def2YUJpsG2cyhcaDjxYdpLQTqGLio7qH5QoEMCsEIBC90h3wBuDAnLlLBKSDFOME9QrV5I5SWhj0Vh-OImtA9qDtB7lePsSmKGTxVkEfvDpT6OxeLeb6f_rFO9a0De1eQDyldwaGXFRff_k7qXJC3LuRMKw1amm1BbsgqE2Wh1mqfa2F_qYQS2rMgvSHRhSw3mCvlMDJosgmh5ivXrhKSfC6gqhcCGDsMg3gkGRnIAB5owzOPd64MMY-dqcLMrqsoqHTMgv6cZebCp2tGqDtRMMJ5Oj6mw0xWW4qhJ2-EZSaNQURYNj2dxI3-qxJmcz35PHlh_3sY4A9uTh8fccaYMsEMnaiKuoI29ZV-EROux49bUgSsRtTZ71z9RZ3sGKGVRUfnuCXxnuySvXv8zqeZvm1uC7_DY-LTit6biQjWPmqciQwH7-yWWwEGbFl6DTrjfIE1tuFaBu3XpDuIhtVmOBXT2XeJIyOXxnbQv0n0XgW7T5H5FeBMb4SqgfffNGma_O2EQEdWoBUqv-DV_hd7ISWi19QlDO76L5cUqvq-gF0kWli4E-5xxddNVImb3nL5kxVSt9szLrtjLKU7p2tGYsQxpm8gUQ-x8loFzAJb8lST4Kx8TsXaxjbOp7UlbhiJ3u3m00]--></g></svg>