<?xml version="1.0" encoding="UTF-8" standalone="no"?><svg xmlns="http://www.w3.org/2000/svg" xmlns:xlink="http://www.w3.org/1999/xlink" contentStyleType="text/css" height="1332px" preserveAspectRatio="none" style="width:1426px;height:1332px;background:#FFFFFF;" version="1.1" viewBox="0 0 1426 1332" width="1426px" zoomAndPan="magnify"><defs/><g><text fill="#000000" font-family="sans-serif" font-size="14" font-weight="bold" lengthAdjust="spacing" textLength="156" x="628.3361" y="22.9951">Modèle du domaine</text><!--cluster Serveur--><g id="cluster_Serveur"><path d="M163.1723,43.2969 L225.1723,43.2969 A3.75,3.75 0 0 1 227.6723,45.7969 L234.6723,65.5938 L1332.1723,65.5938 A2.5,2.5 0 0 1 1334.6723,68.0938 L1334.6723,555.7969 A2.5,2.5 0 0 1 1332.1723,558.2969 L163.1723,558.2969 A2.5,2.5 0 0 1 160.6723,555.7969 L160.6723,45.7969 A2.5,2.5 0 0 1 163.1723,43.2969 " fill="none" style="stroke:#000000;stroke-width:1.5;"/><line style="stroke:#000000;stroke-width:1.5;" x1="160.6723" x2="234.6723" y1="65.5938" y2="65.5938"/><text fill="#000000" font-family="sans-serif" font-size="14" font-weight="bold" lengthAdjust="spacing" textLength="61" x="164.6723" y="58.292">Serveur</text></g><!--class Se--><g id="elem_Se"><rect codeLine="20" fill="#FFF4C8" height="72.5938" id="Se" rx="2.5" ry="2.5" style="stroke:#181818;stroke-width:0.5;" width="126" x="1086.6723" y="97.2969"/><ellipse cx="1122.8223" cy="113.2969" fill="#ADD1B2" rx="11" ry="11" style="stroke:#181818;stroke-width:1.0;"/><path d="M1125.166,108.9688 C1124.2285,108.5313 1123.6348,108.3906 1122.7598,108.3906 C1120.1348,108.3906 1118.1348,110.4688 1118.1348,113.1875 L1118.1348,114.3125 C1118.1348,116.8906 1120.2442,118.7813 1123.1348,118.7813 C1124.3535,118.7813 1125.5098,118.4844 1126.2598,117.9375 C1126.8379,117.5313 1127.166,117.0781 1127.166,116.6875 C1127.166,116.2344 1126.7754,115.8438 1126.3067,115.8438 C1126.0879,115.8438 1125.8848,115.9219 1125.6973,116.1094 C1125.2442,116.5938 1125.2442,116.5938 1125.0567,116.6875 C1124.6348,116.9531 1123.9473,117.0781 1123.1817,117.0781 C1121.1348,117.0781 1119.8379,115.9844 1119.8379,114.2813 L1119.8379,113.1875 C1119.8379,111.4063 1121.0879,110.0938 1122.8223,110.0938 C1123.4004,110.0938 1124.0098,110.25 1124.4785,110.5 C1124.9629,110.7813 1125.1348,111 1125.2285,111.4063 C1125.291,111.8125 1125.3223,111.9375 1125.4629,112.0625 C1125.6035,112.2031 1125.8379,112.3125 1126.0567,112.3125 C1126.3223,112.3125 1126.5879,112.1719 1126.7598,111.9531 C1126.8692,111.7969 1126.9004,111.6094 1126.9004,111.1875 L1126.9004,109.7656 C1126.9004,109.3281 1126.8848,109.2031 1126.791,109.0469 C1126.6348,108.7813 1126.3535,108.6406 1126.0567,108.6406 C1125.7598,108.6406 1125.5567,108.7344 1125.3379,109.0469 L1125.166,108.9688 Z " fill="#000000"/><text fill="#000000" font-family="sans-serif" font-size="14" lengthAdjust="spacing" textLength="47" x="1141.5223" y="118.1436">Server</text><line style="stroke:#181818;stroke-width:0.5;" x1="1087.6723" x2="1211.6723" y1="129.2969" y2="129.2969"/><rect fill="none" height="6" style="stroke:#C82930;stroke-width:1.0;" width="6" x="1094.6723" y="139.9453"/><text fill="#000000" font-family="sans-serif" font-size="14" lengthAdjust="spacing" textLength="100" x="1106.6723" y="146.292">minter Minter</text><rect fill="none" height="6" style="stroke:#C82930;stroke-width:1.0;" width="6" x="1094.6723" y="156.2422"/><text fill="#000000" font-family="sans-serif" font-size="14" lengthAdjust="spacing" textLength="98" x="1106.6723" y="162.5889">router Router</text></g><!--class SS--><g id="elem_SS"><rect codeLine="25" fill="#FFF4C8" height="88.8906" id="SS" rx="2.5" ry="2.5" style="stroke:#181818;stroke-width:0.5;" width="319" x="673.1723" y="453.2969"/><ellipse cx="786.4223" cy="469.2969" fill="#B4A7E5" rx="11" ry="11" style="stroke:#181818;stroke-width:1.0;"/><path d="M787.3754,466.0781 L789.0942,466.0781 C789.4848,466.0781 789.6723,466.0469 789.7973,465.9688 C790.0629,465.8125 790.2035,465.5313 790.2035,465.2344 C790.2035,464.9688 790.0942,464.7031 789.8598,464.5313 C789.6879,464.4219 789.5473,464.3906 789.0942,464.3906 L783.9535,464.3906 C783.516,464.3906 783.391,464.4063 783.2348,464.5 C782.9848,464.6563 782.8285,464.9531 782.8285,465.2344 C782.8285,465.5156 782.9692,465.7656 783.1879,465.9375 C783.3442,466.0469 783.5317,466.0781 783.9535,466.0781 L785.6723,466.0781 L785.6723,472.5938 L783.9535,472.5938 C783.516,472.5938 783.391,472.6094 783.2348,472.7188 C782.9848,472.875 782.8285,473.1563 782.8285,473.4531 C782.8285,473.7031 782.9692,473.9688 783.1879,474.125 C783.3442,474.25 783.5473,474.2969 783.9535,474.2969 L789.0942,474.2969 C789.8442,474.2969 790.2035,474.0156 790.2035,473.4531 C790.2035,473.1719 790.0942,472.9219 789.8598,472.75 C789.6879,472.625 789.5473,472.5938 789.0942,472.5938 L787.3754,472.5938 L787.3754,466.0781 Z " fill="#000000"/><text fill="#000000" font-family="sans-serif" font-size="14" font-style="italic" lengthAdjust="spacing" textLength="84" x="806.9223" y="474.1436">SecretStore</text><line style="stroke:#181818;stroke-width:0.5;" x1="674.1723" x2="991.1723" y1="485.2969" y2="485.2969"/><ellipse cx="684.1723" cy="498.9453" fill="#84BE84" rx="3" ry="3" style="stroke:#038048;stroke-width:1.0;"/><text fill="#000000" font-family="sans-serif" font-size="14" lengthAdjust="spacing" textLength="258" x="693.1723" y="502.292">getSecret(uid UserId) (Secret, error)</text><ellipse cx="684.1723" cy="515.2422" fill="#84BE84" rx="3" ry="3" style="stroke:#038048;stroke-width:1.0;"/><text fill="#000000" font-family="sans-serif" font-size="14" lengthAdjust="spacing" textLength="280" x="693.1723" y="518.5889">createSecret(uid UserId) (Secret, error)</text><ellipse cx="684.1723" cy="531.5391" fill="#84BE84" rx="3" ry="3" style="stroke:#038048;stroke-width:1.0;"/><text fill="#000000" font-family="sans-serif" font-size="14" lengthAdjust="spacing" textLength="293" x="693.1723" y="534.8857">storeLSAT(uid UserId, token Token) error</text></g><!--class Ch--><g id="elem_Ch"><rect codeLine="31" fill="#FFF4C8" height="56.2969" id="Ch" rx="2.5" ry="2.5" style="stroke:#181818;stroke-width:0.5;" width="461" x="177.1723" y="469.7969"/><ellipse cx="364.4223" cy="485.7969" fill="#B4A7E5" rx="11" ry="11" style="stroke:#181818;stroke-width:1.0;"/><path d="M365.3754,482.5781 L367.0942,482.5781 C367.4848,482.5781 367.6723,482.5469 367.7973,482.4688 C368.0629,482.3125 368.2035,482.0313 368.2035,481.7344 C368.2035,481.4688 368.0942,481.2031 367.8598,481.0313 C367.6879,480.9219 367.5473,480.8906 367.0942,480.8906 L361.9535,480.8906 C361.516,480.8906 361.391,480.9063 361.2348,481 C360.9848,481.1563 360.8285,481.4531 360.8285,481.7344 C360.8285,482.0156 360.9692,482.2656 361.1879,482.4375 C361.3442,482.5469 361.5317,482.5781 361.9535,482.5781 L363.6723,482.5781 L363.6723,489.0938 L361.9535,489.0938 C361.516,489.0938 361.391,489.1094 361.2348,489.2188 C360.9848,489.375 360.8285,489.6563 360.8285,489.9531 C360.8285,490.2031 360.9692,490.4688 361.1879,490.625 C361.3442,490.75 361.5473,490.7969 361.9535,490.7969 L367.0942,490.7969 C367.8442,490.7969 368.2035,490.5156 368.2035,489.9531 C368.2035,489.6719 368.0942,489.4219 367.8598,489.25 C367.6879,489.125 367.5473,489.0938 367.0942,489.0938 L365.3754,489.0938 L365.3754,482.5781 Z " fill="#000000"/><text fill="#000000" font-family="sans-serif" font-size="14" font-style="italic" lengthAdjust="spacing" textLength="78" x="384.9223" y="490.6436">Challenger</text><line style="stroke:#181818;stroke-width:0.5;" x1="178.1723" x2="637.1723" y1="501.7969" y2="501.7969"/><ellipse cx="188.1723" cy="515.4453" fill="#84BE84" rx="3" ry="3" style="stroke:#038048;stroke-width:1.0;"/><text fill="#000000" font-family="sans-serif" font-size="14" lengthAdjust="spacing" textLength="435" x="197.1723" y="518.792">Challenge(price int64, preimage Preimage) PaymentRequest</text></g><!--class SM--><g id="elem_SM"><rect codeLine="35" fill="#FFF4C8" height="72.5938" id="SM" rx="2.5" ry="2.5" style="stroke:#181818;stroke-width:0.5;" width="291" x="1027.1723" y="461.2969"/><ellipse cx="1110.4223" cy="477.2969" fill="#B4A7E5" rx="11" ry="11" style="stroke:#181818;stroke-width:1.0;"/><path d="M1111.3754,474.0781 L1113.0942,474.0781 C1113.4848,474.0781 1113.6723,474.0469 1113.7973,473.9688 C1114.0629,473.8125 1114.2035,473.5313 1114.2035,473.2344 C1114.2035,472.9688 1114.0942,472.7031 1113.8598,472.5313 C1113.6879,472.4219 1113.5473,472.3906 1113.0942,472.3906 L1107.9535,472.3906 C1107.516,472.3906 1107.391,472.4063 1107.2348,472.5 C1106.9848,472.6563 1106.8285,472.9531 1106.8285,473.2344 C1106.8285,473.5156 1106.9692,473.7656 1107.1879,473.9375 C1107.3442,474.0469 1107.5317,474.0781 1107.9535,474.0781 L1109.6723,474.0781 L1109.6723,480.5938 L1107.9535,480.5938 C1107.516,480.5938 1107.391,480.6094 1107.2348,480.7188 C1106.9848,480.875 1106.8285,481.1563 1106.8285,481.4531 C1106.8285,481.7031 1106.9692,481.9688 1107.1879,482.125 C1107.3442,482.25 1107.5473,482.2969 1107.9535,482.2969 L1113.0942,482.2969 C1113.8442,482.2969 1114.2035,482.0156 1114.2035,481.4531 C1114.2035,481.1719 1114.0942,480.9219 1113.8598,480.75 C1113.6879,480.625 1113.5473,480.5938 1113.0942,480.5938 L1111.3754,480.5938 L1111.3754,474.0781 Z " fill="#000000"/><text fill="#000000" font-family="sans-serif" font-size="14" font-style="italic" lengthAdjust="spacing" textLength="116" x="1130.9223" y="482.1436">ServiceManager</text><line style="stroke:#181818;stroke-width:0.5;" x1="1028.1723" x2="1317.1723" y1="493.2969" y2="493.2969"/><ellipse cx="1038.1723" cy="506.9453" fill="#84BE84" rx="3" ry="3" style="stroke:#038048;stroke-width:1.0;"/><text fill="#000000" font-family="sans-serif" font-size="14" lengthAdjust="spacing" textLength="219" x="1047.1723" y="510.292">Service(service String) Service</text><ellipse cx="1038.1723" cy="523.2422" fill="#84BE84" rx="3" ry="3" style="stroke:#038048;stroke-width:1.0;"/><text fill="#000000" font-family="sans-serif" font-size="14" lengthAdjust="spacing" textLength="265" x="1047.1723" y="526.5889">Capabilities(service String) []Caveats</text></g><!--class Mi--><g id="elem_Mi"><rect codeLine="40" fill="#FFF4C8" height="129.4844" id="Mi" rx="2.5" ry="2.5" style="stroke:#181818;stroke-width:0.5;" width="403" x="631.1723" y="247.2969"/><ellipse cx="804.9223" cy="263.2969" fill="#ADD1B2" rx="11" ry="11" style="stroke:#181818;stroke-width:1.0;"/><path d="M807.266,258.9688 C806.3285,258.5313 805.7348,258.3906 804.8598,258.3906 C802.2348,258.3906 800.2348,260.4688 800.2348,263.1875 L800.2348,264.3125 C800.2348,266.8906 802.3442,268.7813 805.2348,268.7813 C806.4535,268.7813 807.6098,268.4844 808.3598,267.9375 C808.9379,267.5313 809.266,267.0781 809.266,266.6875 C809.266,266.2344 808.8754,265.8438 808.4067,265.8438 C808.1879,265.8438 807.9848,265.9219 807.7973,266.1094 C807.3442,266.5938 807.3442,266.5938 807.1567,266.6875 C806.7348,266.9531 806.0473,267.0781 805.2817,267.0781 C803.2348,267.0781 801.9379,265.9844 801.9379,264.2813 L801.9379,263.1875 C801.9379,261.4063 803.1879,260.0938 804.9223,260.0938 C805.5004,260.0938 806.1098,260.25 806.5785,260.5 C807.0629,260.7813 807.2348,261 807.3285,261.4063 C807.391,261.8125 807.4223,261.9375 807.5629,262.0625 C807.7035,262.2031 807.9379,262.3125 808.1567,262.3125 C808.4223,262.3125 808.6879,262.1719 808.8598,261.9531 C808.9692,261.7969 809.0004,261.6094 809.0004,261.1875 L809.0004,259.7656 C809.0004,259.3281 808.9848,259.2031 808.891,259.0469 C808.7348,258.7813 808.4535,258.6406 808.1567,258.6406 C807.8598,258.6406 807.6567,258.7344 807.4379,259.0469 L807.266,258.9688 Z " fill="#000000"/><text fill="#000000" font-family="sans-serif" font-size="14" lengthAdjust="spacing" textLength="47" x="825.4223" y="268.1436">Minter</text><line style="stroke:#181818;stroke-width:0.5;" x1="632.1723" x2="1033.1723" y1="279.2969" y2="279.2969"/><rect fill="none" height="6" style="stroke:#C82930;stroke-width:1.0;" width="6" x="639.1723" y="289.9453"/><text fill="#000000" font-family="sans-serif" font-size="14" lengthAdjust="spacing" textLength="169" x="651.1723" y="296.292">service ServiceManager</text><rect fill="none" height="6" style="stroke:#C82930;stroke-width:1.0;" width="6" x="639.1723" y="306.2422"/><text fill="#000000" font-family="sans-serif" font-size="14" lengthAdjust="spacing" textLength="156" x="651.1723" y="312.5889">challenger Challenger</text><rect fill="none" height="6" style="stroke:#C82930;stroke-width:1.0;" width="6" x="639.1723" y="322.5391"/><text fill="#000000" font-family="sans-serif" font-size="14" lengthAdjust="spacing" textLength="130" x="651.1723" y="328.8857">store SecretStore</text><line style="stroke:#181818;stroke-width:0.5;" x1="632.1723" x2="1033.1723" y1="336.1875" y2="336.1875"/><ellipse cx="642.1723" cy="349.8359" fill="#84BE84" rx="3" ry="3" style="stroke:#038048;stroke-width:1.0;"/><text fill="#000000" font-family="sans-serif" font-size="14" lengthAdjust="spacing" textLength="377" x="651.1723" y="353.1826">mintLSAT(uid UserId, service Service) (PreLsat, error)</text><rect fill="#F24D5C" height="6" style="stroke:#C82930;stroke-width:1.0;" width="6" x="639.1723" y="363.1328"/><text fill="#000000" font-family="sans-serif" font-size="14" lengthAdjust="spacing" textLength="268" x="651.1723" y="369.4795">authLSAT(uid UserId, lsat *LSAT) error</text></g><!--class Uid--><g id="elem_Uid"><rect codeLine="10" fill="#F1F1F1" height="32" id="Uid" rx="2.5" ry="2.5" style="stroke:#181818;stroke-width:0.5;" width="76" x="65.6723" y="481.7969"/><ellipse cx="80.6723" cy="497.7969" fill="#ADD1B2" rx="11" ry="11" style="stroke:#181818;stroke-width:1.0;"/><path d="M79.4692,498.6719 L80.9223,498.6719 L80.9223,498.7813 C80.9223,499.1875 80.9535,499.3438 81.0317,499.5 C81.1879,499.75 81.4692,499.9063 81.766,499.9063 C82.016,499.9063 82.2817,499.7656 82.4379,499.5469 C82.5629,499.3906 82.5942,499.2344 82.5942,498.7813 L82.5942,496.8594 C82.5942,496.7031 82.5942,496.6563 82.5785,496.5 C82.516,496.0313 82.2035,495.7188 81.7504,495.7188 C81.5004,495.7188 81.2348,495.8594 81.0629,496.0781 C80.9535,496.25 80.9223,496.4063 80.9223,496.8594 L80.9223,496.9844 L79.4692,496.9844 L79.4692,494.5781 L83.4535,494.5781 L83.4535,495.4375 C83.4535,495.8438 83.4848,496.0156 83.5629,496.1719 C83.7348,496.4219 84.016,496.5781 84.2973,496.5781 C84.5629,496.5781 84.8285,496.4375 85.0004,496.2188 C85.1098,496.0469 85.141,495.9063 85.141,495.4375 L85.141,492.8906 L77.516,492.8906 C77.0785,492.8906 76.9535,492.9063 76.7973,493 C76.5473,493.1563 76.391,493.4531 76.391,493.7344 C76.391,494.0156 76.5317,494.2656 76.7504,494.4375 C76.9067,494.5469 77.0942,494.5781 77.516,494.5781 L77.766,494.5781 L77.766,501.0938 L77.516,501.0938 C77.1098,501.0938 76.9535,501.1094 76.7973,501.2188 C76.5473,501.3906 76.391,501.6563 76.391,501.9531 C76.391,502.2188 76.5317,502.4688 76.7504,502.625 C76.891,502.75 77.1254,502.7969 77.516,502.7969 L85.516,502.7969 L85.516,500.2188 C85.516,499.7813 85.4848,499.6406 85.4067,499.4844 C85.2348,499.2344 84.9535,499.0781 84.6723,499.0781 C84.4067,499.0781 84.141,499.1875 83.9692,499.4375 C83.8598,499.5938 83.8285,499.7344 83.8285,500.2188 L83.8285,501.0938 L79.4692,501.0938 L79.4692,498.6719 Z " fill="#000000"/><text fill="#000000" font-family="sans-serif" font-size="14" lengthAdjust="spacing" textLength="44" x="94.6723" y="502.6436">UserId</text></g><!--class Sec--><g id="elem_Sec"><rect codeLine="12" fill="#F1F1F1" height="32" id="Sec" rx="2.5" ry="2.5" style="stroke:#181818;stroke-width:0.5;" width="80" x="605.6723" y="799.7969"/><ellipse cx="620.6723" cy="815.7969" fill="#ADD1B2" rx="11" ry="11" style="stroke:#181818;stroke-width:1.0;"/><path d="M619.4692,816.6719 L620.9223,816.6719 L620.9223,816.7813 C620.9223,817.1875 620.9535,817.3438 621.0317,817.5 C621.1879,817.75 621.4692,817.9063 621.766,817.9063 C622.016,817.9063 622.2817,817.7656 622.4379,817.5469 C622.5629,817.3906 622.5942,817.2344 622.5942,816.7813 L622.5942,814.8594 C622.5942,814.7031 622.5942,814.6563 622.5785,814.5 C622.516,814.0313 622.2035,813.7188 621.7504,813.7188 C621.5004,813.7188 621.2348,813.8594 621.0629,814.0781 C620.9535,814.25 620.9223,814.4063 620.9223,814.8594 L620.9223,814.9844 L619.4692,814.9844 L619.4692,812.5781 L623.4535,812.5781 L623.4535,813.4375 C623.4535,813.8438 623.4848,814.0156 623.5629,814.1719 C623.7348,814.4219 624.016,814.5781 624.2973,814.5781 C624.5629,814.5781 624.8285,814.4375 625.0004,814.2188 C625.1098,814.0469 625.141,813.9063 625.141,813.4375 L625.141,810.8906 L617.516,810.8906 C617.0785,810.8906 616.9535,810.9063 616.7973,811 C616.5473,811.1563 616.391,811.4531 616.391,811.7344 C616.391,812.0156 616.5317,812.2656 616.7504,812.4375 C616.9067,812.5469 617.0942,812.5781 617.516,812.5781 L617.766,812.5781 L617.766,819.0938 L617.516,819.0938 C617.1098,819.0938 616.9535,819.1094 616.7973,819.2188 C616.5473,819.3906 616.391,819.6563 616.391,819.9531 C616.391,820.2188 616.5317,820.4688 616.7504,820.625 C616.891,820.75 617.1254,820.7969 617.516,820.7969 L625.516,820.7969 L625.516,818.2188 C625.516,817.7813 625.4848,817.6406 625.4067,817.4844 C625.2348,817.2344 624.9535,817.0781 624.6723,817.0781 C624.4067,817.0781 624.141,817.1875 623.9692,817.4375 C623.8598,817.5938 623.8285,817.7344 623.8285,818.2188 L623.8285,819.0938 L619.4692,819.0938 L619.4692,816.6719 Z " fill="#000000"/><text fill="#000000" font-family="sans-serif" font-size="14" lengthAdjust="spacing" textLength="48" x="634.6723" y="820.6436">Secret</text></g><!--class U--><g id="elem_U"><rect codeLine="14" fill="#F1F1F1" height="72.5938" id="U" rx="2.5" ry="2.5" style="stroke:#181818;stroke-width:0.5;" width="124" x="583.6723" y="621.2969"/><ellipse cx="625.6723" cy="637.2969" fill="#A9DCDF" rx="11" ry="11" style="stroke:#181818;stroke-width:1.0;"/><path d="M627.7504,639.1094 L628.141,640.0938 L627.7504,640.0938 C627.2973,640.0938 627.1879,640.1094 627.0317,640.2188 C626.7817,640.375 626.6254,640.6563 626.6254,640.9531 C626.6254,641.2188 626.766,641.4688 626.9848,641.625 C627.1254,641.75 627.3285,641.7969 627.7504,641.7969 L630.1098,641.7969 C630.4692,641.7969 630.6879,641.7656 630.8285,641.6719 C631.0785,641.5313 631.2348,641.2344 631.2348,640.9531 C631.2348,640.6719 631.0942,640.4219 630.8754,640.2656 C630.7035,640.125 630.5473,640.0938 630.0785,640.0938 L626.6879,631.8906 L623.016,631.8906 C622.5629,631.8906 622.4379,631.9063 622.2817,632 C622.0317,632.1719 621.8754,632.4531 621.8754,632.7344 C621.8754,633.0156 622.016,633.2656 622.2348,633.4375 C622.4067,633.5469 622.5785,633.5781 623.016,633.5781 L624.0942,633.5781 L621.4535,640.0938 C621.0317,640.0938 620.8754,640.1094 620.7192,640.2188 C620.4692,640.375 620.3129,640.6563 620.3129,640.9531 C620.3129,641.5156 620.6879,641.7969 621.4379,641.7969 L623.7035,641.7969 C624.0629,641.7969 624.2817,641.7656 624.4067,641.6719 C624.6723,641.5313 624.8129,641.2344 624.8129,640.9531 C624.8129,640.6719 624.6879,640.4219 624.4692,640.25 C624.2973,640.125 624.1567,640.0938 623.7035,640.0938 L623.3129,640.0938 L623.7035,639.1094 L627.7504,639.1094 Z M627.0473,637.4063 L624.3754,637.4063 L625.7192,634.1406 L627.0473,637.4063 Z " fill="#000000"/><text fill="#000000" font-family="sans-serif" font-size="14" font-style="italic" lengthAdjust="spacing" textLength="32" x="645.6723" y="642.1436">User</text><line style="stroke:#181818;stroke-width:0.5;" x1="584.6723" x2="706.6723" y1="653.2969" y2="653.2969"/><ellipse cx="594.6723" cy="666.9453" fill="none" rx="3" ry="3" style="stroke:#038048;stroke-width:1.0;"/><text fill="#000000" font-family="sans-serif" font-size="14" lengthAdjust="spacing" textLength="69" x="603.6723" y="670.292">uid UserId</text><ellipse cx="594.6723" cy="683.2422" fill="none" rx="3" ry="3" style="stroke:#038048;stroke-width:1.0;"/><text fill="#000000" font-family="sans-serif" font-size="14" lengthAdjust="spacing" textLength="98" x="603.6723" y="686.5889">secret Secret</text></g><!--class LSAT--><g id="elem_LSAT"><rect codeLine="51" fill="#F1F1F1" height="72.5938" id="LSAT" rx="2.5" ry="2.5" style="stroke:#181818;stroke-width:0.5;" width="156" x="444.6723" y="1253.2969"/><ellipse cx="500.4223" cy="1269.2969" fill="#ADD1B2" rx="11" ry="11" style="stroke:#181818;stroke-width:1.0;"/><path d="M502.766,1264.9688 C501.8285,1264.5313 501.2348,1264.3906 500.3598,1264.3906 C497.7348,1264.3906 495.7348,1266.4688 495.7348,1269.1875 L495.7348,1270.3125 C495.7348,1272.8906 497.8442,1274.7813 500.7348,1274.7813 C501.9535,1274.7813 503.1098,1274.4844 503.8598,1273.9375 C504.4379,1273.5313 504.766,1273.0781 504.766,1272.6875 C504.766,1272.2344 504.3754,1271.8438 503.9067,1271.8438 C503.6879,1271.8438 503.4848,1271.9219 503.2973,1272.1094 C502.8442,1272.5938 502.8442,1272.5938 502.6567,1272.6875 C502.2348,1272.9531 501.5473,1273.0781 500.7817,1273.0781 C498.7348,1273.0781 497.4379,1271.9844 497.4379,1270.2813 L497.4379,1269.1875 C497.4379,1267.4063 498.6879,1266.0938 500.4223,1266.0938 C501.0004,1266.0938 501.6098,1266.25 502.0785,1266.5 C502.5629,1266.7813 502.7348,1267 502.8285,1267.4063 C502.891,1267.8125 502.9223,1267.9375 503.0629,1268.0625 C503.2035,1268.2031 503.4379,1268.3125 503.6567,1268.3125 C503.9223,1268.3125 504.1879,1268.1719 504.3598,1267.9531 C504.4692,1267.7969 504.5004,1267.6094 504.5004,1267.1875 L504.5004,1265.7656 C504.5004,1265.3281 504.4848,1265.2031 504.391,1265.0469 C504.2348,1264.7813 503.9535,1264.6406 503.6567,1264.6406 C503.3598,1264.6406 503.1567,1264.7344 502.9379,1265.0469 L502.766,1264.9688 Z " fill="#000000"/><text fill="#000000" font-family="sans-serif" font-size="14" lengthAdjust="spacing" textLength="36" x="520.9223" y="1274.1436">LSAT</text><line style="stroke:#181818;stroke-width:0.5;" x1="445.6723" x2="599.6723" y1="1285.2969" y2="1285.2969"/><text fill="#000000" font-family="sans-serif" font-size="14" lengthAdjust="spacing" textLength="144" x="450.6723" y="1302.292">macaroon Macaroon</text><text fill="#000000" font-family="sans-serif" font-size="14" lengthAdjust="spacing" textLength="117" x="450.6723" y="1318.5889">preimage String</text></g><!--class pLSAT--><g id="elem_pLSAT"><rect codeLine="56" fill="#F1F1F1" height="72.5938" id="pLSAT" rx="2.5" ry="2.5" style="stroke:#181818;stroke-width:0.5;" width="156" x="344.6723" y="1103.2969"/><ellipse cx="388.4723" cy="1119.2969" fill="#ADD1B2" rx="11" ry="11" style="stroke:#181818;stroke-width:1.0;"/><path d="M390.816,1114.9688 C389.8785,1114.5313 389.2848,1114.3906 388.4098,1114.3906 C385.7848,1114.3906 383.7848,1116.4688 383.7848,1119.1875 L383.7848,1120.3125 C383.7848,1122.8906 385.8942,1124.7813 388.7848,1124.7813 C390.0035,1124.7813 391.1598,1124.4844 391.9098,1123.9375 C392.4879,1123.5313 392.816,1123.0781 392.816,1122.6875 C392.816,1122.2344 392.4254,1121.8438 391.9567,1121.8438 C391.7379,1121.8438 391.5348,1121.9219 391.3473,1122.1094 C390.8942,1122.5938 390.8942,1122.5938 390.7067,1122.6875 C390.2848,1122.9531 389.5973,1123.0781 388.8317,1123.0781 C386.7848,1123.0781 385.4879,1121.9844 385.4879,1120.2813 L385.4879,1119.1875 C385.4879,1117.4063 386.7379,1116.0938 388.4723,1116.0938 C389.0504,1116.0938 389.6598,1116.25 390.1285,1116.5 C390.6129,1116.7813 390.7848,1117 390.8785,1117.4063 C390.941,1117.8125 390.9723,1117.9375 391.1129,1118.0625 C391.2535,1118.2031 391.4879,1118.3125 391.7067,1118.3125 C391.9723,1118.3125 392.2379,1118.1719 392.4098,1117.9531 C392.5192,1117.7969 392.5504,1117.6094 392.5504,1117.1875 L392.5504,1115.7656 C392.5504,1115.3281 392.5348,1115.2031 392.441,1115.0469 C392.2848,1114.7813 392.0035,1114.6406 391.7067,1114.6406 C391.4098,1114.6406 391.2067,1114.7344 390.9879,1115.0469 L390.816,1114.9688 Z " fill="#000000"/><text fill="#000000" font-family="sans-serif" font-size="14" lengthAdjust="spacing" textLength="60" x="408.8723" y="1124.1436">PreLSAT</text><line style="stroke:#181818;stroke-width:0.5;" x1="345.6723" x2="499.6723" y1="1135.2969" y2="1135.2969"/><text fill="#000000" font-family="sans-serif" font-size="14" lengthAdjust="spacing" textLength="144" x="350.6723" y="1152.292">macaroon Macaroon</text><text fill="#000000" font-family="sans-serif" font-size="14" lengthAdjust="spacing" textLength="99" x="350.6723" y="1168.5889">invoice String</text></g><!--class Mac--><g id="elem_Mac"><rect codeLine="62" fill="#F1F1F1" height="88.8906" id="Mac" rx="2.5" ry="2.5" style="stroke:#181818;stroke-width:0.5;" width="131" x="538.1723" y="937.2969"/><ellipse cx="566.6723" cy="953.2969" fill="#ADD1B2" rx="11" ry="11" style="stroke:#181818;stroke-width:1.0;"/><path d="M569.016,948.9688 C568.0785,948.5313 567.4848,948.3906 566.6098,948.3906 C563.9848,948.3906 561.9848,950.4688 561.9848,953.1875 L561.9848,954.3125 C561.9848,956.8906 564.0942,958.7813 566.9848,958.7813 C568.2035,958.7813 569.3598,958.4844 570.1098,957.9375 C570.6879,957.5313 571.016,957.0781 571.016,956.6875 C571.016,956.2344 570.6254,955.8438 570.1567,955.8438 C569.9379,955.8438 569.7348,955.9219 569.5473,956.1094 C569.0942,956.5938 569.0942,956.5938 568.9067,956.6875 C568.4848,956.9531 567.7973,957.0781 567.0317,957.0781 C564.9848,957.0781 563.6879,955.9844 563.6879,954.2813 L563.6879,953.1875 C563.6879,951.4063 564.9379,950.0938 566.6723,950.0938 C567.2504,950.0938 567.8598,950.25 568.3285,950.5 C568.8129,950.7813 568.9848,951 569.0785,951.4063 C569.141,951.8125 569.1723,951.9375 569.3129,952.0625 C569.4535,952.2031 569.6879,952.3125 569.9067,952.3125 C570.1723,952.3125 570.4379,952.1719 570.6098,951.9531 C570.7192,951.7969 570.7504,951.6094 570.7504,951.1875 L570.7504,949.7656 C570.7504,949.3281 570.7348,949.2031 570.641,949.0469 C570.4848,948.7813 570.2035,948.6406 569.9067,948.6406 C569.6098,948.6406 569.4067,948.7344 569.1879,949.0469 L569.016,948.9688 Z " fill="#000000"/><text fill="#000000" font-family="sans-serif" font-size="14" lengthAdjust="spacing" textLength="69" x="583.6723" y="958.1436">Macaroon</text><line style="stroke:#181818;stroke-width:0.5;" x1="539.1723" x2="668.1723" y1="969.2969" y2="969.2969"/><text fill="#000000" font-family="sans-serif" font-size="14" lengthAdjust="spacing" textLength="119" x="544.1723" y="986.292">caveats []Caveat</text><text fill="#000000" font-family="sans-serif" font-size="14" lengthAdjust="spacing" textLength="68" x="544.1723" y="1002.5889">sig String</text><text fill="#000000" font-family="sans-serif" font-size="14" lengthAdjust="spacing" textLength="99" x="544.1723" y="1018.8857">service String</text></g><!--class MacId--><g id="elem_MacId"><rect codeLine="68" fill="#F1F1F1" height="88.8906" id="MacId" rx="2.5" ry="2.5" style="stroke:#181818;stroke-width:0.5;" width="122" x="720.6723" y="771.2969"/><ellipse cx="739.2723" cy="787.2969" fill="#ADD1B2" rx="11" ry="11" style="stroke:#181818;stroke-width:1.0;"/><path d="M741.616,782.9688 C740.6785,782.5313 740.0848,782.3906 739.2098,782.3906 C736.5848,782.3906 734.5848,784.4688 734.5848,787.1875 L734.5848,788.3125 C734.5848,790.8906 736.6942,792.7813 739.5848,792.7813 C740.8035,792.7813 741.9598,792.4844 742.7098,791.9375 C743.2879,791.5313 743.616,791.0781 743.616,790.6875 C743.616,790.2344 743.2254,789.8438 742.7567,789.8438 C742.5379,789.8438 742.3348,789.9219 742.1473,790.1094 C741.6942,790.5938 741.6942,790.5938 741.5067,790.6875 C741.0848,790.9531 740.3973,791.0781 739.6317,791.0781 C737.5848,791.0781 736.2879,789.9844 736.2879,788.2813 L736.2879,787.1875 C736.2879,785.4063 737.5379,784.0938 739.2723,784.0938 C739.8504,784.0938 740.4598,784.25 740.9285,784.5 C741.4129,784.7813 741.5848,785 741.6785,785.4063 C741.741,785.8125 741.7723,785.9375 741.9129,786.0625 C742.0535,786.2031 742.2879,786.3125 742.5067,786.3125 C742.7723,786.3125 743.0379,786.1719 743.2098,785.9531 C743.3192,785.7969 743.3504,785.6094 743.3504,785.1875 L743.3504,783.7656 C743.3504,783.3281 743.3348,783.2031 743.241,783.0469 C743.0848,782.7813 742.8035,782.6406 742.5067,782.6406 C742.2098,782.6406 742.0067,782.7344 741.7879,783.0469 L741.616,782.9688 Z " fill="#000000"/><text fill="#000000" font-family="sans-serif" font-size="14" lengthAdjust="spacing" textLength="82" x="754.0723" y="792.1436">MacaroonId</text><line style="stroke:#181818;stroke-width:0.5;" x1="721.6723" x2="841.6723" y1="803.2969" y2="803.2969"/><text fill="#000000" font-family="sans-serif" font-size="14" lengthAdjust="spacing" textLength="71" x="726.6723" y="820.292">hash Hash</text><text fill="#000000" font-family="sans-serif" font-size="14" lengthAdjust="spacing" textLength="69" x="726.6723" y="836.5889">uid UserId</text><text fill="#000000" font-family="sans-serif" font-size="14" lengthAdjust="spacing" textLength="110" x="726.6723" y="852.8857">version Version</text></g><!--class Ca--><g id="elem_Ca"><rect codeLine="74" fill="#F1F1F1" height="72.5938" id="Ca" rx="2.5" ry="2.5" style="stroke:#181818;stroke-width:0.5;" width="100" x="470.6723" y="779.2969"/><ellipse cx="493.7723" cy="795.2969" fill="#ADD1B2" rx="11" ry="11" style="stroke:#181818;stroke-width:1.0;"/><path d="M496.116,790.9688 C495.1785,790.5313 494.5848,790.3906 493.7098,790.3906 C491.0848,790.3906 489.0848,792.4688 489.0848,795.1875 L489.0848,796.3125 C489.0848,798.8906 491.1942,800.7813 494.0848,800.7813 C495.3035,800.7813 496.4598,800.4844 497.2098,799.9375 C497.7879,799.5313 498.116,799.0781 498.116,798.6875 C498.116,798.2344 497.7254,797.8438 497.2567,797.8438 C497.0379,797.8438 496.8348,797.9219 496.6473,798.1094 C496.1942,798.5938 496.1942,798.5938 496.0067,798.6875 C495.5848,798.9531 494.8973,799.0781 494.1317,799.0781 C492.0848,799.0781 490.7879,797.9844 490.7879,796.2813 L490.7879,795.1875 C490.7879,793.4063 492.0379,792.0938 493.7723,792.0938 C494.3504,792.0938 494.9598,792.25 495.4285,792.5 C495.9129,792.7813 496.0848,793 496.1785,793.4063 C496.241,793.8125 496.2723,793.9375 496.4129,794.0625 C496.5535,794.2031 496.7879,794.3125 497.0067,794.3125 C497.2723,794.3125 497.5379,794.1719 497.7098,793.9531 C497.8192,793.7969 497.8504,793.6094 497.8504,793.1875 L497.8504,791.7656 C497.8504,791.3281 497.8348,791.2031 497.741,791.0469 C497.5848,790.7813 497.3035,790.6406 497.0067,790.6406 C496.7098,790.6406 496.5067,790.7344 496.2879,791.0469 L496.116,790.9688 Z " fill="#000000"/><text fill="#000000" font-family="sans-serif" font-size="14" lengthAdjust="spacing" textLength="50" x="509.5723" y="800.1436">Caveat</text><line style="stroke:#181818;stroke-width:0.5;" x1="471.6723" x2="569.6723" y1="811.2969" y2="811.2969"/><text fill="#000000" font-family="sans-serif" font-size="14" lengthAdjust="spacing" textLength="88" x="476.6723" y="828.292">name String</text><text fill="#000000" font-family="sans-serif" font-size="14" lengthAdjust="spacing" textLength="85" x="476.6723" y="844.5889">value String</text></g><!--class Ser--><g id="elem_Ser"><rect codeLine="80" fill="#F1F1F1" height="72.5938" id="Ser" rx="2.5" ry="2.5" style="stroke:#181818;stroke-width:0.5;" width="100" x="1122.6723" y="1103.2969"/><ellipse cx="1144.4223" cy="1119.2969" fill="#ADD1B2" rx="11" ry="11" style="stroke:#181818;stroke-width:1.0;"/><path d="M1146.766,1114.9688 C1145.8285,1114.5313 1145.2348,1114.3906 1144.3598,1114.3906 C1141.7348,1114.3906 1139.7348,1116.4688 1139.7348,1119.1875 L1139.7348,1120.3125 C1139.7348,1122.8906 1141.8442,1124.7813 1144.7348,1124.7813 C1145.9535,1124.7813 1147.1098,1124.4844 1147.8598,1123.9375 C1148.4379,1123.5313 1148.766,1123.0781 1148.766,1122.6875 C1148.766,1122.2344 1148.3754,1121.8438 1147.9067,1121.8438 C1147.6879,1121.8438 1147.4848,1121.9219 1147.2973,1122.1094 C1146.8442,1122.5938 1146.8442,1122.5938 1146.6567,1122.6875 C1146.2348,1122.9531 1145.5473,1123.0781 1144.7817,1123.0781 C1142.7348,1123.0781 1141.4379,1121.9844 1141.4379,1120.2813 L1141.4379,1119.1875 C1141.4379,1117.4063 1142.6879,1116.0938 1144.4223,1116.0938 C1145.0004,1116.0938 1145.6098,1116.25 1146.0785,1116.5 C1146.5629,1116.7813 1146.7348,1117 1146.8285,1117.4063 C1146.891,1117.8125 1146.9223,1117.9375 1147.0629,1118.0625 C1147.2035,1118.2031 1147.4379,1118.3125 1147.6567,1118.3125 C1147.9223,1118.3125 1148.1879,1118.1719 1148.3598,1117.9531 C1148.4692,1117.7969 1148.5004,1117.6094 1148.5004,1117.1875 L1148.5004,1115.7656 C1148.5004,1115.3281 1148.4848,1115.2031 1148.391,1115.0469 C1148.2348,1114.7813 1147.9535,1114.6406 1147.6567,1114.6406 C1147.3598,1114.6406 1147.1567,1114.7344 1146.9379,1115.0469 L1146.766,1114.9688 Z " fill="#000000"/><text fill="#000000" font-family="sans-serif" font-size="14" lengthAdjust="spacing" textLength="53" x="1159.9223" y="1124.1436">Service</text><line style="stroke:#181818;stroke-width:0.5;" x1="1123.6723" x2="1221.6723" y1="1135.2969" y2="1135.2969"/><text fill="#000000" font-family="sans-serif" font-size="14" lengthAdjust="spacing" textLength="88" x="1128.6723" y="1152.292">name String</text><text fill="#000000" font-family="sans-serif" font-size="14" lengthAdjust="spacing" textLength="78" x="1128.6723" y="1168.5889">price int64</text></g><!--class PR--><g id="elem_PR"><rect codeLine="85" fill="#F1F1F1" height="56.2969" id="PR" rx="2.5" ry="2.5" style="stroke:#181818;stroke-width:0.5;" width="155" x="330.1723" y="629.7969"/><ellipse cx="345.1723" cy="645.7969" fill="#ADD1B2" rx="11" ry="11" style="stroke:#181818;stroke-width:1.0;"/><path d="M347.516,641.4688 C346.5785,641.0313 345.9848,640.8906 345.1098,640.8906 C342.4848,640.8906 340.4848,642.9688 340.4848,645.6875 L340.4848,646.8125 C340.4848,649.3906 342.5942,651.2813 345.4848,651.2813 C346.7035,651.2813 347.8598,650.9844 348.6098,650.4375 C349.1879,650.0313 349.516,649.5781 349.516,649.1875 C349.516,648.7344 349.1254,648.3438 348.6567,648.3438 C348.4379,648.3438 348.2348,648.4219 348.0473,648.6094 C347.5942,649.0938 347.5942,649.0938 347.4067,649.1875 C346.9848,649.4531 346.2973,649.5781 345.5317,649.5781 C343.4848,649.5781 342.1879,648.4844 342.1879,646.7813 L342.1879,645.6875 C342.1879,643.9063 343.4379,642.5938 345.1723,642.5938 C345.7504,642.5938 346.3598,642.75 346.8285,643 C347.3129,643.2813 347.4848,643.5 347.5785,643.9063 C347.641,644.3125 347.6723,644.4375 347.8129,644.5625 C347.9535,644.7031 348.1879,644.8125 348.4067,644.8125 C348.6723,644.8125 348.9379,644.6719 349.1098,644.4531 C349.2192,644.2969 349.2504,644.1094 349.2504,643.6875 L349.2504,642.2656 C349.2504,641.8281 349.2348,641.7031 349.141,641.5469 C348.9848,641.2813 348.7035,641.1406 348.4067,641.1406 C348.1098,641.1406 347.9067,641.2344 347.6879,641.5469 L347.516,641.4688 Z " fill="#000000"/><text fill="#000000" font-family="sans-serif" font-size="14" lengthAdjust="spacing" textLength="123" x="359.1723" y="650.6436">PaymentRequest</text><line style="stroke:#181818;stroke-width:0.5;" x1="331.1723" x2="484.1723" y1="661.7969" y2="661.7969"/><text fill="#000000" font-family="sans-serif" font-size="14" lengthAdjust="spacing" textLength="99" x="336.1723" y="678.792">invoice String</text></g><!--link LSAT to Mac--><g id="link_LSAT_Mac"><path codeLine="89" d="M535.9853,1252.9741 C539.3433,1243.3959 542.8053,1233.0062 545.6723,1223.2969 C565.7453,1155.3309 584.0373,1075.0689 594.5053,1026.5949 " fill="none" id="LSAT-Mac" style="stroke:#181818;stroke-width:1.0;"/><polygon fill="#000000" points="582.9237,1135.0224,577.8145,1143.0441,583.5053,1144.5152,582.9237,1135.0224" style="stroke:#000000;stroke-width:1.0;"/><text fill="#000000" font-family="sans-serif" font-size="13" lengthAdjust="spacing" textLength="26" x="590.6723" y="1144.3638">Sert</text><text fill="#000000" font-family="sans-serif" font-size="13" lengthAdjust="spacing" textLength="8" x="529.6442" y="1242.194">1</text><text fill="#000000" font-family="sans-serif" font-size="13" lengthAdjust="spacing" textLength="8" x="584.5714" y="1046.3608">1</text></g><!--link pLSAT to LSAT--><g id="link_pLSAT_LSAT"><path codeLine="90" d="M446.8793,1176.6239 C462.5443,1199.8069 482.8603,1229.8748 498.5153,1253.044 " fill="none" id="pLSAT-LSAT" style="stroke:#181818;stroke-width:1.0;"/><polygon fill="#000000" points="483.4716,1219.0062,480.8427,1209.8662,475.9724,1213.157,483.4716,1219.0062" style="stroke:#000000;stroke-width:1.0;"/><text fill="#000000" font-family="sans-serif" font-size="13" lengthAdjust="spacing" textLength="47" x="489.6723" y="1219.3638">Génére</text><text fill="#000000" font-family="sans-serif" font-size="13" lengthAdjust="spacing" textLength="8" x="442.2261" y="1196.0771">1</text><text fill="#000000" font-family="sans-serif" font-size="13" lengthAdjust="spacing" textLength="8" x="485.4998" y="1242.2763">1</text></g><!--link Mi to pLSAT--><g id="link_Mi_pLSAT"><path codeLine="91" d="M631.0273,318.4269 C388.2333,330.8179 12.6723,370.4099 12.6723,496.7969 C12.6723,496.7969 12.6723,496.7969 12.6723,982.7969 C12.6723,1053.0539 225.6313,1103.0699 344.5893,1125.5289 " fill="none" id="Mi-pLSAT" style="stroke:#181818;stroke-width:1.0;"/><polygon fill="#000000" points="16,737.5753,21.7949,730.0341,16.2555,728.0682,16,737.5753" style="stroke:#000000;stroke-width:1.0;"/><text fill="#000000" font-family="sans-serif" font-size="13" lengthAdjust="spacing" textLength="26" x="26.6723" y="737.3638">Mint</text><text fill="#000000" font-family="sans-serif" font-size="13" lengthAdjust="spacing" textLength="8" x="614.9943" y="315.4529">1</text><text fill="#000000" font-family="sans-serif" font-size="13" lengthAdjust="spacing" textLength="7" x="329.5585" y="1120.4795">*</text></g><!--link PR to pLSAT--><g id="link_PR_pLSAT"><path codeLine="92" d="M408.5213,685.9789 C411.0753,767.6879 418.6823,1011.1059 421.5563,1103.0739 " fill="none" id="PR-pLSAT" style="stroke:#181818;stroke-width:1.0;"/><polygon fill="#000000" points="420.8285,903.8608,423.4834,894.7284,417.6084,894.912,420.8285,903.8608" style="stroke:#000000;stroke-width:1.0;"/><text fill="#000000" font-family="sans-serif" font-size="13" lengthAdjust="spacing" textLength="61" x="429.6723" y="903.3638">Compose</text><text fill="#000000" font-family="sans-serif" font-size="13" lengthAdjust="spacing" textLength="8" x="399.7926" y="706.2783">1</text><text fill="#000000" font-family="sans-serif" font-size="13" lengthAdjust="spacing" textLength="8" x="412.645" y="1092.3116">1</text></g><!--link Mac to pLSAT--><g id="link_Mac_pLSAT"><path codeLine="93" d="M537.8673,1016.3479 C518.9563,1027.6349 499.0393,1041.2339 482.6723,1056.2969 C467.9473,1069.8489 454.5313,1087.5119 444.1373,1103.0149 " fill="none" id="Mac-pLSAT" style="stroke:#181818;stroke-width:1.0;"/><polygon fill="#000000" points="484.0011,1068.2578,492.6376,1064.2749,488.6471,1059.9592,484.0011,1068.2578" style="stroke:#000000;stroke-width:1.0;"/><text fill="#000000" font-family="sans-serif" font-size="13" lengthAdjust="spacing" textLength="61" x="496.6723" y="1069.3638">Compose</text><text fill="#000000" font-family="sans-serif" font-size="13" lengthAdjust="spacing" textLength="8" x="522.2324" y="1016.3867">1</text><text fill="#000000" font-family="sans-serif" font-size="13" lengthAdjust="spacing" textLength="8" x="439.2482" y="1092.242">1</text></g><!--link MacId to Mac--><g id="link_MacId_Mac"><path codeLine="95" d="M742.5783,860.3319 C728.2573,875.6279 711.6423,892.6419 695.6723,907.2969 C684.6763,917.3869 672.4713,927.6999 660.6393,937.2869 " fill="none" id="MacId-Mac" style="stroke:#181818;stroke-width:1.0;"/><polygon fill="#000000" points="714.0277,902.2862,722.6328,898.2363,718.6089,893.9518,714.0277,902.2862" style="stroke:#000000;stroke-width:1.0;"/><text fill="#000000" font-family="sans-serif" font-size="13" lengthAdjust="spacing" textLength="51" x="726.6723" y="903.3638">Identifie</text><text fill="#000000" font-family="sans-serif" font-size="13" lengthAdjust="spacing" textLength="8" x="727.9795" y="880.3852">1</text><text fill="#000000" font-family="sans-serif" font-size="13" lengthAdjust="spacing" textLength="8" x="661.0809" y="926.084">1</text></g><!--link Mac to Ser--><g id="link_Mac_Ser"><path codeLine="96" d="M669.2213,1000.7679 C784.0653,1032.2549 1019.2223,1096.7279 1122.3323,1124.9969 " fill="none" id="Mac-Ser" style="stroke:#181818;stroke-width:1.0;"/><polygon fill="#000000" points="931.4943,1066.1853,923.5483,1060.9594,921.9941,1066.628,931.4943,1066.1853" style="stroke:#000000;stroke-width:1.0;"/><text fill="#000000" font-family="sans-serif" font-size="13" lengthAdjust="spacing" textLength="70" x="935.6723" y="1069.3638">Authentifie</text><text fill="#000000" font-family="sans-serif" font-size="13" lengthAdjust="spacing" textLength="8" x="677.2629" y="999.1751">1</text><text fill="#000000" font-family="sans-serif" font-size="13" lengthAdjust="spacing" textLength="7" x="1107.761" y="1118.9657">*</text></g><!--link Ca to Mac--><g id="link_Ca_Mac"><path codeLine="97" d="M524.9693,852.5039 C528.0203,869.7229 533.1483,890.2799 541.6723,907.2969 C546.8313,917.5959 553.7133,927.6829 561.0143,936.9239 " fill="none" id="Ca-Mac" style="stroke:#181818;stroke-width:1.0;"/><polygon fill="#000000" points="548.6357,903.4617,547.7867,893.9891,542.381,896.2972,548.6357,903.4617" style="stroke:#000000;stroke-width:1.0;"/><text fill="#000000" font-family="sans-serif" font-size="13" lengthAdjust="spacing" textLength="58" x="555.6723" y="903.3638">Restreint</text><text fill="#000000" font-family="sans-serif" font-size="13" lengthAdjust="spacing" textLength="7" x="518.1013" y="871.9372">*</text><text fill="#000000" font-family="sans-serif" font-size="13" lengthAdjust="spacing" textLength="7" x="547.2348" y="926.3163">*</text></g><!--link Mi to Ch--><g id="link_Mi_Ch"><path codeLine="99" d="M631.0973,335.3969 C573.3773,349.1239 513.0533,371.1129 464.6723,406.2969 C442.8973,422.1329 427.5023,449.0629 418.2463,469.4399 " fill="none" id="Mi-Ch" style="stroke:#181818;stroke-width:1.0;"/><polygon fill="#000000" points="465.4414,417.5277,474.6613,415.1946,471.5291,410.2208,465.4414,417.5277" style="stroke:#000000;stroke-width:1.0;"/><text fill="#000000" font-family="sans-serif" font-size="13" lengthAdjust="spacing" textLength="38" x="478.6723" y="419.3638">Utilise</text><text fill="#000000" font-family="sans-serif" font-size="13" lengthAdjust="spacing" textLength="8" x="615.067" y="333.0858">1</text><text fill="#000000" font-family="sans-serif" font-size="13" lengthAdjust="spacing" textLength="8" x="411.6844" y="458.6451">1</text></g><!--link Mi to SS--><g id="link_Mi_SS"><path codeLine="100" d="M832.6723,376.3769 C832.6723,401.7229 832.6723,430.2599 832.6723,453.1899 " fill="none" id="Mi-SS" style="stroke:#181818;stroke-width:1.0;"/><polygon fill="#000000" points="837.6723,419.8633,840.6112,410.8182,834.7334,410.8182,837.6723,419.8633" style="stroke:#000000;stroke-width:1.0;"/><text fill="#000000" font-family="sans-serif" font-size="13" lengthAdjust="spacing" textLength="38" x="846.6723" y="419.3638">Utilise</text><text fill="#000000" font-family="sans-serif" font-size="13" lengthAdjust="spacing" textLength="8" x="824.2098" y="396.7577">1</text><text fill="#000000" font-family="sans-serif" font-size="13" lengthAdjust="spacing" textLength="8" x="824.0598" y="442.2964">1</text></g><!--link Mi to SM--><g id="link_Mi_SM"><path codeLine="101" d="M950.1573,376.3769 C1002.5583,404.7349 1062.3423,437.0879 1106.7323,461.1129 " fill="none" id="Mi-SM" style="stroke:#181818;stroke-width:1.0;"/><polygon fill="#000000" points="1042.0696,417.2431,1035.5136,410.3533,1032.716,415.5227,1042.0696,417.2431" style="stroke:#000000;stroke-width:1.0;"/><text fill="#000000" font-family="sans-serif" font-size="13" lengthAdjust="spacing" textLength="38" x="1046.6723" y="419.3638">Utilise</text><text fill="#000000" font-family="sans-serif" font-size="13" lengthAdjust="spacing" textLength="8" x="955.279" y="396.7577">1</text><text fill="#000000" font-family="sans-serif" font-size="13" lengthAdjust="spacing" textLength="8" x="1086.2742" y="450.3575">1</text></g><!--link SS to U--><g id="link_SS_U"><path codeLine="103" d="M781.0783,542.3889 C751.7813,567.1429 715.5633,597.7449 687.9583,621.0689 " fill="none" id="SS-U" style="stroke:#181818;stroke-width:1.0;"/><polygon fill="#000000" points="739.8531,586.0903,748.6589,582.4975,744.8653,578.0077,739.8531,586.0903" style="stroke:#000000;stroke-width:1.0;"/><text fill="#000000" font-family="sans-serif" font-size="13" lengthAdjust="spacing" textLength="54" x="752.6723" y="587.3638">Contient</text><text fill="#000000" font-family="sans-serif" font-size="13" lengthAdjust="spacing" textLength="8" x="764.9129" y="562.1246">1</text><text fill="#000000" font-family="sans-serif" font-size="13" lengthAdjust="spacing" textLength="7" x="687.867" y="610.3057">*</text></g><!--link SS to Uid--><g id="link_SS_Uid"><path codeLine="104" d="M721.5973,453.2759 C677.9503,438.0119 626.9403,422.8739 579.1723,415.2969 C486.9433,400.6669 247.2813,418.3799 160.6723,453.2969 C145.0693,459.5869 130.1833,471.4849 119.5393,481.3959 " fill="none" id="SS-Uid" style="stroke:#181818;stroke-width:1.0;"/><polygon fill="#000000" points="526.1777,415.0966,535.3501,417.6103,535.0759,411.7388,526.1777,415.0966" style="stroke:#000000;stroke-width:1.0;"/><text fill="#000000" font-family="sans-serif" font-size="13" lengthAdjust="spacing" textLength="38" x="540.1723" y="419.3638">Utilise</text><text fill="#000000" font-family="sans-serif" font-size="13" lengthAdjust="spacing" textLength="8" x="695.2572" y="442.0712">1</text><text fill="#000000" font-family="sans-serif" font-size="13" lengthAdjust="spacing" textLength="7" x="116.4811" y="470.8655">*</text></g><!--link U to Sec--><g id="link_U_Sec"><path codeLine="105" d="M645.6723,694.5869 C645.6723,727.6899 645.6723,775.3079 645.6723,799.4749 " fill="none" id="U-Sec" style="stroke:#181818;stroke-width:1.0;"/><polygon fill="#000000" points="650.6723,737.8633,653.6112,728.8182,647.7334,728.8182,650.6723,737.8633" style="stroke:#000000;stroke-width:1.0;"/><text fill="#000000" font-family="sans-serif" font-size="13" lengthAdjust="spacing" textLength="54" x="659.6723" y="737.3638">Possède</text><text fill="#000000" font-family="sans-serif" font-size="13" lengthAdjust="spacing" textLength="8" x="637.0098" y="714.0339">1</text><text fill="#000000" font-family="sans-serif" font-size="13" lengthAdjust="spacing" textLength="8" x="636.3473" y="788.6727">1</text></g><!--link Uid to U--><g id="link_Uid_U"><path codeLine="106" d="M111.9815,513.8879 C121.5403,529.6979 138.7743,553.9189 160.6723,566.2969 C294.6943,642.0569 351.8313,590.5009 502.6723,621.2969 C529.3643,626.7459 558.5963,633.8059 583.6363,640.1919 " fill="none" id="Uid-U" style="stroke:#181818;stroke-width:1.0;"/><polygon fill="#000000" points="223.5021,584.1567,215.5251,578.978,214.0047,584.6558,223.5021,584.1567" style="stroke:#000000;stroke-width:1.0;"/><text fill="#000000" font-family="sans-serif" font-size="13" lengthAdjust="spacing" textLength="51" x="227.6723" y="587.3638">Identifie</text><text fill="#000000" font-family="sans-serif" font-size="13" lengthAdjust="spacing" textLength="8" x="105.4089" y="533.7913">1</text><text fill="#000000" font-family="sans-serif" font-size="13" lengthAdjust="spacing" textLength="8" x="567.5882" y="634.2319">1</text></g><!--link Sec to Mac--><g id="link_Sec_Mac"><path codeLine="107" d="M641.7963,831.9319 C635.7243,855.6409 623.7423,902.4279 614.8243,937.2519 " fill="none" id="Sec-Mac" style="stroke:#181818;stroke-width:1.0;"/><polygon fill="#000000" points="629.4318,903.707,634.5229,895.6738,628.8288,894.2155,629.4318,903.707" style="stroke:#000000;stroke-width:1.0;"/><text fill="#000000" font-family="sans-serif" font-size="13" lengthAdjust="spacing" textLength="47" x="639.6723" y="903.3638">Génére</text><text fill="#000000" font-family="sans-serif" font-size="13" lengthAdjust="spacing" textLength="8" x="631.1874" y="851.8499">1</text><text fill="#000000" font-family="sans-serif" font-size="13" lengthAdjust="spacing" textLength="7" x="608.996" y="926.3679">*</text></g><!--link Ser to SM--><g id="link_Ser_SM"><path codeLine="109" d="M1172.6723,1103.1709 C1172.6723,1071.5519 1172.6723,1024.0989 1172.6723,982.7969 C1172.6723,656.7969 1172.6723,656.7969 1172.6723,656.7969 C1172.6723,614.8279 1172.6723,566.5889 1172.6723,534.5649 " fill="none" id="Ser-SM" style="stroke:#181818;stroke-width:1.0;"/><polygon fill="#000000" points="1177.6723,820.8633,1180.6112,811.8182,1174.7334,811.8182,1177.6723,820.8633" style="stroke:#000000;stroke-width:1.0;"/><text fill="#000000" font-family="sans-serif" font-size="13" lengthAdjust="spacing" textLength="31" x="1186.6723" y="820.3638">Gère</text><text fill="#000000" font-family="sans-serif" font-size="13" lengthAdjust="spacing" textLength="8" x="1163.9348" y="1092.1517">1</text><text fill="#000000" font-family="sans-serif" font-size="13" lengthAdjust="spacing" textLength="7" x="1165.0926" y="554.0083">*</text></g><!--link Ch to PR--><g id="link_Ch_PR"><path codeLine="110" d="M407.6723,525.9579 C407.6723,554.9859 407.6723,600.7329 407.6723,629.7259 " fill="none" id="Ch-PR" style="stroke:#181818;stroke-width:1.0;"/><polygon fill="#000000" points="412.6723,587.8633,415.6112,578.8182,409.7334,578.8182,412.6723,587.8633" style="stroke:#000000;stroke-width:1.0;"/><text fill="#000000" font-family="sans-serif" font-size="13" lengthAdjust="spacing" textLength="47" x="421.6723" y="587.3638">Génére</text><text fill="#000000" font-family="sans-serif" font-size="13" lengthAdjust="spacing" textLength="8" x="398.7473" y="546.2524">1</text><text fill="#000000" font-family="sans-serif" font-size="13" lengthAdjust="spacing" textLength="7" x="399.8629" y="618.548">*</text></g><!--link Se to Mi--><g id="link_Se_Mi"><path codeLine="112" d="M1086.6623,169.7769 C1046.8523,191.8869 994.2213,221.1069 947.1993,247.2069 " fill="none" id="Se-Mi" style="stroke:#181818;stroke-width:1.0;"/><polygon fill="#000000" points="1029.3008,211.2903,1038.6354,209.4692,1035.7823,204.3303,1029.3008,211.2903" style="stroke:#000000;stroke-width:1.0;"/><text fill="#000000" font-family="sans-serif" font-size="13" lengthAdjust="spacing" textLength="54" x="1042.6723" y="213.3638">Contient</text><text fill="#000000" font-family="sans-serif" font-size="13" lengthAdjust="spacing" textLength="8" x="1070.4954" y="170.3476">1</text><text fill="#000000" font-family="sans-serif" font-size="13" lengthAdjust="spacing" textLength="8" x="951.2882" y="236.3697">1</text></g><!--link Se to Ser--><g id="link_Se_Ser"><path codeLine="113" d="M1212.6923,154.4869 C1278.3323,179.3869 1371.6723,229.1469 1371.6723,310.7969 C1371.6723,310.7969 1371.6723,310.7969 1371.6723,982.7969 C1371.6723,1058.3029 1281.8423,1102.7689 1222.8923,1123.8199 " fill="none" id="Se-Ser" style="stroke:#181818;stroke-width:1.0;"/><polygon fill="#000000" points="1376.7249,662.863,1379.5685,653.7875,1373.691,653.8493,1376.7249,662.863" style="stroke:#000000;stroke-width:1.0;"/><text fill="#000000" font-family="sans-serif" font-size="13" lengthAdjust="spacing" textLength="33" x="1385.6723" y="662.3638">Offre</text><text fill="#000000" font-family="sans-serif" font-size="13" lengthAdjust="spacing" textLength="8" x="1220.8604" y="153.1941">1</text><text fill="#000000" font-family="sans-serif" font-size="13" lengthAdjust="spacing" textLength="7" x="1230.7824" y="1117.4782">*</text></g><!--SRC=[bLNDQXin4BxhAGRtOhVneH1A2S6G6j86ijJOSI-b1sLtR8lihhQIR0WbxvCyHrwiev7MgxNTG2_Mxlnyyyqtix9JhaJ8TF7wJ6UnXK9NKjKeX7rGTIEDh20lfRNmHm1yaVd3skXjNKnrgStbvGBD3hTcCe5trzVNvzFFuac8ZIeGh4E3sZqs6DwnQjmZL5ZTex449R1sYYo3fKLpKmn0MbYgGkpj2ymDEhRJen3otZeZSnVfS5x8OceVOAiA263yQZaV0eodrH1vkKQ8d3ahOh79n5gGjkM30CPGgPeQWeoFQ2CXl6tE1zcUV5i07BAIEROzB9ms6C0NANW89zi5qLrJ74SFkpv6C0osCq1Zj1bruMIL3lydmteMjukhkoJy39n-m1hk_Eyef1mrCTt8iiHw7GMQRevx89iliOySDaPHAe5yEZ-3ng2glFAp-322cNoiQD1p_Br5wqxePdO4aCbQjcKNsGdfCYuReuSsdB1mHjNhKMll0gUoaVUgL4wXFOh- -MigToIg3TXnCyB0cK6cJcx67gV7EJhplNQTEAsF1mB9YdGhHAKyNxzqHnCxg4SJ9rblhKn7plbZa5ktESelAHJUUtCxSC5LOyFUmUtw1swoahaqMjUGnGUoxKSQr6E43cCM5erXcZTnLBtJtH14RBz3QaF306GUFjemf_t4o6JLkiK0w4-srrsB5oySUhqf67CZxGQ-qGyzzouIkXUi8j8_mjb32-N3Lo4PffOLTaHsijmcD9BCEBnuuvWJkSaNrAlP_t8OO3Rd_2Cj1Ki_-3Y0yPWFB-05J7n59vf3BxzxzzVNb_hrXVQHrgZrln_4IVe0_r48gfeaTywfhXfjAPcAlHaWWled-DqK_azWfH1wACJ1Q-KZhcYpOumWwRqhHhGOSrA7bfI8fctGmNVL19QEBWAB1qw-A__fp7fEGS49jMLiZbWHiqCdhLIQk-pXOg0yqzQ-FXVaLJrPbdrHX8zFiDkEzsCJNgLKDC_xalpFvAJs4nSDyJ2rDn1rq1IU6iRtrShWNm00]--></g></svg>