<svg xmlns="http://www.w3.org/2000/svg" xmlns:xlink="http://www.w3.org/1999/xlink" contentStyleType="text/css" height="1348px" preserveAspectRatio="none" style="width:1837px;height:1348px;background:#FFFFFF;" version="1.1" viewBox="0 0 1837 1348" width="1837px" zoomAndPan="magnify"><defs/><g><text fill="#000000" font-family="sans-serif" font-size="14" font-weight="bold" lengthAdjust="spacing" textLength="154" x="834.5" y="22.9951">Mod&#232;le du domaine</text><!--cluster Serveur--><g id="cluster_Serveur"><path d="M411.5,43.2969 L475.5,43.2969 A3.75,3.75 0 0 1 478,45.7969 L485,65.5938 L1526.5,65.5938 A2.5,2.5 0 0 1 1529,68.0938 L1529,572.0669 A2.5,2.5 0 0 1 1526.5,574.5669 L411.5,574.5669 A2.5,2.5 0 0 1 409,572.0669 L409,45.7969 A2.5,2.5 0 0 1 411.5,43.2969 " fill="none" style="stroke:#000000;stroke-width:1.5;"/><line style="stroke:#000000;stroke-width:1.5;" x1="409" x2="485" y1="65.5938" y2="65.5938"/><text fill="#000000" font-family="sans-serif" font-size="14" font-weight="bold" lengthAdjust="spacing" textLength="63" x="413" y="58.292">Serveur</text></g><!--class Se--><g id="elem_Se"><rect codeLine="20" fill="#FFF4C8" height="72.5938" id="Se" rx="2.5" ry="2.5" style="stroke:#181818;stroke-width:0.5;" width="119" x="1359.5" y="97.2969"/><ellipse cx="1393.85" cy="113.2969" fill="#ADD1B2" rx="11" ry="11" style="stroke:#181818;stroke-width:1.0;"/><path d="M1396.8188,118.9375 Q1396.2406,119.2344 1395.6,119.375 Q1394.9594,119.5313 1394.2563,119.5313 Q1391.7563,119.5313 1390.4281,117.8906 Q1389.1156,116.2344 1389.1156,113.1094 Q1389.1156,109.9844 1390.4281,108.3281 Q1391.7563,106.6719 1394.2563,106.6719 Q1394.9594,106.6719 1395.6,106.8281 Q1396.2563,106.9844 1396.8188,107.2813 L1396.8188,110 Q1396.1938,109.4219 1395.6,109.1563 Q1395.0063,108.875 1394.3813,108.875 Q1393.0375,108.875 1392.35,109.9531 Q1391.6625,111.0156 1391.6625,113.1094 Q1391.6625,115.2031 1392.35,116.2813 Q1393.0375,117.3438 1394.3813,117.3438 Q1395.0063,117.3438 1395.6,117.0781 Q1396.1938,116.7969 1396.8188,116.2188 L1396.8188,118.9375 Z " fill="#000000"/><text fill="#000000" font-family="sans-serif" font-size="14" lengthAdjust="spacing" textLength="44" x="1412.15" y="118.1436">Server</text><line style="stroke:#181818;stroke-width:0.5;" x1="1360.5" x2="1477.5" y1="129.2969" y2="129.2969"/><rect fill="none" height="6" style="stroke:#C82930;stroke-width:1.0;" width="6" x="1367.5" y="139.9453"/><text fill="#000000" font-family="sans-serif" font-size="14" lengthAdjust="spacing" textLength="91" x="1379.5" y="146.292">minter Minter</text><rect fill="none" height="6" style="stroke:#C82930;stroke-width:1.0;" width="6" x="1367.5" y="156.2422"/><text fill="#000000" font-family="sans-serif" font-size="14" lengthAdjust="spacing" textLength="93" x="1379.5" y="162.5889">router Router</text></g><!--class SS--><g id="elem_SS"><rect codeLine="25" fill="#FFF4C8" height="88.8906" id="SS" rx="2.5" ry="2.5" style="stroke:#181818;stroke-width:0.5;" width="324" x="762" y="461.5269"/><ellipse cx="878.75" cy="477.5269" fill="#B4A7E5" rx="11" ry="11" style="stroke:#181818;stroke-width:1.0;"/><path d="M874.6719,473.2925 L874.6719,471.1362 L882.0625,471.1362 L882.0625,473.2925 L879.5938,473.2925 L879.5938,481.3706 L882.0625,481.3706 L882.0625,483.5269 L874.6719,483.5269 L874.6719,481.3706 L877.1406,481.3706 L877.1406,473.2925 L874.6719,473.2925 Z " fill="#000000"/><text fill="#000000" font-family="sans-serif" font-size="14" font-style="italic" lengthAdjust="spacing" textLength="82" x="899.25" y="482.3736">SecretStore</text><line style="stroke:#181818;stroke-width:0.5;" x1="763" x2="1085" y1="493.5269" y2="493.5269"/><ellipse cx="773" cy="507.1753" fill="#84BE84" rx="3" ry="3" style="stroke:#038048;stroke-width:1.0;"/><text fill="#000000" font-family="sans-serif" font-size="14" lengthAdjust="spacing" textLength="224" x="782" y="510.522">Secret(uid UserId) (Secret, error)</text><ellipse cx="773" cy="523.4722" fill="#84BE84" rx="3" ry="3" style="stroke:#038048;stroke-width:1.0;"/><text fill="#000000" font-family="sans-serif" font-size="14" lengthAdjust="spacing" textLength="298" x="782" y="526.8189">StoreToken(id TokenID, token Token) error</text><ellipse cx="773" cy="539.7691" fill="#84BE84" rx="3" ry="3" style="stroke:#038048;stroke-width:1.0;"/><text fill="#000000" font-family="sans-serif" font-size="14" lengthAdjust="spacing" textLength="215" x="782" y="543.1157">Tokens() *map[TokenID]Token</text></g><!--class Ch--><g id="elem_Ch"><rect codeLine="31" fill="#FFF4C8" height="56.2969" id="Ch" rx="2.5" ry="2.5" style="stroke:#181818;stroke-width:0.5;" width="301" x="425.5" y="477.8269"/><ellipse cx="534.75" cy="493.8269" fill="#B4A7E5" rx="11" ry="11" style="stroke:#181818;stroke-width:1.0;"/><path d="M530.6719,489.5925 L530.6719,487.4363 L538.0625,487.4363 L538.0625,489.5925 L535.5938,489.5925 L535.5938,497.6706 L538.0625,497.6706 L538.0625,499.8269 L530.6719,499.8269 L530.6719,497.6706 L533.1406,497.6706 L533.1406,489.5925 L530.6719,489.5925 Z " fill="#000000"/><text fill="#000000" font-family="sans-serif" font-size="14" font-style="italic" lengthAdjust="spacing" textLength="74" x="555.25" y="498.6736">Challenger</text><line style="stroke:#181818;stroke-width:0.5;" x1="426.5" x2="725.5" y1="509.8269" y2="509.8269"/><ellipse cx="436.5" cy="523.4753" fill="#84BE84" rx="3" ry="3" style="stroke:#038048;stroke-width:1.0;"/><text fill="#000000" font-family="sans-serif" font-size="14" lengthAdjust="spacing" textLength="275" x="445.5" y="526.822">Challenge(price int64) PaymentRequest</text></g><!--class SM--><g id="elem_SM"><rect codeLine="35" fill="#FFF4C8" height="105.1875" id="SM" rx="2.5" ry="2.5" style="stroke:#181818;stroke-width:0.5;" width="391" x="1121.5" y="453.3769"/><ellipse cx="1257.75" cy="469.3769" fill="#B4A7E5" rx="11" ry="11" style="stroke:#181818;stroke-width:1.0;"/><path d="M1253.6719,465.1425 L1253.6719,462.9862 L1261.0625,462.9862 L1261.0625,465.1425 L1258.5938,465.1425 L1258.5938,473.2206 L1261.0625,473.2206 L1261.0625,475.3769 L1253.6719,475.3769 L1253.6719,473.2206 L1256.1406,473.2206 L1256.1406,465.1425 L1253.6719,465.1425 Z " fill="#000000"/><text fill="#000000" font-family="sans-serif" font-size="14" font-style="italic" lengthAdjust="spacing" textLength="110" x="1278.25" y="474.2236">ServiceManager</text><line style="stroke:#181818;stroke-width:0.5;" x1="1122.5" x2="1511.5" y1="485.3769" y2="485.3769"/><ellipse cx="1132.5" cy="499.0253" fill="#84BE84" rx="3" ry="3" style="stroke:#038048;stroke-width:1.0;"/><text fill="#000000" font-family="sans-serif" font-size="14" lengthAdjust="spacing" textLength="288" x="1141.5" y="502.372">Service(services ...String) ([]Service, error)</text><ellipse cx="1132.5" cy="515.3222" fill="#84BE84" rx="3" ry="3" style="stroke:#038048;stroke-width:1.0;"/><text fill="#000000" font-family="sans-serif" font-size="14" lengthAdjust="spacing" textLength="301" x="1141.5" y="518.6689">Capabilities(service String) ([]Caveats, error)</text><ellipse cx="1132.5" cy="531.6191" fill="#84BE84" rx="3" ry="3" style="stroke:#038048;stroke-width:1.0;"/><text fill="#000000" font-family="sans-serif" font-size="14" lengthAdjust="spacing" textLength="255" x="1141.5" y="534.9657">VerifyCaveats(caveats ...Caveat) error</text><ellipse cx="1132.5" cy="547.9159" fill="#84BE84" rx="3" ry="3" style="stroke:#038048;stroke-width:1.0;"/><text fill="#000000" font-family="sans-serif" font-size="14" lengthAdjust="spacing" textLength="365" x="1141.5" y="551.2626">GetResource(macaroon Macaroon) (Resource, error)</text></g><!--class Mi--><g id="elem_Mi"><rect codeLine="42" fill="#FFF4C8" height="129.4844" id="Mi" rx="2.5" ry="2.5" style="stroke:#181818;stroke-width:0.5;" width="431" x="906.5" y="246.8969"/><ellipse cx="1096.25" cy="262.8969" fill="#ADD1B2" rx="11" ry="11" style="stroke:#181818;stroke-width:1.0;"/><path d="M1099.2188,268.5375 Q1098.6406,268.8344 1098,268.975 Q1097.3594,269.1312 1096.6563,269.1312 Q1094.1563,269.1312 1092.8281,267.4906 Q1091.5156,265.8344 1091.5156,262.7094 Q1091.5156,259.5844 1092.8281,257.9281 Q1094.1563,256.2719 1096.6563,256.2719 Q1097.3594,256.2719 1098,256.4281 Q1098.6563,256.5844 1099.2188,256.8812 L1099.2188,259.6 Q1098.5938,259.0219 1098,258.7562 Q1097.4063,258.475 1096.7813,258.475 Q1095.4375,258.475 1094.75,259.5531 Q1094.0625,260.6156 1094.0625,262.7094 Q1094.0625,264.8031 1094.75,265.8812 Q1095.4375,266.9437 1096.7813,266.9437 Q1097.4063,266.9437 1098,266.6781 Q1098.5938,266.3969 1099.2188,265.8187 L1099.2188,268.5375 Z " fill="#000000"/><text fill="#000000" font-family="sans-serif" font-size="14" lengthAdjust="spacing" textLength="43" x="1116.75" y="267.7436">Minter</text><line style="stroke:#181818;stroke-width:0.5;" x1="907.5" x2="1336.5" y1="278.8969" y2="278.8969"/><rect fill="none" height="6" style="stroke:#C82930;stroke-width:1.0;" width="6" x="914.5" y="289.5453"/><text fill="#000000" font-family="sans-serif" font-size="14" lengthAdjust="spacing" textLength="163" x="926.5" y="295.892">service ServiceManager</text><rect fill="none" height="6" style="stroke:#C82930;stroke-width:1.0;" width="6" x="914.5" y="305.8422"/><text fill="#000000" font-family="sans-serif" font-size="14" lengthAdjust="spacing" textLength="150" x="926.5" y="312.1889">challenger Challenger</text><rect fill="none" height="6" style="stroke:#C82930;stroke-width:1.0;" width="6" x="914.5" y="322.1391"/><text fill="#000000" font-family="sans-serif" font-size="14" lengthAdjust="spacing" textLength="122" x="926.5" y="328.4857">store SecretStore</text><line style="stroke:#181818;stroke-width:0.5;" x1="907.5" x2="1336.5" y1="335.7875" y2="335.7875"/><ellipse cx="917.5" cy="349.4359" fill="#84BE84" rx="3" ry="3" style="stroke:#038048;stroke-width:1.0;"/><text fill="#000000" font-family="sans-serif" font-size="14" lengthAdjust="spacing" textLength="405" x="926.5" y="352.7826">MintToken(uid UserId, services ...Service) (PreToken, error)</text><rect fill="#F24D5C" height="6" style="stroke:#C82930;stroke-width:1.0;" width="6" x="914.5" y="362.7328"/><text fill="#000000" font-family="sans-serif" font-size="14" lengthAdjust="spacing" textLength="202" x="926.5" y="369.0795">AuthToken(lsat *Token) error</text></g><!--class Uid--><g id="elem_Uid"><rect codeLine="10" fill="#F1F1F1" height="32" id="Uid" rx="2.5" ry="2.5" style="stroke:#181818;stroke-width:0.5;" width="76" x="1548" y="489.9669"/><ellipse cx="1563" cy="505.9669" fill="#ADD1B2" rx="11" ry="11" style="stroke:#181818;stroke-width:1.0;"/><path d="M1567.1094,511.9669 L1559.3906,511.9669 L1559.3906,499.5762 L1567.1094,499.5762 L1567.1094,501.7325 L1561.8438,501.7325 L1561.8438,504.4044 L1566.6094,504.4044 L1566.6094,506.5606 L1561.8438,506.5606 L1561.8438,509.8106 L1567.1094,509.8106 L1567.1094,511.9669 Z " fill="#000000"/><text fill="#000000" font-family="sans-serif" font-size="14" lengthAdjust="spacing" textLength="44" x="1577" y="510.8136">UserId</text></g><!--class Sec--><g id="elem_Sec"><rect codeLine="12" fill="#F1F1F1" height="32" id="Sec" rx="2.5" ry="2.5" style="stroke:#181818;stroke-width:0.5;" width="77" x="1137.5" y="823.7469"/><ellipse cx="1152.5" cy="839.7469" fill="#ADD1B2" rx="11" ry="11" style="stroke:#181818;stroke-width:1.0;"/><path d="M1156.6094,845.7469 L1148.8906,845.7469 L1148.8906,833.3562 L1156.6094,833.3562 L1156.6094,835.5125 L1151.3438,835.5125 L1151.3438,838.1844 L1156.1094,838.1844 L1156.1094,840.3406 L1151.3438,840.3406 L1151.3438,843.5906 L1156.6094,843.5906 L1156.6094,845.7469 Z " fill="#000000"/><text fill="#000000" font-family="sans-serif" font-size="14" lengthAdjust="spacing" textLength="45" x="1166.5" y="844.5936">Secret</text></g><!--class U--><g id="elem_U"><rect codeLine="14" fill="#F1F1F1" height="72.5938" id="U" rx="2.5" ry="2.5" style="stroke:#181818;stroke-width:0.5;" width="119" x="1116.5" y="645.7169"/><ellipse cx="1156.25" cy="661.7169" fill="#A9DCDF" rx="11" ry="11" style="stroke:#181818;stroke-width:1.0;"/><path d="M1156.3594,657.0606 L1155.2031,662.1388 L1157.5313,662.1388 L1156.3594,657.0606 Z M1154.875,654.8263 L1157.8594,654.8263 L1161.2188,667.2169 L1158.7656,667.2169 L1158,664.1544 L1154.7188,664.1544 L1153.9688,667.2169 L1151.5313,667.2169 L1154.875,654.8263 Z " fill="#000000"/><text fill="#000000" font-family="sans-serif" font-size="14" font-style="italic" lengthAdjust="spacing" textLength="32" x="1175.75" y="666.5636">User</text><line style="stroke:#181818;stroke-width:0.5;" x1="1117.5" x2="1234.5" y1="677.7169" y2="677.7169"/><ellipse cx="1127.5" cy="691.3653" fill="none" rx="3" ry="3" style="stroke:#038048;stroke-width:1.0;"/><text fill="#000000" font-family="sans-serif" font-size="14" lengthAdjust="spacing" textLength="69" x="1136.5" y="694.712">uid UserId</text><ellipse cx="1127.5" cy="707.6622" fill="none" rx="3" ry="3" style="stroke:#038048;stroke-width:1.0;"/><text fill="#000000" font-family="sans-serif" font-size="14" lengthAdjust="spacing" textLength="93" x="1136.5" y="711.0089">secret Secret</text></g><!--class LN--><g id="elem_LN"><rect codeLine="54" fill="#F1F1F1" height="72.5938" id="LN" rx="2.5" ry="2.5" style="stroke:#181818;stroke-width:0.5;" width="386" x="7" y="275.3369"/><ellipse cx="145.75" cy="291.3369" fill="#B4A7E5" rx="11" ry="11" style="stroke:#181818;stroke-width:1.0;"/><path d="M141.6719,287.1025 L141.6719,284.9462 L149.0625,284.9462 L149.0625,287.1025 L146.5938,287.1025 L146.5938,295.1806 L149.0625,295.1806 L149.0625,297.3369 L141.6719,297.3369 L141.6719,295.1806 L144.1406,295.1806 L144.1406,287.1025 L141.6719,287.1025 Z " fill="#000000"/><text fill="#000000" font-family="sans-serif" font-size="14" font-style="italic" lengthAdjust="spacing" textLength="100" x="166.25" y="296.1836">LightningNode</text><line style="stroke:#181818;stroke-width:0.5;" x1="8" x2="392" y1="307.3369" y2="307.3369"/><text fill="#000000" font-family="sans-serif" font-size="14" lengthAdjust="spacing" textLength="345" x="13" y="324.332">SendPayment(PaymentRequest) (Preimage, error)</text><text fill="#000000" font-family="sans-serif" font-size="14" lengthAdjust="spacing" textLength="374" x="13" y="340.6289">CreateInvoice(InvoiceBuilder) (PaymentRequest, error)</text></g><!--class Token--><g id="elem_Token"><rect codeLine="59" fill="#F1F1F1" height="72.5938" id="Token" rx="2.5" ry="2.5" style="stroke:#181818;stroke-width:0.5;" width="153" x="788.5" y="1268.5369"/><ellipse cx="838.75" cy="1284.5369" fill="#ADD1B2" rx="11" ry="11" style="stroke:#181818;stroke-width:1.0;"/><path d="M841.7188,1290.1775 Q841.1406,1290.4744 840.5,1290.615 Q839.8594,1290.7713 839.1563,1290.7713 Q836.6563,1290.7713 835.3281,1289.1306 Q834.0156,1287.4744 834.0156,1284.3494 Q834.0156,1281.2244 835.3281,1279.5681 Q836.6563,1277.9119 839.1563,1277.9119 Q839.8594,1277.9119 840.5,1278.0681 Q841.1563,1278.2244 841.7188,1278.5213 L841.7188,1281.24 Q841.0938,1280.6619 840.5,1280.3963 Q839.9063,1280.115 839.2813,1280.115 Q837.9375,1280.115 837.25,1281.1931 Q836.5625,1282.2556 836.5625,1284.3494 Q836.5625,1286.4431 837.25,1287.5213 Q837.9375,1288.5838 839.2813,1288.5838 Q839.9063,1288.5838 840.5,1288.3181 Q841.0938,1288.0369 841.7188,1287.4588 L841.7188,1290.1775 Z " fill="#000000"/><text fill="#000000" font-family="sans-serif" font-size="14" lengthAdjust="spacing" textLength="44" x="859.25" y="1289.3836">Token</text><line style="stroke:#181818;stroke-width:0.5;" x1="789.5" x2="940.5" y1="1300.5369" y2="1300.5369"/><text fill="#000000" font-family="sans-serif" font-size="14" lengthAdjust="spacing" textLength="141" x="794.5" y="1317.532">macaroon Macaroon</text><text fill="#000000" font-family="sans-serif" font-size="14" lengthAdjust="spacing" textLength="109" x="794.5" y="1333.8289">preimage String</text></g><!--class pToken--><g id="elem_pToken"><rect codeLine="64" fill="#F1F1F1" height="72.5938" id="pToken" rx="2.5" ry="2.5" style="stroke:#181818;stroke-width:0.5;" width="153" x="549.5" y="1118.9369"/><ellipse cx="588.8" cy="1134.9369" fill="#ADD1B2" rx="11" ry="11" style="stroke:#181818;stroke-width:1.0;"/><path d="M591.7688,1140.5775 Q591.1906,1140.8744 590.55,1141.015 Q589.9094,1141.1712 589.2063,1141.1712 Q586.7063,1141.1712 585.3781,1139.5306 Q584.0656,1137.8744 584.0656,1134.7494 Q584.0656,1131.6244 585.3781,1129.9681 Q586.7063,1128.3119 589.2063,1128.3119 Q589.9094,1128.3119 590.55,1128.4681 Q591.2063,1128.6244 591.7688,1128.9212 L591.7688,1131.64 Q591.1438,1131.0619 590.55,1130.7962 Q589.9563,1130.515 589.3313,1130.515 Q587.9875,1130.515 587.3,1131.5931 Q586.6125,1132.6556 586.6125,1134.7494 Q586.6125,1136.8431 587.3,1137.9212 Q587.9875,1138.9837 589.3313,1138.9837 Q589.9563,1138.9837 590.55,1138.7181 Q591.1438,1138.4369 591.7688,1137.8587 L591.7688,1140.5775 Z " fill="#000000"/><text fill="#000000" font-family="sans-serif" font-size="14" lengthAdjust="spacing" textLength="67" x="608.2" y="1139.7836">PreToken</text><line style="stroke:#181818;stroke-width:0.5;" x1="550.5" x2="701.5" y1="1150.9369" y2="1150.9369"/><text fill="#000000" font-family="sans-serif" font-size="14" lengthAdjust="spacing" textLength="141" x="555.5" y="1167.932">macaroon Macaroon</text><text fill="#000000" font-family="sans-serif" font-size="14" lengthAdjust="spacing" textLength="92" x="555.5" y="1184.2289">invoice String</text></g><!--class Mac--><g id="elem_Mac"><rect codeLine="70" fill="#F1F1F1" height="88.8906" id="Mac" rx="2.5" ry="2.5" style="stroke:#181818;stroke-width:0.5;" width="126" x="1018" y="953.0469"/><ellipse cx="1044.7" cy="969.0469" fill="#ADD1B2" rx="11" ry="11" style="stroke:#181818;stroke-width:1.0;"/><path d="M1047.6688,974.6875 Q1047.0906,974.9844 1046.45,975.125 Q1045.8094,975.2813 1045.1063,975.2813 Q1042.6063,975.2813 1041.2781,973.6406 Q1039.9656,971.9844 1039.9656,968.8594 Q1039.9656,965.7344 1041.2781,964.0781 Q1042.6063,962.4219 1045.1063,962.4219 Q1045.8094,962.4219 1046.45,962.5781 Q1047.1063,962.7344 1047.6688,963.0313 L1047.6688,965.75 Q1047.0438,965.1719 1046.45,964.9063 Q1045.8563,964.625 1045.2313,964.625 Q1043.8875,964.625 1043.2,965.7031 Q1042.5125,966.7656 1042.5125,968.8594 Q1042.5125,970.9531 1043.2,972.0313 Q1043.8875,973.0938 1045.2313,973.0938 Q1045.8563,973.0938 1046.45,972.8281 Q1047.0438,972.5469 1047.6688,971.9688 L1047.6688,974.6875 Z " fill="#000000"/><text fill="#000000" font-family="sans-serif" font-size="14" lengthAdjust="spacing" textLength="68" x="1061.3" y="973.8936">Macaroon</text><line style="stroke:#181818;stroke-width:0.5;" x1="1019" x2="1143" y1="985.0469" y2="985.0469"/><text fill="#000000" font-family="sans-serif" font-size="14" lengthAdjust="spacing" textLength="114" x="1024" y="1002.042">caveats []Caveat</text><text fill="#000000" font-family="sans-serif" font-size="14" lengthAdjust="spacing" textLength="109" x="1024" y="1018.3389">signature String</text><text fill="#000000" font-family="sans-serif" font-size="14" lengthAdjust="spacing" textLength="98" x="1024" y="1034.6357">user_id UserId</text></g><!--class Tid--><g id="elem_Tid"><rect codeLine="76" fill="#F1F1F1" height="88.8906" id="Tid" rx="2.5" ry="2.5" style="stroke:#181818;stroke-width:0.5;" width="118" x="750" y="637.5669"/><ellipse cx="778.5" cy="653.5669" fill="#ADD1B2" rx="11" ry="11" style="stroke:#181818;stroke-width:1.0;"/><path d="M781.4688,659.2075 Q780.8906,659.5044 780.25,659.645 Q779.6094,659.8013 778.9063,659.8013 Q776.4063,659.8013 775.0781,658.1606 Q773.7656,656.5044 773.7656,653.3794 Q773.7656,650.2544 775.0781,648.5981 Q776.4063,646.9419 778.9063,646.9419 Q779.6094,646.9419 780.25,647.0981 Q780.9063,647.2544 781.4688,647.5513 L781.4688,650.27 Q780.8438,649.6919 780.25,649.4263 Q779.6563,649.145 779.0313,649.145 Q777.6875,649.145 777,650.2231 Q776.3125,651.2856 776.3125,653.3794 Q776.3125,655.4731 777,656.5513 Q777.6875,657.6138 779.0313,657.6138 Q779.6563,657.6138 780.25,657.3481 Q780.8438,657.0669 781.4688,656.4888 L781.4688,659.2075 Z " fill="#000000"/><text fill="#000000" font-family="sans-serif" font-size="14" lengthAdjust="spacing" textLength="56" x="795.5" y="658.4136">TokenId</text><line style="stroke:#181818;stroke-width:0.5;" x1="751" x2="867" y1="669.5669" y2="669.5669"/><text fill="#000000" font-family="sans-serif" font-size="14" lengthAdjust="spacing" textLength="73" x="756" y="686.562">hash Hash</text><text fill="#000000" font-family="sans-serif" font-size="14" lengthAdjust="spacing" textLength="69" x="756" y="702.8589">uid UserId</text><text fill="#000000" font-family="sans-serif" font-size="14" lengthAdjust="spacing" textLength="106" x="756" y="719.1557">version Version</text></g><!--class Ca--><g id="elem_Ca"><rect codeLine="82" fill="#F1F1F1" height="72.5938" id="Ca" rx="2.5" ry="2.5" style="stroke:#181818;stroke-width:0.5;" width="92" x="1011" y="803.4569"/><ellipse cx="1031.85" cy="819.4569" fill="#ADD1B2" rx="11" ry="11" style="stroke:#181818;stroke-width:1.0;"/><path d="M1034.8188,825.0975 Q1034.2406,825.3944 1033.6,825.535 Q1032.9594,825.6913 1032.2563,825.6913 Q1029.7563,825.6913 1028.4281,824.0506 Q1027.1156,822.3944 1027.1156,819.2694 Q1027.1156,816.1444 1028.4281,814.4881 Q1029.7563,812.8319 1032.2563,812.8319 Q1032.9594,812.8319 1033.6,812.9881 Q1034.2563,813.1444 1034.8188,813.4413 L1034.8188,816.16 Q1034.1938,815.5819 1033.6,815.3163 Q1033.0063,815.035 1032.3813,815.035 Q1031.0375,815.035 1030.35,816.1131 Q1029.6625,817.1756 1029.6625,819.2694 Q1029.6625,821.3631 1030.35,822.4413 Q1031.0375,823.5038 1032.3813,823.5038 Q1033.0063,823.5038 1033.6,823.2381 Q1034.1938,822.9569 1034.8188,822.3788 L1034.8188,825.0975 Z " fill="#000000"/><text fill="#000000" font-family="sans-serif" font-size="14" lengthAdjust="spacing" textLength="47" x="1047.15" y="824.3036">Caveat</text><line style="stroke:#181818;stroke-width:0.5;" x1="1012" x2="1102" y1="835.4569" y2="835.4569"/><text fill="#000000" font-family="sans-serif" font-size="14" lengthAdjust="spacing" textLength="68" x="1017" y="852.452">key String</text><text fill="#000000" font-family="sans-serif" font-size="14" lengthAdjust="spacing" textLength="80" x="1017" y="868.7489">value String</text></g><!--class Ser--><g id="elem_Ser"><rect codeLine="88" fill="#F1F1F1" height="72.5938" id="Ser" rx="2.5" ry="2.5" style="stroke:#181818;stroke-width:0.5;" width="95" x="1475.5" y="1118.9369"/><ellipse cx="1496.35" cy="1134.9369" fill="#ADD1B2" rx="11" ry="11" style="stroke:#181818;stroke-width:1.0;"/><path d="M1499.3188,1140.5775 Q1498.7406,1140.8744 1498.1,1141.015 Q1497.4594,1141.1712 1496.7563,1141.1712 Q1494.2563,1141.1712 1492.9281,1139.5306 Q1491.6156,1137.8744 1491.6156,1134.7494 Q1491.6156,1131.6244 1492.9281,1129.9681 Q1494.2563,1128.3119 1496.7563,1128.3119 Q1497.4594,1128.3119 1498.1,1128.4681 Q1498.7563,1128.6244 1499.3188,1128.9212 L1499.3188,1131.64 Q1498.6938,1131.0619 1498.1,1130.7962 Q1497.5063,1130.515 1496.8813,1130.515 Q1495.5375,1130.515 1494.85,1131.5931 Q1494.1625,1132.6556 1494.1625,1134.7494 Q1494.1625,1136.8431 1494.85,1137.9212 Q1495.5375,1138.9837 1496.8813,1138.9837 Q1497.5063,1138.9837 1498.1,1138.7181 Q1498.6938,1138.4369 1499.3188,1137.8587 L1499.3188,1140.5775 Z " fill="#000000"/><text fill="#000000" font-family="sans-serif" font-size="14" lengthAdjust="spacing" textLength="50" x="1511.65" y="1139.7836">Service</text><line style="stroke:#181818;stroke-width:0.5;" x1="1476.5" x2="1569.5" y1="1150.9369" y2="1150.9369"/><text fill="#000000" font-family="sans-serif" font-size="14" lengthAdjust="spacing" textLength="83" x="1481.5" y="1167.932">name String</text><text fill="#000000" font-family="sans-serif" font-size="14" lengthAdjust="spacing" textLength="73" x="1481.5" y="1184.2289">price int64</text></g><!--class Rs--><g id="elem_Rs"><rect codeLine="93" fill="#F1F1F1" height="72.5938" id="Rs" rx="2.5" ry="2.5" style="stroke:#181818;stroke-width:0.5;" width="110" x="1468" y="1268.5369"/><ellipse cx="1487.95" cy="1284.5369" fill="#ADD1B2" rx="11" ry="11" style="stroke:#181818;stroke-width:1.0;"/><path d="M1490.9188,1290.1775 Q1490.3406,1290.4744 1489.7,1290.615 Q1489.0594,1290.7713 1488.3563,1290.7713 Q1485.8563,1290.7713 1484.5281,1289.1306 Q1483.2156,1287.4744 1483.2156,1284.3494 Q1483.2156,1281.2244 1484.5281,1279.5681 Q1485.8563,1277.9119 1488.3563,1277.9119 Q1489.0594,1277.9119 1489.7,1278.0681 Q1490.3563,1278.2244 1490.9188,1278.5213 L1490.9188,1281.24 Q1490.2938,1280.6619 1489.7,1280.3963 Q1489.1063,1280.115 1488.4813,1280.115 Q1487.1375,1280.115 1486.45,1281.1931 Q1485.7625,1282.2556 1485.7625,1284.3494 Q1485.7625,1286.4431 1486.45,1287.5213 Q1487.1375,1288.5838 1488.4813,1288.5838 Q1489.1063,1288.5838 1489.7,1288.3181 Q1490.2938,1288.0369 1490.9188,1287.4588 L1490.9188,1290.1775 Z " fill="#000000"/><text fill="#000000" font-family="sans-serif" font-size="14" lengthAdjust="spacing" textLength="67" x="1503.05" y="1289.3836">Resource</text><line style="stroke:#181818;stroke-width:0.5;" x1="1469" x2="1577" y1="1300.5369" y2="1300.5369"/><text fill="#000000" font-family="sans-serif" font-size="14" lengthAdjust="spacing" textLength="98" x="1474" y="1317.532">content []byte</text><text fill="#000000" font-family="sans-serif" font-size="14" lengthAdjust="spacing" textLength="74" x="1474" y="1333.8289">type String</text></g><!--class PR--><g id="elem_PR"><rect codeLine="98" fill="#F1F1F1" height="56.2969" id="PR" rx="2.5" ry="2.5" style="stroke:#181818;stroke-width:0.5;" width="151" x="500.5" y="653.8569"/><ellipse cx="515.5" cy="669.8569" fill="#ADD1B2" rx="11" ry="11" style="stroke:#181818;stroke-width:1.0;"/><path d="M518.4688,675.4975 Q517.8906,675.7944 517.25,675.935 Q516.6094,676.0913 515.9063,676.0913 Q513.4063,676.0913 512.0781,674.4506 Q510.7656,672.7944 510.7656,669.6694 Q510.7656,666.5444 512.0781,664.8881 Q513.4063,663.2319 515.9063,663.2319 Q516.6094,663.2319 517.25,663.3881 Q517.9063,663.5444 518.4688,663.8413 L518.4688,666.56 Q517.8438,665.9819 517.25,665.7163 Q516.6563,665.435 516.0313,665.435 Q514.6875,665.435 514,666.5131 Q513.3125,667.5756 513.3125,669.6694 Q513.3125,671.7631 514,672.8413 Q514.6875,673.9038 516.0313,673.9038 Q516.6563,673.9038 517.25,673.6381 Q517.8438,673.3569 518.4688,672.7788 L518.4688,675.4975 Z " fill="#000000"/><text fill="#000000" font-family="sans-serif" font-size="14" lengthAdjust="spacing" textLength="119" x="529.5" y="674.7036">PaymentRequest</text><line style="stroke:#181818;stroke-width:0.5;" x1="501.5" x2="650.5" y1="685.8569" y2="685.8569"/><text fill="#000000" font-family="sans-serif" font-size="14" lengthAdjust="spacing" textLength="92" x="506.5" y="702.852">invoice String</text></g><!--link Token to Mac--><g id="link_Token_Mac"><path codeLine="102" d="M918.34,1268.3169 C929.58,1259.3969 940.81,1249.2769 950,1238.5369 C1002,1177.7469 1042.3,1092.9869 1063.77,1042.1469 " fill="none" id="Token-Mac" style="stroke:#181818;stroke-width:1.0;"/><polygon fill="#000000" points="1033.7042,1151.0977,1026.3402,1157.1162,1031.2842,1160.2952,1033.7042,1151.0977" style="stroke:#000000;stroke-width:1.0;"/><text fill="#000000" font-family="sans-serif" font-size="13" lengthAdjust="spacing" textLength="27" x="1040" y="1159.8038">Sert</text><text fill="#000000" font-family="sans-serif" font-size="13" lengthAdjust="spacing" textLength="8" x="919.1287" y="1257.5551">1</text><text fill="#000000" font-family="sans-serif" font-size="13" lengthAdjust="spacing" textLength="8" x="1052.6518" y="1061.8837">1</text></g><!--link pToken to Token--><g id="link_pToken_Token"><path codeLine="103" d="M660.58,1191.8669 C677,1207.4969 697.48,1225.2669 718,1238.5369 C739.69,1252.5569 764.9,1264.9669 788.25,1275.1069 " fill="none" id="pToken-Token" style="stroke:#181818;stroke-width:1.0;"/><polygon fill="#000000" points="727.1884,1232.8341,721.2166,1225.4321,718.0064,1230.3559,727.1884,1232.8341" style="stroke:#000000;stroke-width:1.0;"/><text fill="#000000" font-family="sans-serif" font-size="13" lengthAdjust="spacing" textLength="47" x="732" y="1234.6038">G&#233;n&#233;re</text><text fill="#000000" font-family="sans-serif" font-size="13" lengthAdjust="spacing" textLength="8" x="657.8359" y="1211.5306">1</text><text fill="#000000" font-family="sans-serif" font-size="13" lengthAdjust="spacing" textLength="8" x="772.5535" y="1268.6319">1</text></g><!--link Mi to pToken--><g id="link_Mi_pToken"><path codeLine="104" d="M906.08,326.1369 C684.51,346.0869 372,393.9069 372,504.9669 C372,504.9669 372,504.9669 372,998.4969 C372,1082.5469 474.34,1122.6469 549.1,1140.7269 " fill="none" id="Mi-pToken" style="stroke:#181818;stroke-width:1.0;"/><polygon fill="#000000" points="374.9931,769.6028,381.3154,762.498,375.9318,760.1387,374.9931,769.6028" style="stroke:#000000;stroke-width:1.0;"/><text fill="#000000" font-family="sans-serif" font-size="13" lengthAdjust="spacing" textLength="27" x="386" y="769.5238">Mint</text><text fill="#000000" font-family="sans-serif" font-size="13" lengthAdjust="spacing" textLength="8" x="890.1766" y="323.4576">1</text><text fill="#000000" font-family="sans-serif" font-size="13" lengthAdjust="spacing" textLength="7" x="534.4369" y="1135.7026">*</text></g><!--link PR to pToken--><g id="link_PR_pToken"><path codeLine="105" d="M578.9,710.3769 C587.47,791.1169 612.63,1028.2469 622.23,1118.6569 " fill="none" id="PR-pToken" style="stroke:#181818;stroke-width:1.0;"/><polygon fill="#000000" points="606.5277,919.5854,608.4956,910.2806,602.6506,910.9009,606.5277,919.5854" style="stroke:#000000;stroke-width:1.0;"/><text fill="#000000" font-family="sans-serif" font-size="13" lengthAdjust="spacing" textLength="61" x="615" y="919.1138">Compose</text><text fill="#000000" font-family="sans-serif" font-size="13" lengthAdjust="spacing" textLength="8" x="570.6594" y="730.3052">1</text><text fill="#000000" font-family="sans-serif" font-size="13" lengthAdjust="spacing" textLength="8" x="612.846" y="1107.8844">1</text></g><!--link Mac to pToken--><g id="link_Mac_pToken"><path codeLine="106" d="M1017.73,1020.1469 C935.32,1048.3569 791.34,1097.6369 702.77,1127.9569 " fill="none" id="Mac-pToken" style="stroke:#181818;stroke-width:1.0;"/><polygon fill="#000000" points="853.2695,1082.1225,862.7789,1081.9738,860.8753,1076.4127,853.2695,1082.1225" style="stroke:#000000;stroke-width:1.0;"/><text fill="#000000" font-family="sans-serif" font-size="13" lengthAdjust="spacing" textLength="61" x="867" y="1085.0038">Compose</text><text fill="#000000" font-family="sans-serif" font-size="13" lengthAdjust="spacing" textLength="8" x="1001.9519" y="1018.9737">1</text><text fill="#000000" font-family="sans-serif" font-size="13" lengthAdjust="spacing" textLength="8" x="710.4684" y="1121.7154">1</text></g><!--link Tid to Token--><g id="link_Tid_Token"><path codeLine="108" d="M807.71,726.6369 C806.9,757.8669 806,800.8869 806,838.7469 C806,838.7469 806,838.7469 806,1156.2369 C806,1196.6669 825.32,1239.1569 841.85,1268.1069 " fill="none" id="Tid-Token" style="stroke:#181818;stroke-width:1.0;"/><polygon fill="#000000" points="811.3146,1002.5534,813.6786,993.3413,807.8124,993.7111,811.3146,1002.5534" style="stroke:#000000;stroke-width:1.0;"/><text fill="#000000" font-family="sans-serif" font-size="13" lengthAdjust="spacing" textLength="50" x="820" y="1002.0638">Identifie</text><text fill="#000000" font-family="sans-serif" font-size="13" lengthAdjust="spacing" textLength="8" x="798.933" y="746.3693">1</text><text fill="#000000" font-family="sans-serif" font-size="13" lengthAdjust="spacing" textLength="8" x="829.1836" y="1257.5837">1</text></g><!--link Mac to Ser--><g id="link_Mac_Ser"><path codeLine="109" d="M1144.47,1034.9569 C1178.01,1053.0869 1220.34,1074.2069 1260,1088.9369 C1333.21,1116.1269 1422.06,1135.5169 1475.48,1145.7769 " fill="none" id="Mac-Ser" style="stroke:#181818;stroke-width:1.0;"/><polygon fill="#000000" points="1269.7413,1082.0906,1262.0972,1076.4322,1260.2311,1082.006,1269.7413,1082.0906" style="stroke:#000000;stroke-width:1.0;"/><text fill="#000000" font-family="sans-serif" font-size="13" lengthAdjust="spacing" textLength="69" x="1274" y="1085.0038">Authentifie</text><text fill="#000000" font-family="sans-serif" font-size="13" lengthAdjust="spacing" textLength="8" x="1151.8495" y="1035.3084">1</text><text fill="#000000" font-family="sans-serif" font-size="13" lengthAdjust="spacing" textLength="7" x="1460.3487" y="1157.5425">*</text></g><!--link Ca to Mac--><g id="link_Ca_Mac"><path codeLine="110" d="M1055.18,876.1869 C1055.02,890.7769 1055.57,907.8069 1058,923.0469 C1059.55,932.8169 1062.13,943.0669 1065.01,952.7169 " fill="none" id="Ca-Mac" style="stroke:#181818;stroke-width:1.0;"/><polygon fill="#000000" points="1063.637,919.5725,1065.3996,910.2267,1059.5697,910.9756,1063.637,919.5725" style="stroke:#000000;stroke-width:1.0;"/><text fill="#000000" font-family="sans-serif" font-size="13" lengthAdjust="spacing" textLength="57" x="1072" y="919.1138">Restreint</text><text fill="#000000" font-family="sans-serif" font-size="13" lengthAdjust="spacing" textLength="7" x="1047.2324" y="896.0912">*</text><text fill="#000000" font-family="sans-serif" font-size="13" lengthAdjust="spacing" textLength="7" x="1055.1474" y="942.1156">*</text></g><!--link Mi to Ch--><g id="link_Mi_Ch"><path codeLine="112" d="M939.81,376.8169 C842.74,411.0069 728.39,451.2869 654.17,477.4369 " fill="none" id="Mi-Ch" style="stroke:#181818;stroke-width:1.0;"/><polygon fill="#000000" points="849.284,416.6045,858.7917,416.3713,856.8388,410.8273,849.284,416.6045" style="stroke:#000000;stroke-width:1.0;"/><text fill="#000000" font-family="sans-serif" font-size="13" lengthAdjust="spacing" textLength="39" x="863" y="419.4438">Utilise</text><text fill="#000000" font-family="sans-serif" font-size="13" lengthAdjust="spacing" textLength="8" x="912.6092" y="396.3855">1</text><text fill="#000000" font-family="sans-serif" font-size="13" lengthAdjust="spacing" textLength="8" x="662.3947" y="466.6349">1</text></g><!--link Mi to SS--><g id="link_Mi_SS"><path codeLine="113" d="M1056.07,376.6769 C1027.49,404.4369 994.77,436.2269 969.04,461.2169 " fill="none" id="Mi-SS" style="stroke:#181818;stroke-width:1.0;"/><polygon fill="#000000" points="1024.4135,418.4271,1032.9493,414.2329,1028.8538,410.0167,1024.4135,418.4271" style="stroke:#000000;stroke-width:1.0;"/><text fill="#000000" font-family="sans-serif" font-size="13" lengthAdjust="spacing" textLength="39" x="1037" y="419.4438">Utilise</text><text fill="#000000" font-family="sans-serif" font-size="13" lengthAdjust="spacing" textLength="8" x="1040.8585" y="396.2311">1</text><text fill="#000000" font-family="sans-serif" font-size="13" lengthAdjust="spacing" textLength="8" x="967.0677" y="450.6185">1</text></g><!--link Mi to SM--><g id="link_Mi_SM"><path codeLine="114" d="M1186.93,376.6769 C1212.08,401.4869 1240.5,429.5169 1264.34,453.0269 " fill="none" id="Mi-SM" style="stroke:#181818;stroke-width:1.0;"/><polygon fill="#000000" points="1239.5598,418.4544,1235.1838,410.0103,1231.0563,414.1952,1239.5598,418.4544" style="stroke:#000000;stroke-width:1.0;"/><text fill="#000000" font-family="sans-serif" font-size="13" lengthAdjust="spacing" textLength="39" x="1245" y="419.4438">Utilise</text><text fill="#000000" font-family="sans-serif" font-size="13" lengthAdjust="spacing" textLength="8" x="1185.2134" y="396.2311">1</text><text fill="#000000" font-family="sans-serif" font-size="13" lengthAdjust="spacing" textLength="8" x="1249.0804" y="442.3579">1</text></g><!--link SS to U--><g id="link_SS_U"><path codeLine="116" d="M987.59,550.8869 C1029.87,580.0869 1084.7,617.9569 1124.3,645.3069 " fill="none" id="SS-U" style="stroke:#181818;stroke-width:1.0;"/><polygon fill="#000000" points="1074.1141,601.9747,1068.3418,594.4163,1065.0014,599.2527,1074.1141,601.9747" style="stroke:#000000;stroke-width:1.0;"/><text fill="#000000" font-family="sans-serif" font-size="13" lengthAdjust="spacing" textLength="54" x="1079" y="603.6338">Contient</text><text fill="#000000" font-family="sans-serif" font-size="13" lengthAdjust="spacing" textLength="8" x="987.9698" y="570.3339">1</text><text fill="#000000" font-family="sans-serif" font-size="13" lengthAdjust="spacing" textLength="7" x="1107.8125" y="634.7871">*</text></g><!--link SS to Token--><g id="link_SS_Token"><path codeLine="117" d="M924,550.5969 C924,585.7969 924,636.5969 924,681.0069 C924,681.0069 924,681.0069 924,1156.2369 C924,1196.6669 904.68,1239.1569 888.15,1268.1069 " fill="none" id="SS-Token" style="stroke:#181818;stroke-width:1.0;"/><polygon fill="#000000" points="928.7505,919.6071,932.1371,910.7199,926.2666,910.4266,928.7505,919.6071" style="stroke:#000000;stroke-width:1.0;"/><text fill="#000000" font-family="sans-serif" font-size="13" lengthAdjust="spacing" textLength="54" x="938" y="919.1138">Contient</text><text fill="#000000" font-family="sans-serif" font-size="13" lengthAdjust="spacing" textLength="8" x="915.4125" y="570.3293">1</text><text fill="#000000" font-family="sans-serif" font-size="13" lengthAdjust="spacing" textLength="7" x="884.5273" y="1257.5837">*</text></g><!--link SS to Uid--><g id="link_SS_Uid"><path codeLine="118" d="M1014.42,461.1269 C1054.07,443.8469 1101.8,426.1969 1147,417.5569 C1203.8,406.7069 1438.66,412.2769 1529,453.3769 C1546.89,461.5169 1562.92,477.4769 1573.38,489.6969 " fill="none" id="SS-Uid" style="stroke:#181818;stroke-width:1.0;"/><polygon fill="#000000" points="1156.9935,415.1985,1148.1102,411.8017,1147.8102,417.6719,1156.9935,415.1985" style="stroke:#000000;stroke-width:1.0;"/><text fill="#000000" font-family="sans-serif" font-size="13" lengthAdjust="spacing" textLength="39" x="1161" y="419.4438">Utilise</text><text fill="#000000" font-family="sans-serif" font-size="13" lengthAdjust="spacing" textLength="8" x="1019.1129" y="450.5153">1</text><text fill="#000000" font-family="sans-serif" font-size="13" lengthAdjust="spacing" textLength="7" x="1561.0403" y="478.912">*</text></g><!--link SS to Tid--><g id="link_SS_Tid"><path codeLine="119" d="M876.03,550.6269 C864.5,562.7569 852.95,576.4969 844,590.5669 C834.88,604.9169 827.5,622.0169 821.92,637.4769 " fill="none" id="SS-Tid" style="stroke:#181818;stroke-width:1.0;"/><polygon fill="#000000" points="846.356,603.377,853.6334,597.2541,848.6446,594.1459,846.356,603.377" style="stroke:#000000;stroke-width:1.0;"/><text fill="#000000" font-family="sans-serif" font-size="13" lengthAdjust="spacing" textLength="39" x="858" y="603.6338">Utilise</text><text fill="#000000" font-family="sans-serif" font-size="13" lengthAdjust="spacing" textLength="8" x="860.3969" y="570.3637">1</text><text fill="#000000" font-family="sans-serif" font-size="13" lengthAdjust="spacing" textLength="7" x="816.3624" y="626.586">*</text></g><!--link U to Sec--><g id="link_U_Sec"><path codeLine="120" d="M1176,718.7369 C1176,751.7869 1176,799.3269 1176,823.4569 " fill="none" id="U-Sec" style="stroke:#181818;stroke-width:1.0;"/><polygon fill="#000000" points="1181,770.0233,1183.9389,760.9782,1178.0611,760.9782,1181,770.0233" style="stroke:#000000;stroke-width:1.0;"/><text fill="#000000" font-family="sans-serif" font-size="13" lengthAdjust="spacing" textLength="54" x="1190" y="769.5238">Poss&#232;de</text><text fill="#000000" font-family="sans-serif" font-size="13" lengthAdjust="spacing" textLength="8" x="1167.3125" y="738.416">1</text><text fill="#000000" font-family="sans-serif" font-size="13" lengthAdjust="spacing" textLength="8" x="1166.675" y="812.6653">1</text></g><!--link Uid to U--><g id="link_Uid_U"><path codeLine="121" d="M1578.35,522.4169 C1569.03,539.6469 1551.68,567.1069 1529,582.5669 C1438.58,644.2069 1310.31,667.4569 1235.87,676.0769 " fill="none" id="Uid-U" style="stroke:#181818;stroke-width:1.0;"/><polygon fill="#000000" points="1512.4381,601.1801,1521.8937,600.1588,1519.4876,594.796,1512.4381,601.1801" style="stroke:#000000;stroke-width:1.0;"/><text fill="#000000" font-family="sans-serif" font-size="13" lengthAdjust="spacing" textLength="50" x="1526" y="603.6338">Identifie</text><text fill="#000000" font-family="sans-serif" font-size="13" lengthAdjust="spacing" textLength="8" x="1566.6366" y="542.139">1</text><text fill="#000000" font-family="sans-serif" font-size="13" lengthAdjust="spacing" textLength="8" x="1243.6542" y="671.5142">1</text></g><!--link Sec to Mac--><g id="link_Sec_Mac"><path codeLine="122" d="M1169.08,855.9969 C1161.26,872.8069 1147.8,900.4669 1134,923.0469 C1128.01,932.8469 1121.13,943.0269 1114.35,952.5769 " fill="none" id="Sec-Mac" style="stroke:#181818;stroke-width:1.0;"/><polygon fill="#000000" points="1144.5349,918.9634,1151.5512,912.5429,1146.4374,909.645,1144.5349,918.9634" style="stroke:#000000;stroke-width:1.0;"/><text fill="#000000" font-family="sans-serif" font-size="13" lengthAdjust="spacing" textLength="47" x="1156" y="919.1138">G&#233;n&#233;re</text><text fill="#000000" font-family="sans-serif" font-size="13" lengthAdjust="spacing" textLength="8" x="1157.4628" y="875.953">1</text><text fill="#000000" font-family="sans-serif" font-size="13" lengthAdjust="spacing" textLength="7" x="1111.7342" y="941.955">*</text></g><!--link Ser to SM--><g id="link_Ser_SM"><path codeLine="124" d="M1475.01,1130.7869 C1430.14,1105.0969 1370,1059.3269 1370,998.4969 C1370,681.0069 1370,681.0069 1370,681.0069 C1370,638.6869 1355.48,592.9869 1341.64,559.0369 " fill="none" id="Ser-SM" style="stroke:#181818;stroke-width:1.0;"/><polygon fill="#000000" points="1376.1358,844.6826,1376.9432,835.2063,1371.219,836.5416,1376.1358,844.6826" style="stroke:#000000;stroke-width:1.0;"/><text fill="#000000" font-family="sans-serif" font-size="13" lengthAdjust="spacing" textLength="31" x="1384" y="844.3138">G&#232;re</text><text fill="#000000" font-family="sans-serif" font-size="13" lengthAdjust="spacing" textLength="8" x="1459.374" y="1123.1713">1</text><text fill="#000000" font-family="sans-serif" font-size="13" lengthAdjust="spacing" textLength="7" x="1337.2164" y="578.4934">*</text></g><!--link Ch to PR--><g id="link_Ch_PR"><path codeLine="125" d="M576,534.5469 C576,567.1369 576,621.0269 576,653.5569 " fill="none" id="Ch-PR" style="stroke:#181818;stroke-width:1.0;"/><polygon fill="#000000" points="581,604.1333,583.9389,595.0882,578.0611,595.0882,581,604.1333" style="stroke:#000000;stroke-width:1.0;"/><text fill="#000000" font-family="sans-serif" font-size="13" lengthAdjust="spacing" textLength="58" x="590" y="603.6338">Construit</text><text fill="#000000" font-family="sans-serif" font-size="13" lengthAdjust="spacing" textLength="8" x="567.175" y="554.0672">1</text><text fill="#000000" font-family="sans-serif" font-size="13" lengthAdjust="spacing" textLength="7" x="568.2344" y="642.7746">*</text></g><!--link Se to Mi--><g id="link_Se_Mi"><path codeLine="127" d="M1359.25,170.0069 C1322.33,191.8969 1273.83,220.6369 1230.32,246.4269 " fill="none" id="Se-Mi" style="stroke:#181818;stroke-width:1.0;"/><polygon fill="#000000" points="1305.6988,211.0127,1314.9783,208.9289,1311.9812,203.8726,1305.6988,211.0127" style="stroke:#000000;stroke-width:1.0;"/><text fill="#000000" font-family="sans-serif" font-size="13" lengthAdjust="spacing" textLength="54" x="1319" y="212.9638">Contient</text><text fill="#000000" font-family="sans-serif" font-size="13" lengthAdjust="spacing" textLength="8" x="1343.4805" y="170.6056">1</text><text fill="#000000" font-family="sans-serif" font-size="13" lengthAdjust="spacing" textLength="8" x="1233.078" y="236.0022">1</text></g><!--link Se to Ser--><g id="link_Se_Ser"><path codeLine="128" d="M1478.86,136.9769 C1582.41,144.6569 1784,176.7869 1784,310.6369 C1784,310.6369 1784,310.6369 1784,998.4969 C1784,1096.6369 1646.22,1134.3869 1570.87,1147.6869 " fill="none" id="Se-Ser" style="stroke:#181818;stroke-width:1.0;"/><polygon fill="#000000" points="1789.4533,687.0527,1791.5601,677.7784,1785.7064,678.3113,1789.4533,687.0527" style="stroke:#000000;stroke-width:1.0;"/><text fill="#000000" font-family="sans-serif" font-size="13" lengthAdjust="spacing" textLength="31" x="1798" y="686.5738">Offre</text><text fill="#000000" font-family="sans-serif" font-size="13" lengthAdjust="spacing" textLength="8" x="1486.6429" y="133.5501">1</text><text fill="#000000" font-family="sans-serif" font-size="13" lengthAdjust="spacing" textLength="7" x="1578.415" y="1142.5535">*</text></g><!--link LN to Ch--><g id="link_LN_Ch"><path codeLine="130" d="M269.84,348.3569 C342.79,385.6769 455.66,443.4169 522.05,477.3769 " fill="none" id="LN-Ch" style="stroke:#181818;stroke-width:1.0;"/><polygon fill="#000000" points="419.4514,417.2204,412.7372,410.4846,410.0603,415.7175,419.4514,417.2204" style="stroke:#000000;stroke-width:1.0;"/><text fill="#000000" font-family="sans-serif" font-size="13" lengthAdjust="spacing" textLength="49" x="424" y="419.4438">Devient</text><text fill="#000000" font-family="sans-serif" font-size="13" lengthAdjust="spacing" textLength="8" x="273.1563" y="368.036">1</text><text fill="#000000" font-family="sans-serif" font-size="13" lengthAdjust="spacing" textLength="7" x="502.4828" y="466.5618">*</text></g><!--link LN to PR--><g id="link_LN_PR"><path codeLine="131" d="M213.59,348.2569 C236.7,404.6869 288.6,515.1169 364,582.5669 C403.02,617.4669 456.54,642.1869 500.05,658.1369 " fill="none" id="LN-PR" style="stroke:#181818;stroke-width:1.0;"/><polygon fill="#000000" points="372.3941,509.7048,368.4122,501.0679,364.0961,505.0579,372.3941,509.7048" style="stroke:#000000;stroke-width:1.0;"/><text fill="#000000" font-family="sans-serif" font-size="13" lengthAdjust="spacing" textLength="30" x="378" y="510.5338">Cr&#233;e</text><text fill="#000000" font-family="sans-serif" font-size="13" lengthAdjust="spacing" textLength="8" x="207.2383" y="367.9188">1</text><text fill="#000000" font-family="sans-serif" font-size="13" lengthAdjust="spacing" textLength="7" x="485.4774" y="652.2203">*</text></g><!--link Ser to Rs--><g id="link_Ser_Rs"><path codeLine="133" d="M1523,1191.9669 C1523,1215.0869 1523,1245.0669 1523,1268.1769 " fill="none" id="Ser-Rs" style="stroke:#181818;stroke-width:1.0;"/><polygon fill="#000000" points="1528,1235.1033,1530.9389,1226.0582,1525.0611,1226.0582,1528,1235.1033" style="stroke:#000000;stroke-width:1.0;"/><text fill="#000000" font-family="sans-serif" font-size="13" lengthAdjust="spacing" textLength="31" x="1537" y="1234.6038">Offre</text><text fill="#000000" font-family="sans-serif" font-size="13" lengthAdjust="spacing" textLength="8" x="1514.3125" y="1211.6478">1</text><text fill="#000000" font-family="sans-serif" font-size="13" lengthAdjust="spacing" textLength="8" x="1514.2875" y="1257.3902">1</text></g><!--link Mi to Ser--><g id="link_Mi_Ser"><path codeLine="134" d="M1337.77,346.7069 C1493.69,377.6369 1677,429.9569 1677,504.9669 C1677,504.9669 1677,504.9669 1677,998.4969 C1677,1059.7169 1616.09,1105.5269 1570.88,1131.1069 " fill="none" id="Mi-Ser" style="stroke:#181818;stroke-width:1.0;"/><polygon fill="#000000" points="1683.4243,769.8161,1683.6648,760.3086,1678.0305,761.983,1683.4243,769.8161" style="stroke:#000000;stroke-width:1.0;"/><text fill="#000000" font-family="sans-serif" font-size="13" lengthAdjust="spacing" textLength="69" x="1691" y="769.5238">Authentifie</text><text fill="#000000" font-family="sans-serif" font-size="13" lengthAdjust="spacing" textLength="8" x="1345.668" y="344.7669">1</text><text fill="#000000" font-family="sans-serif" font-size="13" lengthAdjust="spacing" textLength="7" x="1578.4264" y="1123.5383">*</text></g><!--SRC=[VLPVQniv47_NfnZS5pkN10xASPGGQ5tI2yIv4DTzAULGTiUsoEvgJz8Qp97latmEVx7EI5glPFlw4idpvpSplndDnYbN8SnqkNkbi-oWrBLK3GfXdrNJIYDhA2ffBVmd03x9udbbTDUKKrrfStKrHxF1pbnVmxkRcvltqp_5Yn1hLI9OXmQrsxOOVcFTkYtKM3-XiGGbi76A9AE5HNDRZa1QMAXIxELpB0mwBwUh4FB9EYCB5zFnVi7Bf_ORTAg40EP_MkyF0ORJQYbvkKA8ENklYEL59iQ2j2ms0hY0MZLK4Cpy4ML41CiU_K6o5ouBm9iiPO5z3NEd3GRmUGeUp4dsWT8DfkEXY0cCW-mSq1Xj9eaj0txLpzYCoTnVRZ-VW-DB-3a9FeEBbzhn1CvgsNwFBZ_yUPJrT2sh2fjLP6IwFawQP8owjnotHf4hWVpnVW8FSbjJ6n_ntmwjEy6AsP3rJ3QoZp6VdI1c5ednrcCRJWkNbvTpPrIp8eQ-_uZgbAJWDvMjV5ALSWfjxmo9urHkK3fxxFWDZLfketfSX9EZ1b52RR3_WbIfrPsX96jPIADr0xDueL2zCeaqJ5uOAC_1J9sSl7tg6MjHMUnRDVIYrrcU4aX6S1XH2iMPS_0mHiFOdKD6TBXJ5Gznuf8gFCe5VEpSEg1KLZeuomQG7vv8Ud-dLclNK0_kTHdUnDsz47VtX3J7feoJCyudA8HNDHM-3-zTfeOQWhVDHlE4nFDJfweI3JjbA2d_aNsVgi_2tppdHoqaMHkZn_aHBvxY7gMdnWErlqPI8SSKACFgJSD4o29igJY3_T2IoAfL8rrdzaW07JNkds47lXpM6PViLp9XqBMqQ_YB_h1hkZff4rf5MNyBPmOKueUr83tCCsw753QowfBQ4iSuI775XkNRo3f9FzaWx1hz-iVZ7H_3LwZGD4-D8pgUjewdchyo6QDzOxB-UuY7Hmznr0OHsZRwVGGN5_vWyZ_0DMVhH7ka3W8s-B9xQtPlzBpeFVG6PwD-4DY2tvcWo8bxeftgkjMMt2dWhoq4z-va3hSbVpQN2Y63eJIORBRWLnfj1BMELT6YBvIeTZJdb6fQ2Hr-sL_3mj4sjNYWzD-N_rNECgKWuoIrHIoEigBC3fHfzISDw9-53Fp0_K2xoDB2KF63jdRtMf8svtMHSohOFi7k2TitNZ39AUTSzXNfNqb9x2Kgce9O4v7TASU-sTIfWvhnL3F_NYuvBEt0H1dRz1attZDNzd7DxkqWNpheNGse-HIV69-V]--></g></svg>