<?xml version="1.0" encoding="windows-1252" standalone="no"?>
<svg xmlns="http://www.w3.org/2000/svg" xmlns:xlink="http://www.w3.org/1999/xlink" contentStyleType="text/css" height="1373px" preserveAspectRatio="none" style="width:1888px;height:1373px;background:#FFFFFF;" version="1.1" viewBox="0 0 1888 1373" width="1888px" zoomAndPan="magnify"><defs/><g><text fill="#000000" font-family="sans-serif" font-size="14" font-weight="bold" lengthAdjust="spacing" textLength="156" x="859" y="22.9951">Modèle du domaine</text><!--cluster Serveur--><g id="cluster_Serveur"><path d="M429.5,43.2969 L491.5,43.2969 A3.75,3.75 0 0 1 494,45.7969 L501,65.5938 L1574.5,65.5938 A2.5,2.5 0 0 1 1577,68.0938 L1577,596.7969 A2.5,2.5 0 0 1 1574.5,599.2969 L429.5,599.2969 A2.5,2.5 0 0 1 427,596.7969 L427,45.7969 A2.5,2.5 0 0 1 429.5,43.2969 " fill="none" style="stroke:#000000;stroke-width:1.5;"/><line style="stroke:#000000;stroke-width:1.5;" x1="427" x2="501" y1="65.5938" y2="65.5938"/><text fill="#000000" font-family="sans-serif" font-size="14" font-weight="bold" lengthAdjust="spacing" textLength="61" x="431" y="58.292">Serveur</text></g><!--class Se--><g id="elem_Se"><rect codeLine="20" fill="#FFF4C8" height="80.8594" id="Se" rx="2.5" ry="2.5" style="stroke:#181818;stroke-width:0.5;" width="126" x="1205" y="97.2969"/><ellipse cx="1236.65" cy="117.4297" fill="#ADD1B2" rx="11" ry="11" style="stroke:#181818;stroke-width:1.0;"/><path d="M1238.9938,113.1016 C1238.0563,112.6641 1237.4625,112.5234 1236.5875,112.5234 C1233.9625,112.5234 1231.9625,114.6016 1231.9625,117.3203 L1231.9625,118.4453 C1231.9625,121.0234 1234.0719,122.9141 1236.9625,122.9141 C1238.1813,122.9141 1239.3375,122.6172 1240.0875,122.0703 C1240.6656,121.6641 1240.9938,121.2109 1240.9938,120.8203 C1240.9938,120.3672 1240.6031,119.9766 1240.1344,119.9766 C1239.9156,119.9766 1239.7125,120.0547 1239.525,120.2422 C1239.0719,120.7266 1239.0719,120.7266 1238.8844,120.8203 C1238.4625,121.0859 1237.775,121.2109 1237.0094,121.2109 C1234.9625,121.2109 1233.6656,120.1172 1233.6656,118.4141 L1233.6656,117.3203 C1233.6656,115.5391 1234.9156,114.2266 1236.65,114.2266 C1237.2281,114.2266 1237.8375,114.3828 1238.3063,114.6328 C1238.7906,114.9141 1238.9625,115.1328 1239.0563,115.5391 C1239.1188,115.9453 1239.15,116.0703 1239.2906,116.1953 C1239.4313,116.3359 1239.6656,116.4453 1239.8844,116.4453 C1240.15,116.4453 1240.4156,116.3047 1240.5875,116.0859 C1240.6969,115.9297 1240.7281,115.7422 1240.7281,115.3203 L1240.7281,113.8984 C1240.7281,113.4609 1240.7125,113.3359 1240.6188,113.1797 C1240.4625,112.9141 1240.1813,112.7734 1239.8844,112.7734 C1239.5875,112.7734 1239.3844,112.8672 1239.1656,113.1797 L1238.9938,113.1016 Z " fill="#000000"/><text fill="#000000" font-family="sans-serif" font-size="12" font-style="italic" lengthAdjust="spacing" textLength="61" x="1252.35" y="113.4355">«Serveur»</text><text fill="#000000" font-family="sans-serif" font-size="14" lengthAdjust="spacing" textLength="47" x="1259.35" y="129.2607">Server</text><line style="stroke:#181818;stroke-width:0.5;" x1="1206" x2="1330" y1="137.5625" y2="137.5625"/><rect fill="none" height="6" style="stroke:#C82930;stroke-width:1.0;" width="6" x="1213" y="148.2109"/><text fill="#000000" font-family="sans-serif" font-size="14" lengthAdjust="spacing" textLength="100" x="1225" y="154.5576">minter Minter</text><rect fill="none" height="6" style="stroke:#C82930;stroke-width:1.0;" width="6" x="1213" y="164.5078"/><text fill="#000000" font-family="sans-serif" font-size="14" lengthAdjust="spacing" textLength="98" x="1225" y="170.8545">router Router</text></g><!--class SS--><g id="elem_SS"><rect codeLine="25" fill="#FFF4C8" height="97.1563" id="SS" rx="2.5" ry="2.5" style="stroke:#181818;stroke-width:0.5;" width="338" x="790" y="478.2969"/><ellipse cx="912.75" cy="498.4297" fill="#B4A7E5" rx="11" ry="11" style="stroke:#181818;stroke-width:1.0;"/><path d="M913.7031,495.2109 L915.4219,495.2109 C915.8125,495.2109 916,495.1797 916.125,495.1016 C916.3906,494.9453 916.5313,494.6641 916.5313,494.3672 C916.5313,494.1016 916.4219,493.8359 916.1875,493.6641 C916.0156,493.5547 915.875,493.5234 915.4219,493.5234 L910.2813,493.5234 C909.8438,493.5234 909.7188,493.5391 909.5625,493.6328 C909.3125,493.7891 909.1563,494.0859 909.1563,494.3672 C909.1563,494.6484 909.2969,494.8984 909.5156,495.0703 C909.6719,495.1797 909.8594,495.2109 910.2813,495.2109 L912,495.2109 L912,501.7266 L910.2813,501.7266 C909.8438,501.7266 909.7188,501.7422 909.5625,501.8516 C909.3125,502.0078 909.1563,502.2891 909.1563,502.5859 C909.1563,502.8359 909.2969,503.1016 909.5156,503.2578 C909.6719,503.3828 909.875,503.4297 910.2813,503.4297 L915.4219,503.4297 C916.1719,503.4297 916.5313,503.1484 916.5313,502.5859 C916.5313,502.3047 916.4219,502.0547 916.1875,501.8828 C916.0156,501.7578 915.875,501.7266 915.4219,501.7266 L913.7031,501.7266 L913.7031,495.2109 Z " fill="#000000"/><text fill="#000000" font-family="sans-serif" font-size="12" font-style="italic" lengthAdjust="spacing" textLength="61" x="944.75" y="494.4355">«Serveur»</text><text fill="#000000" font-family="sans-serif" font-size="14" font-style="italic" lengthAdjust="spacing" textLength="84" x="933.25" y="510.2607">SecretStore</text><line style="stroke:#181818;stroke-width:0.5;" x1="791" x2="1127" y1="518.5625" y2="518.5625"/><ellipse cx="801" cy="532.2109" fill="#84BE84" rx="3" ry="3" style="stroke:#038048;stroke-width:1.0;"/><text fill="#000000" font-family="sans-serif" font-size="14" lengthAdjust="spacing" textLength="233" x="810" y="535.5576">Secret(uid UserId) (Secret, error)</text><ellipse cx="801" cy="548.5078" fill="#84BE84" rx="3" ry="3" style="stroke:#038048;stroke-width:1.0;"/><text fill="#000000" font-family="sans-serif" font-size="14" lengthAdjust="spacing" textLength="312" x="810" y="551.8545">StoreToken(id TokenID, token Token) error</text><ellipse cx="801" cy="564.8047" fill="#84BE84" rx="3" ry="3" style="stroke:#038048;stroke-width:1.0;"/><text fill="#000000" font-family="sans-serif" font-size="14" lengthAdjust="spacing" textLength="220" x="810" y="568.1514">Tokens() *map[TokenID]Token</text></g><!--class Ch--><g id="elem_Ch"><rect codeLine="31" fill="#FFF4C8" height="64.5625" id="Ch" rx="2.5" ry="2.5" style="stroke:#181818;stroke-width:0.5;" width="312" x="443" y="494.2969"/><ellipse cx="555.75" cy="514.4297" fill="#B4A7E5" rx="11" ry="11" style="stroke:#181818;stroke-width:1.0;"/><path d="M556.7031,511.2109 L558.4219,511.2109 C558.8125,511.2109 559,511.1797 559.125,511.1016 C559.3906,510.9453 559.5313,510.6641 559.5313,510.3672 C559.5313,510.1016 559.4219,509.8359 559.1875,509.6641 C559.0156,509.5547 558.875,509.5234 558.4219,509.5234 L553.2813,509.5234 C552.8438,509.5234 552.7188,509.5391 552.5625,509.6328 C552.3125,509.7891 552.1563,510.0859 552.1563,510.3672 C552.1563,510.6484 552.2969,510.8984 552.5156,511.0703 C552.6719,511.1797 552.8594,511.2109 553.2813,511.2109 L555,511.2109 L555,517.7266 L553.2813,517.7266 C552.8438,517.7266 552.7188,517.7422 552.5625,517.8516 C552.3125,518.0078 552.1563,518.2891 552.1563,518.5859 C552.1563,518.8359 552.2969,519.1016 552.5156,519.2578 C552.6719,519.3828 552.875,519.4297 553.2813,519.4297 L558.4219,519.4297 C559.1719,519.4297 559.5313,519.1484 559.5313,518.5859 C559.5313,518.3047 559.4219,518.0547 559.1875,517.8828 C559.0156,517.7578 558.875,517.7266 558.4219,517.7266 L556.7031,517.7266 L556.7031,511.2109 Z " fill="#000000"/><text fill="#000000" font-family="sans-serif" font-size="12" font-style="italic" lengthAdjust="spacing" textLength="61" x="584.75" y="510.4355">«Serveur»</text><text fill="#000000" font-family="sans-serif" font-size="14" font-style="italic" lengthAdjust="spacing" textLength="78" x="576.25" y="526.2607">Challenger</text><line style="stroke:#181818;stroke-width:0.5;" x1="444" x2="754" y1="534.5625" y2="534.5625"/><ellipse cx="454" cy="548.2109" fill="#84BE84" rx="3" ry="3" style="stroke:#038048;stroke-width:1.0;"/><text fill="#000000" font-family="sans-serif" font-size="14" lengthAdjust="spacing" textLength="286" x="463" y="551.5576">Challenge(price int64) PaymentRequest</text></g><!--class SM--><g id="elem_SM"><rect codeLine="35" fill="#FFF4C8" height="113.4531" id="SM" rx="2.5" ry="2.5" style="stroke:#181818;stroke-width:0.5;" width="397" x="1163.5" y="470.2969"/><ellipse cx="1299.75" cy="490.4297" fill="#B4A7E5" rx="11" ry="11" style="stroke:#181818;stroke-width:1.0;"/><path d="M1300.7031,487.2109 L1302.4219,487.2109 C1302.8125,487.2109 1303,487.1797 1303.125,487.1016 C1303.3906,486.9453 1303.5313,486.6641 1303.5313,486.3672 C1303.5313,486.1016 1303.4219,485.8359 1303.1875,485.6641 C1303.0156,485.5547 1302.875,485.5234 1302.4219,485.5234 L1297.2813,485.5234 C1296.8438,485.5234 1296.7188,485.5391 1296.5625,485.6328 C1296.3125,485.7891 1296.1563,486.0859 1296.1563,486.3672 C1296.1563,486.6484 1296.2969,486.8984 1296.5156,487.0703 C1296.6719,487.1797 1296.8594,487.2109 1297.2813,487.2109 L1299,487.2109 L1299,493.7266 L1297.2813,493.7266 C1296.8438,493.7266 1296.7188,493.7422 1296.5625,493.8516 C1296.3125,494.0078 1296.1563,494.2891 1296.1563,494.5859 C1296.1563,494.8359 1296.2969,495.1016 1296.5156,495.2578 C1296.6719,495.3828 1296.875,495.4297 1297.2813,495.4297 L1302.4219,495.4297 C1303.1719,495.4297 1303.5313,495.1484 1303.5313,494.5859 C1303.5313,494.3047 1303.4219,494.0547 1303.1875,493.8828 C1303.0156,493.7578 1302.875,493.7266 1302.4219,493.7266 L1300.7031,493.7266 L1300.7031,487.2109 Z " fill="#000000"/><text fill="#000000" font-family="sans-serif" font-size="12" font-style="italic" lengthAdjust="spacing" textLength="61" x="1347.75" y="486.4355">«Serveur»</text><text fill="#000000" font-family="sans-serif" font-size="14" font-style="italic" lengthAdjust="spacing" textLength="116" x="1320.25" y="502.2607">ServiceManager</text><line style="stroke:#181818;stroke-width:0.5;" x1="1164.5" x2="1559.5" y1="510.5625" y2="510.5625"/><ellipse cx="1174.5" cy="524.2109" fill="#84BE84" rx="3" ry="3" style="stroke:#038048;stroke-width:1.0;"/><text fill="#000000" font-family="sans-serif" font-size="14" lengthAdjust="spacing" textLength="305" x="1183.5" y="527.5576">Service(services ...String) ([]Service, error)</text><ellipse cx="1174.5" cy="540.5078" fill="#84BE84" rx="3" ry="3" style="stroke:#038048;stroke-width:1.0;"/><text fill="#000000" font-family="sans-serif" font-size="14" lengthAdjust="spacing" textLength="319" x="1183.5" y="543.8545">Capabilities(service String) ([]Caveats, error)</text><ellipse cx="1174.5" cy="556.8047" fill="#84BE84" rx="3" ry="3" style="stroke:#038048;stroke-width:1.0;"/><text fill="#000000" font-family="sans-serif" font-size="14" lengthAdjust="spacing" textLength="274" x="1183.5" y="560.1514">VerifyCaveats(caveats ...Caveat) error</text><ellipse cx="1174.5" cy="573.1016" fill="#84BE84" rx="3" ry="3" style="stroke:#038048;stroke-width:1.0;"/><text fill="#000000" font-family="sans-serif" font-size="14" lengthAdjust="spacing" textLength="371" x="1183.5" y="576.4482">GetResource(macaroon Macaroon) (Resource, error)</text></g><!--class Mi--><g id="elem_Mi"><rect codeLine="42" fill="#FFF4C8" height="137.75" id="Mi" rx="2.5" ry="2.5" style="stroke:#181818;stroke-width:0.5;" width="447" x="924.5" y="255.2969"/><ellipse cx="1115.25" cy="275.4297" fill="#ADD1B2" rx="11" ry="11" style="stroke:#181818;stroke-width:1.0;"/><path d="M1117.5938,271.1016 C1116.6563,270.6641 1116.0625,270.5234 1115.1875,270.5234 C1112.5625,270.5234 1110.5625,272.6016 1110.5625,275.3203 L1110.5625,276.4453 C1110.5625,279.0234 1112.6719,280.9141 1115.5625,280.9141 C1116.7813,280.9141 1117.9375,280.6172 1118.6875,280.0703 C1119.2656,279.6641 1119.5938,279.2109 1119.5938,278.8203 C1119.5938,278.3672 1119.2031,277.9766 1118.7344,277.9766 C1118.5156,277.9766 1118.3125,278.0547 1118.125,278.2422 C1117.6719,278.7266 1117.6719,278.7266 1117.4844,278.8203 C1117.0625,279.0859 1116.375,279.2109 1115.6094,279.2109 C1113.5625,279.2109 1112.2656,278.1172 1112.2656,276.4141 L1112.2656,275.3203 C1112.2656,273.5391 1113.5156,272.2266 1115.25,272.2266 C1115.8281,272.2266 1116.4375,272.3828 1116.9063,272.6328 C1117.3906,272.9141 1117.5625,273.1328 1117.6563,273.5391 C1117.7188,273.9453 1117.75,274.0703 1117.8906,274.1953 C1118.0313,274.3359 1118.2656,274.4453 1118.4844,274.4453 C1118.75,274.4453 1119.0156,274.3047 1119.1875,274.0859 C1119.2969,273.9297 1119.3281,273.7422 1119.3281,273.3203 L1119.3281,271.8984 C1119.3281,271.4609 1119.3125,271.3359 1119.2188,271.1797 C1119.0625,270.9141 1118.7813,270.7734 1118.4844,270.7734 C1118.1875,270.7734 1117.9844,270.8672 1117.7656,271.1797 L1117.5938,271.1016 Z " fill="#000000"/><text fill="#000000" font-family="sans-serif" font-size="12" font-style="italic" lengthAdjust="spacing" textLength="61" x="1133.75" y="271.4355">«Serveur»</text><text fill="#000000" font-family="sans-serif" font-size="14" lengthAdjust="spacing" textLength="47" x="1140.75" y="287.2607">Minter</text><line style="stroke:#181818;stroke-width:0.5;" x1="925.5" x2="1370.5" y1="295.5625" y2="295.5625"/><rect fill="none" height="6" style="stroke:#C82930;stroke-width:1.0;" width="6" x="932.5" y="306.2109"/><text fill="#000000" font-family="sans-serif" font-size="14" lengthAdjust="spacing" textLength="169" x="944.5" y="312.5576">service ServiceManager</text><rect fill="none" height="6" style="stroke:#C82930;stroke-width:1.0;" width="6" x="932.5" y="322.5078"/><text fill="#000000" font-family="sans-serif" font-size="14" lengthAdjust="spacing" textLength="156" x="944.5" y="328.8545">challenger Challenger</text><rect fill="none" height="6" style="stroke:#C82930;stroke-width:1.0;" width="6" x="932.5" y="338.8047"/><text fill="#000000" font-family="sans-serif" font-size="14" lengthAdjust="spacing" textLength="130" x="944.5" y="345.1514">store SecretStore</text><line style="stroke:#181818;stroke-width:0.5;" x1="925.5" x2="1370.5" y1="352.4531" y2="352.4531"/><ellipse cx="935.5" cy="366.1016" fill="#84BE84" rx="3" ry="3" style="stroke:#038048;stroke-width:1.0;"/><text fill="#000000" font-family="sans-serif" font-size="14" lengthAdjust="spacing" textLength="421" x="944.5" y="369.4482">MintToken(uid UserId, services ...Service) (PreToken, error)</text><rect fill="#F24D5C" height="6" style="stroke:#C82930;stroke-width:1.0;" width="6" x="932.5" y="379.3984"/><text fill="#000000" font-family="sans-serif" font-size="14" lengthAdjust="spacing" textLength="211" x="944.5" y="385.7451">AuthToken(lsat *Token) error</text></g><!--class Uid--><g id="elem_Uid"><rect codeLine="10" fill="#F1F1F1" height="32" id="Uid" rx="2.5" ry="2.5" style="stroke:#181818;stroke-width:0.5;" width="76" x="1596" y="510.7969"/><ellipse cx="1611" cy="526.7969" fill="#ADD1B2" rx="11" ry="11" style="stroke:#181818;stroke-width:1.0;"/><path d="M1609.7969,527.6719 L1611.25,527.6719 L1611.25,527.7813 C1611.25,528.1875 1611.2813,528.3438 1611.3594,528.5 C1611.5156,528.75 1611.7969,528.9063 1612.0938,528.9063 C1612.3438,528.9063 1612.6094,528.7656 1612.7656,528.5469 C1612.8906,528.3906 1612.9219,528.2344 1612.9219,527.7813 L1612.9219,525.8594 C1612.9219,525.7031 1612.9219,525.6563 1612.9063,525.5 C1612.8438,525.0313 1612.5313,524.7188 1612.0781,524.7188 C1611.8281,524.7188 1611.5625,524.8594 1611.3906,525.0781 C1611.2813,525.25 1611.25,525.4063 1611.25,525.8594 L1611.25,525.9844 L1609.7969,525.9844 L1609.7969,523.5781 L1613.7813,523.5781 L1613.7813,524.4375 C1613.7813,524.8438 1613.8125,525.0156 1613.8906,525.1719 C1614.0625,525.4219 1614.3438,525.5781 1614.625,525.5781 C1614.8906,525.5781 1615.1563,525.4375 1615.3281,525.2188 C1615.4375,525.0469 1615.4688,524.9063 1615.4688,524.4375 L1615.4688,521.8906 L1607.8438,521.8906 C1607.4063,521.8906 1607.2813,521.9063 1607.125,522 C1606.875,522.1563 1606.7188,522.4531 1606.7188,522.7344 C1606.7188,523.0156 1606.8594,523.2656 1607.0781,523.4375 C1607.2344,523.5469 1607.4219,523.5781 1607.8438,523.5781 L1608.0938,523.5781 L1608.0938,530.0938 L1607.8438,530.0938 C1607.4375,530.0938 1607.2813,530.1094 1607.125,530.2188 C1606.875,530.3906 1606.7188,530.6563 1606.7188,530.9531 C1606.7188,531.2188 1606.8594,531.4688 1607.0781,531.625 C1607.2188,531.75 1607.4531,531.7969 1607.8438,531.7969 L1615.8438,531.7969 L1615.8438,529.2188 C1615.8438,528.7813 1615.8125,528.6406 1615.7344,528.4844 C1615.5625,528.2344 1615.2813,528.0781 1615,528.0781 C1614.7344,528.0781 1614.4688,528.1875 1614.2969,528.4375 C1614.1875,528.5938 1614.1563,528.7344 1614.1563,529.2188 L1614.1563,530.0938 L1609.7969,530.0938 L1609.7969,527.6719 Z " fill="#000000"/><text fill="#000000" font-family="sans-serif" font-size="14" lengthAdjust="spacing" textLength="44" x="1625" y="531.6436">UserId</text></g><!--class Sec--><g id="elem_Sec"><rect codeLine="12" fill="#F1F1F1" height="32" id="Sec" rx="2.5" ry="2.5" style="stroke:#181818;stroke-width:0.5;" width="80" x="1176" y="848.7969"/><ellipse cx="1191" cy="864.7969" fill="#ADD1B2" rx="11" ry="11" style="stroke:#181818;stroke-width:1.0;"/><path d="M1189.7969,865.6719 L1191.25,865.6719 L1191.25,865.7813 C1191.25,866.1875 1191.2813,866.3438 1191.3594,866.5 C1191.5156,866.75 1191.7969,866.9063 1192.0938,866.9063 C1192.3438,866.9063 1192.6094,866.7656 1192.7656,866.5469 C1192.8906,866.3906 1192.9219,866.2344 1192.9219,865.7813 L1192.9219,863.8594 C1192.9219,863.7031 1192.9219,863.6563 1192.9063,863.5 C1192.8438,863.0313 1192.5313,862.7188 1192.0781,862.7188 C1191.8281,862.7188 1191.5625,862.8594 1191.3906,863.0781 C1191.2813,863.25 1191.25,863.4063 1191.25,863.8594 L1191.25,863.9844 L1189.7969,863.9844 L1189.7969,861.5781 L1193.7813,861.5781 L1193.7813,862.4375 C1193.7813,862.8438 1193.8125,863.0156 1193.8906,863.1719 C1194.0625,863.4219 1194.3438,863.5781 1194.625,863.5781 C1194.8906,863.5781 1195.1563,863.4375 1195.3281,863.2188 C1195.4375,863.0469 1195.4688,862.9063 1195.4688,862.4375 L1195.4688,859.8906 L1187.8438,859.8906 C1187.4063,859.8906 1187.2813,859.9063 1187.125,860 C1186.875,860.1563 1186.7188,860.4531 1186.7188,860.7344 C1186.7188,861.0156 1186.8594,861.2656 1187.0781,861.4375 C1187.2344,861.5469 1187.4219,861.5781 1187.8438,861.5781 L1188.0938,861.5781 L1188.0938,868.0938 L1187.8438,868.0938 C1187.4375,868.0938 1187.2813,868.1094 1187.125,868.2188 C1186.875,868.3906 1186.7188,868.6563 1186.7188,868.9531 C1186.7188,869.2188 1186.8594,869.4688 1187.0781,869.625 C1187.2188,869.75 1187.4531,869.7969 1187.8438,869.7969 L1195.8438,869.7969 L1195.8438,867.2188 C1195.8438,866.7813 1195.8125,866.6406 1195.7344,866.4844 C1195.5625,866.2344 1195.2813,866.0781 1195,866.0781 C1194.7344,866.0781 1194.4688,866.1875 1194.2969,866.4375 C1194.1875,866.5938 1194.1563,866.7344 1194.1563,867.2188 L1194.1563,868.0938 L1189.7969,868.0938 L1189.7969,865.6719 Z " fill="#000000"/><text fill="#000000" font-family="sans-serif" font-size="14" lengthAdjust="spacing" textLength="48" x="1205" y="869.6436">Secret</text></g><!--class U--><g id="elem_U"><rect codeLine="14" fill="#F1F1F1" height="72.5938" id="U" rx="2.5" ry="2.5" style="stroke:#181818;stroke-width:0.5;" width="124" x="1154" y="670.2969"/><ellipse cx="1196" cy="686.2969" fill="#A9DCDF" rx="11" ry="11" style="stroke:#181818;stroke-width:1.0;"/><path d="M1198.0781,688.1094 L1198.4688,689.0938 L1198.0781,689.0938 C1197.625,689.0938 1197.5156,689.1094 1197.3594,689.2188 C1197.1094,689.375 1196.9531,689.6563 1196.9531,689.9531 C1196.9531,690.2188 1197.0938,690.4688 1197.3125,690.625 C1197.4531,690.75 1197.6563,690.7969 1198.0781,690.7969 L1200.4375,690.7969 C1200.7969,690.7969 1201.0156,690.7656 1201.1563,690.6719 C1201.4063,690.5313 1201.5625,690.2344 1201.5625,689.9531 C1201.5625,689.6719 1201.4219,689.4219 1201.2031,689.2656 C1201.0313,689.125 1200.875,689.0938 1200.4063,689.0938 L1197.0156,680.8906 L1193.3438,680.8906 C1192.8906,680.8906 1192.7656,680.9063 1192.6094,681 C1192.3594,681.1719 1192.2031,681.4531 1192.2031,681.7344 C1192.2031,682.0156 1192.3438,682.2656 1192.5625,682.4375 C1192.7344,682.5469 1192.9063,682.5781 1193.3438,682.5781 L1194.4219,682.5781 L1191.7813,689.0938 C1191.3594,689.0938 1191.2031,689.1094 1191.0469,689.2188 C1190.7969,689.375 1190.6406,689.6563 1190.6406,689.9531 C1190.6406,690.5156 1191.0156,690.7969 1191.7656,690.7969 L1194.0313,690.7969 C1194.3906,690.7969 1194.6094,690.7656 1194.7344,690.6719 C1195,690.5313 1195.1406,690.2344 1195.1406,689.9531 C1195.1406,689.6719 1195.0156,689.4219 1194.7969,689.25 C1194.625,689.125 1194.4844,689.0938 1194.0313,689.0938 L1193.6406,689.0938 L1194.0313,688.1094 L1198.0781,688.1094 Z M1197.375,686.4063 L1194.7031,686.4063 L1196.0469,683.1406 L1197.375,686.4063 Z " fill="#000000"/><text fill="#000000" font-family="sans-serif" font-size="14" font-style="italic" lengthAdjust="spacing" textLength="32" x="1216" y="691.1436">User</text><line style="stroke:#181818;stroke-width:0.5;" x1="1155" x2="1277" y1="702.2969" y2="702.2969"/><ellipse cx="1165" cy="715.9453" fill="none" rx="3" ry="3" style="stroke:#038048;stroke-width:1.0;"/><text fill="#000000" font-family="sans-serif" font-size="14" lengthAdjust="spacing" textLength="69" x="1174" y="719.292">uid UserId</text><ellipse cx="1165" cy="732.2422" fill="none" rx="3" ry="3" style="stroke:#038048;stroke-width:1.0;"/><text fill="#000000" font-family="sans-serif" font-size="14" lengthAdjust="spacing" textLength="98" x="1174" y="735.5889">secret Secret</text></g><!--class LN--><g id="elem_LN"><rect codeLine="54" fill="#F1F1F1" height="72.5938" id="LN" rx="2.5" ry="2.5" style="stroke:#181818;stroke-width:0.5;" width="404" x="7" y="287.7969"/><ellipse cx="153.25" cy="303.7969" fill="#B4A7E5" rx="11" ry="11" style="stroke:#181818;stroke-width:1.0;"/><path d="M154.2031,300.5781 L155.9219,300.5781 C156.3125,300.5781 156.5,300.5469 156.625,300.4688 C156.8906,300.3125 157.0313,300.0313 157.0313,299.7344 C157.0313,299.4688 156.9219,299.2031 156.6875,299.0313 C156.5156,298.9219 156.375,298.8906 155.9219,298.8906 L150.7813,298.8906 C150.3438,298.8906 150.2188,298.9063 150.0625,299 C149.8125,299.1563 149.6563,299.4531 149.6563,299.7344 C149.6563,300.0156 149.7969,300.2656 150.0156,300.4375 C150.1719,300.5469 150.3594,300.5781 150.7813,300.5781 L152.5,300.5781 L152.5,307.0938 L150.7813,307.0938 C150.3438,307.0938 150.2188,307.1094 150.0625,307.2188 C149.8125,307.375 149.6563,307.6563 149.6563,307.9531 C149.6563,308.2031 149.7969,308.4688 150.0156,308.625 C150.1719,308.75 150.375,308.7969 150.7813,308.7969 L155.9219,308.7969 C156.6719,308.7969 157.0313,308.5156 157.0313,307.9531 C157.0313,307.6719 156.9219,307.4219 156.6875,307.25 C156.5156,307.125 156.375,307.0938 155.9219,307.0938 L154.2031,307.0938 L154.2031,300.5781 Z " fill="#000000"/><text fill="#000000" font-family="sans-serif" font-size="14" font-style="italic" lengthAdjust="spacing" textLength="103" x="173.75" y="308.6436">LightningNode</text><line style="stroke:#181818;stroke-width:0.5;" x1="8" x2="410" y1="319.7969" y2="319.7969"/><text fill="#000000" font-family="sans-serif" font-size="14" lengthAdjust="spacing" textLength="359" x="13" y="336.792">SendPayment(PaymentRequest) (Preimage, error)</text><text fill="#000000" font-family="sans-serif" font-size="14" lengthAdjust="spacing" textLength="392" x="13" y="353.0889">CreateInvoice(InvoiceBuilder) (PaymentRequest, error)</text></g><!--class Token--><g id="elem_Token"><rect codeLine="59" fill="#F1F1F1" height="72.5938" id="Token" rx="2.5" ry="2.5" style="stroke:#181818;stroke-width:0.5;" width="156" x="821" y="1294.2969"/><ellipse cx="872.25" cy="1310.2969" fill="#ADD1B2" rx="11" ry="11" style="stroke:#181818;stroke-width:1.0;"/><path d="M874.5938,1305.9688 C873.6563,1305.5313 873.0625,1305.3906 872.1875,1305.3906 C869.5625,1305.3906 867.5625,1307.4688 867.5625,1310.1875 L867.5625,1311.3125 C867.5625,1313.8906 869.6719,1315.7813 872.5625,1315.7813 C873.7813,1315.7813 874.9375,1315.4844 875.6875,1314.9375 C876.2656,1314.5313 876.5938,1314.0781 876.5938,1313.6875 C876.5938,1313.2344 876.2031,1312.8438 875.7344,1312.8438 C875.5156,1312.8438 875.3125,1312.9219 875.125,1313.1094 C874.6719,1313.5938 874.6719,1313.5938 874.4844,1313.6875 C874.0625,1313.9531 873.375,1314.0781 872.6094,1314.0781 C870.5625,1314.0781 869.2656,1312.9844 869.2656,1311.2813 L869.2656,1310.1875 C869.2656,1308.4063 870.5156,1307.0938 872.25,1307.0938 C872.8281,1307.0938 873.4375,1307.25 873.9063,1307.5 C874.3906,1307.7813 874.5625,1308 874.6563,1308.4063 C874.7188,1308.8125 874.75,1308.9375 874.8906,1309.0625 C875.0313,1309.2031 875.2656,1309.3125 875.4844,1309.3125 C875.75,1309.3125 876.0156,1309.1719 876.1875,1308.9531 C876.2969,1308.7969 876.3281,1308.6094 876.3281,1308.1875 L876.3281,1306.7656 C876.3281,1306.3281 876.3125,1306.2031 876.2188,1306.0469 C876.0625,1305.7813 875.7813,1305.6406 875.4844,1305.6406 C875.1875,1305.6406 874.9844,1305.7344 874.7656,1306.0469 L874.5938,1305.9688 Z " fill="#000000"/><text fill="#000000" font-family="sans-serif" font-size="14" lengthAdjust="spacing" textLength="45" x="892.75" y="1315.1436">Token</text><line style="stroke:#181818;stroke-width:0.5;" x1="822" x2="976" y1="1326.2969" y2="1326.2969"/><text fill="#000000" font-family="sans-serif" font-size="14" lengthAdjust="spacing" textLength="144" x="827" y="1343.292">macaroon Macaroon</text><text fill="#000000" font-family="sans-serif" font-size="14" lengthAdjust="spacing" textLength="117" x="827" y="1359.5889">preimage String</text></g><!--class pToken--><g id="elem_pToken"><rect codeLine="64" fill="#F1F1F1" height="72.5938" id="pToken" rx="2.5" ry="2.5" style="stroke:#181818;stroke-width:0.5;" width="156" x="576" y="1144.2969"/><ellipse cx="615.75" cy="1160.2969" fill="#ADD1B2" rx="11" ry="11" style="stroke:#181818;stroke-width:1.0;"/><path d="M618.0938,1155.9688 C617.1563,1155.5313 616.5625,1155.3906 615.6875,1155.3906 C613.0625,1155.3906 611.0625,1157.4688 611.0625,1160.1875 L611.0625,1161.3125 C611.0625,1163.8906 613.1719,1165.7813 616.0625,1165.7813 C617.2813,1165.7813 618.4375,1165.4844 619.1875,1164.9375 C619.7656,1164.5313 620.0938,1164.0781 620.0938,1163.6875 C620.0938,1163.2344 619.7031,1162.8438 619.2344,1162.8438 C619.0156,1162.8438 618.8125,1162.9219 618.625,1163.1094 C618.1719,1163.5938 618.1719,1163.5938 617.9844,1163.6875 C617.5625,1163.9531 616.875,1164.0781 616.1094,1164.0781 C614.0625,1164.0781 612.7656,1162.9844 612.7656,1161.2813 L612.7656,1160.1875 C612.7656,1158.4063 614.0156,1157.0938 615.75,1157.0938 C616.3281,1157.0938 616.9375,1157.25 617.4063,1157.5 C617.8906,1157.7813 618.0625,1158 618.1563,1158.4063 C618.2188,1158.8125 618.25,1158.9375 618.3906,1159.0625 C618.5313,1159.2031 618.7656,1159.3125 618.9844,1159.3125 C619.25,1159.3125 619.5156,1159.1719 619.6875,1158.9531 C619.7969,1158.7969 619.8281,1158.6094 619.8281,1158.1875 L619.8281,1156.7656 C619.8281,1156.3281 619.8125,1156.2031 619.7188,1156.0469 C619.5625,1155.7813 619.2813,1155.6406 618.9844,1155.6406 C618.6875,1155.6406 618.4844,1155.7344 618.2656,1156.0469 L618.0938,1155.9688 Z " fill="#000000"/><text fill="#000000" font-family="sans-serif" font-size="14" lengthAdjust="spacing" textLength="69" x="635.25" y="1165.1436">PreToken</text><line style="stroke:#181818;stroke-width:0.5;" x1="577" x2="731" y1="1176.2969" y2="1176.2969"/><text fill="#000000" font-family="sans-serif" font-size="14" lengthAdjust="spacing" textLength="144" x="582" y="1193.292">macaroon Macaroon</text><text fill="#000000" font-family="sans-serif" font-size="14" lengthAdjust="spacing" textLength="99" x="582" y="1209.5889">invoice String</text></g><!--class Mac--><g id="elem_Mac"><rect codeLine="70" fill="#F1F1F1" height="88.8906" id="Mac" rx="2.5" ry="2.5" style="stroke:#181818;stroke-width:0.5;" width="131" x="1050.5" y="978.2969"/><ellipse cx="1079" cy="994.2969" fill="#ADD1B2" rx="11" ry="11" style="stroke:#181818;stroke-width:1.0;"/><path d="M1081.3438,989.9688 C1080.4063,989.5313 1079.8125,989.3906 1078.9375,989.3906 C1076.3125,989.3906 1074.3125,991.4688 1074.3125,994.1875 L1074.3125,995.3125 C1074.3125,997.8906 1076.4219,999.7813 1079.3125,999.7813 C1080.5313,999.7813 1081.6875,999.4844 1082.4375,998.9375 C1083.0156,998.5313 1083.3438,998.0781 1083.3438,997.6875 C1083.3438,997.2344 1082.9531,996.8438 1082.4844,996.8438 C1082.2656,996.8438 1082.0625,996.9219 1081.875,997.1094 C1081.4219,997.5938 1081.4219,997.5938 1081.2344,997.6875 C1080.8125,997.9531 1080.125,998.0781 1079.3594,998.0781 C1077.3125,998.0781 1076.0156,996.9844 1076.0156,995.2813 L1076.0156,994.1875 C1076.0156,992.4063 1077.2656,991.0938 1079,991.0938 C1079.5781,991.0938 1080.1875,991.25 1080.6563,991.5 C1081.1406,991.7813 1081.3125,992 1081.4063,992.4063 C1081.4688,992.8125 1081.5,992.9375 1081.6406,993.0625 C1081.7813,993.2031 1082.0156,993.3125 1082.2344,993.3125 C1082.5,993.3125 1082.7656,993.1719 1082.9375,992.9531 C1083.0469,992.7969 1083.0781,992.6094 1083.0781,992.1875 L1083.0781,990.7656 C1083.0781,990.3281 1083.0625,990.2031 1082.9688,990.0469 C1082.8125,989.7813 1082.5313,989.6406 1082.2344,989.6406 C1081.9375,989.6406 1081.7344,989.7344 1081.5156,990.0469 L1081.3438,989.9688 Z " fill="#000000"/><text fill="#000000" font-family="sans-serif" font-size="14" lengthAdjust="spacing" textLength="69" x="1096" y="999.1436">Macaroon</text><line style="stroke:#181818;stroke-width:0.5;" x1="1051.5" x2="1180.5" y1="1010.2969" y2="1010.2969"/><text fill="#000000" font-family="sans-serif" font-size="14" lengthAdjust="spacing" textLength="119" x="1056.5" y="1027.292">caveats []Caveat</text><text fill="#000000" font-family="sans-serif" font-size="14" lengthAdjust="spacing" textLength="115" x="1056.5" y="1043.5889">signature String</text><text fill="#000000" font-family="sans-serif" font-size="14" lengthAdjust="spacing" textLength="98" x="1056.5" y="1059.8857">user_id UserId</text></g><!--class Tid--><g id="elem_Tid"><rect codeLine="76" fill="#F1F1F1" height="88.8906" id="Tid" rx="2.5" ry="2.5" style="stroke:#181818;stroke-width:0.5;" width="122" x="782" y="662.2969"/><ellipse cx="811.4" cy="678.2969" fill="#ADD1B2" rx="11" ry="11" style="stroke:#181818;stroke-width:1.0;"/><path d="M813.7438,673.9688 C812.8063,673.5313 812.2125,673.3906 811.3375,673.3906 C808.7125,673.3906 806.7125,675.4688 806.7125,678.1875 L806.7125,679.3125 C806.7125,681.8906 808.8219,683.7813 811.7125,683.7813 C812.9313,683.7813 814.0875,683.4844 814.8375,682.9375 C815.4156,682.5313 815.7438,682.0781 815.7438,681.6875 C815.7438,681.2344 815.3531,680.8438 814.8844,680.8438 C814.6656,680.8438 814.4625,680.9219 814.275,681.1094 C813.8219,681.5938 813.8219,681.5938 813.6344,681.6875 C813.2125,681.9531 812.525,682.0781 811.7594,682.0781 C809.7125,682.0781 808.4156,680.9844 808.4156,679.2813 L808.4156,678.1875 C808.4156,676.4063 809.6656,675.0938 811.4,675.0938 C811.9781,675.0938 812.5875,675.25 813.0563,675.5 C813.5406,675.7813 813.7125,676 813.8063,676.4063 C813.8688,676.8125 813.9,676.9375 814.0406,677.0625 C814.1813,677.2031 814.4156,677.3125 814.6344,677.3125 C814.9,677.3125 815.1656,677.1719 815.3375,676.9531 C815.4469,676.7969 815.4781,676.6094 815.4781,676.1875 L815.4781,674.7656 C815.4781,674.3281 815.4625,674.2031 815.3688,674.0469 C815.2125,673.7813 814.9313,673.6406 814.6344,673.6406 C814.3375,673.6406 814.1344,673.7344 813.9156,674.0469 L813.7438,673.9688 Z " fill="#000000"/><text fill="#000000" font-family="sans-serif" font-size="14" lengthAdjust="spacing" textLength="58" x="828.6" y="683.1436">TokenId</text><line style="stroke:#181818;stroke-width:0.5;" x1="783" x2="903" y1="694.2969" y2="694.2969"/><text fill="#000000" font-family="sans-serif" font-size="14" lengthAdjust="spacing" textLength="71" x="788" y="711.292">hash Hash</text><text fill="#000000" font-family="sans-serif" font-size="14" lengthAdjust="spacing" textLength="69" x="788" y="727.5889">uid UserId</text><text fill="#000000" font-family="sans-serif" font-size="14" lengthAdjust="spacing" textLength="110" x="788" y="743.8857">version Version</text></g><!--class Ca--><g id="elem_Ca"><rect codeLine="82" fill="#F1F1F1" height="72.5938" id="Ca" rx="2.5" ry="2.5" style="stroke:#181818;stroke-width:0.5;" width="97" x="1043.5" y="828.2969"/><ellipse cx="1065.25" cy="844.2969" fill="#ADD1B2" rx="11" ry="11" style="stroke:#181818;stroke-width:1.0;"/><path d="M1067.5938,839.9688 C1066.6563,839.5313 1066.0625,839.3906 1065.1875,839.3906 C1062.5625,839.3906 1060.5625,841.4688 1060.5625,844.1875 L1060.5625,845.3125 C1060.5625,847.8906 1062.6719,849.7813 1065.5625,849.7813 C1066.7813,849.7813 1067.9375,849.4844 1068.6875,848.9375 C1069.2656,848.5313 1069.5938,848.0781 1069.5938,847.6875 C1069.5938,847.2344 1069.2031,846.8438 1068.7344,846.8438 C1068.5156,846.8438 1068.3125,846.9219 1068.125,847.1094 C1067.6719,847.5938 1067.6719,847.5938 1067.4844,847.6875 C1067.0625,847.9531 1066.375,848.0781 1065.6094,848.0781 C1063.5625,848.0781 1062.2656,846.9844 1062.2656,845.2813 L1062.2656,844.1875 C1062.2656,842.4063 1063.5156,841.0938 1065.25,841.0938 C1065.8281,841.0938 1066.4375,841.25 1066.9063,841.5 C1067.3906,841.7813 1067.5625,842 1067.6563,842.4063 C1067.7188,842.8125 1067.75,842.9375 1067.8906,843.0625 C1068.0313,843.2031 1068.2656,843.3125 1068.4844,843.3125 C1068.75,843.3125 1069.0156,843.1719 1069.1875,842.9531 C1069.2969,842.7969 1069.3281,842.6094 1069.3281,842.1875 L1069.3281,840.7656 C1069.3281,840.3281 1069.3125,840.2031 1069.2188,840.0469 C1069.0625,839.7813 1068.7813,839.6406 1068.4844,839.6406 C1068.1875,839.6406 1067.9844,839.7344 1067.7656,840.0469 L1067.5938,839.9688 Z " fill="#000000"/><text fill="#000000" font-family="sans-serif" font-size="14" lengthAdjust="spacing" textLength="50" x="1080.75" y="849.1436">Caveat</text><line style="stroke:#181818;stroke-width:0.5;" x1="1044.5" x2="1139.5" y1="860.2969" y2="860.2969"/><text fill="#000000" font-family="sans-serif" font-size="14" lengthAdjust="spacing" textLength="74" x="1049.5" y="877.292">key String</text><text fill="#000000" font-family="sans-serif" font-size="14" lengthAdjust="spacing" textLength="85" x="1049.5" y="893.5889">value String</text></g><!--class Ser--><g id="elem_Ser"><rect codeLine="88" fill="#F1F1F1" height="72.5938" id="Ser" rx="2.5" ry="2.5" style="stroke:#181818;stroke-width:0.5;" width="100" x="1547" y="1144.2969"/><ellipse cx="1568.75" cy="1160.2969" fill="#ADD1B2" rx="11" ry="11" style="stroke:#181818;stroke-width:1.0;"/><path d="M1571.0938,1155.9688 C1570.1563,1155.5313 1569.5625,1155.3906 1568.6875,1155.3906 C1566.0625,1155.3906 1564.0625,1157.4688 1564.0625,1160.1875 L1564.0625,1161.3125 C1564.0625,1163.8906 1566.1719,1165.7813 1569.0625,1165.7813 C1570.2813,1165.7813 1571.4375,1165.4844 1572.1875,1164.9375 C1572.7656,1164.5313 1573.0938,1164.0781 1573.0938,1163.6875 C1573.0938,1163.2344 1572.7031,1162.8438 1572.2344,1162.8438 C1572.0156,1162.8438 1571.8125,1162.9219 1571.625,1163.1094 C1571.1719,1163.5938 1571.1719,1163.5938 1570.9844,1163.6875 C1570.5625,1163.9531 1569.875,1164.0781 1569.1094,1164.0781 C1567.0625,1164.0781 1565.7656,1162.9844 1565.7656,1161.2813 L1565.7656,1160.1875 C1565.7656,1158.4063 1567.0156,1157.0938 1568.75,1157.0938 C1569.3281,1157.0938 1569.9375,1157.25 1570.4063,1157.5 C1570.8906,1157.7813 1571.0625,1158 1571.1563,1158.4063 C1571.2188,1158.8125 1571.25,1158.9375 1571.3906,1159.0625 C1571.5313,1159.2031 1571.7656,1159.3125 1571.9844,1159.3125 C1572.25,1159.3125 1572.5156,1159.1719 1572.6875,1158.9531 C1572.7969,1158.7969 1572.8281,1158.6094 1572.8281,1158.1875 L1572.8281,1156.7656 C1572.8281,1156.3281 1572.8125,1156.2031 1572.7188,1156.0469 C1572.5625,1155.7813 1572.2813,1155.6406 1571.9844,1155.6406 C1571.6875,1155.6406 1571.4844,1155.7344 1571.2656,1156.0469 L1571.0938,1155.9688 Z " fill="#000000"/><text fill="#000000" font-family="sans-serif" font-size="14" lengthAdjust="spacing" textLength="53" x="1584.25" y="1165.1436">Service</text><line style="stroke:#181818;stroke-width:0.5;" x1="1548" x2="1646" y1="1176.2969" y2="1176.2969"/><text fill="#000000" font-family="sans-serif" font-size="14" lengthAdjust="spacing" textLength="88" x="1553" y="1193.292">name String</text><text fill="#000000" font-family="sans-serif" font-size="14" lengthAdjust="spacing" textLength="78" x="1553" y="1209.5889">price int64</text></g><!--class Rs--><g id="elem_Rs"><rect codeLine="93" fill="#F1F1F1" height="72.5938" id="Rs" rx="2.5" ry="2.5" style="stroke:#181818;stroke-width:0.5;" width="118" x="1538" y="1294.2969"/><ellipse cx="1562" cy="1310.2969" fill="#ADD1B2" rx="11" ry="11" style="stroke:#181818;stroke-width:1.0;"/><path d="M1564.3438,1305.9688 C1563.4063,1305.5313 1562.8125,1305.3906 1561.9375,1305.3906 C1559.3125,1305.3906 1557.3125,1307.4688 1557.3125,1310.1875 L1557.3125,1311.3125 C1557.3125,1313.8906 1559.4219,1315.7813 1562.3125,1315.7813 C1563.5313,1315.7813 1564.6875,1315.4844 1565.4375,1314.9375 C1566.0156,1314.5313 1566.3438,1314.0781 1566.3438,1313.6875 C1566.3438,1313.2344 1565.9531,1312.8438 1565.4844,1312.8438 C1565.2656,1312.8438 1565.0625,1312.9219 1564.875,1313.1094 C1564.4219,1313.5938 1564.4219,1313.5938 1564.2344,1313.6875 C1563.8125,1313.9531 1563.125,1314.0781 1562.3594,1314.0781 C1560.3125,1314.0781 1559.0156,1312.9844 1559.0156,1311.2813 L1559.0156,1310.1875 C1559.0156,1308.4063 1560.2656,1307.0938 1562,1307.0938 C1562.5781,1307.0938 1563.1875,1307.25 1563.6563,1307.5 C1564.1406,1307.7813 1564.3125,1308 1564.4063,1308.4063 C1564.4688,1308.8125 1564.5,1308.9375 1564.6406,1309.0625 C1564.7813,1309.2031 1565.0156,1309.3125 1565.2344,1309.3125 C1565.5,1309.3125 1565.7656,1309.1719 1565.9375,1308.9531 C1566.0469,1308.7969 1566.0781,1308.6094 1566.0781,1308.1875 L1566.0781,1306.7656 C1566.0781,1306.3281 1566.0625,1306.2031 1565.9688,1306.0469 C1565.8125,1305.7813 1565.5313,1305.6406 1565.2344,1305.6406 C1564.9375,1305.6406 1564.7344,1305.7344 1564.5156,1306.0469 L1564.3438,1305.9688 Z " fill="#000000"/><text fill="#000000" font-family="sans-serif" font-size="14" lengthAdjust="spacing" textLength="66" x="1578" y="1315.1436">Resource</text><line style="stroke:#181818;stroke-width:0.5;" x1="1539" x2="1655" y1="1326.2969" y2="1326.2969"/><text fill="#000000" font-family="sans-serif" font-size="14" lengthAdjust="spacing" textLength="106" x="1544" y="1343.292">content []byte</text><text fill="#000000" font-family="sans-serif" font-size="14" lengthAdjust="spacing" textLength="82" x="1544" y="1359.5889">type String</text></g><!--class PR--><g id="elem_PR"><rect codeLine="98" fill="#F1F1F1" height="56.2969" id="PR" rx="2.5" ry="2.5" style="stroke:#181818;stroke-width:0.5;" width="155" x="521.5" y="678.7969"/><ellipse cx="536.5" cy="694.7969" fill="#ADD1B2" rx="11" ry="11" style="stroke:#181818;stroke-width:1.0;"/><path d="M538.8438,690.4688 C537.9063,690.0313 537.3125,689.8906 536.4375,689.8906 C533.8125,689.8906 531.8125,691.9688 531.8125,694.6875 L531.8125,695.8125 C531.8125,698.3906 533.9219,700.2813 536.8125,700.2813 C538.0313,700.2813 539.1875,699.9844 539.9375,699.4375 C540.5156,699.0313 540.8438,698.5781 540.8438,698.1875 C540.8438,697.7344 540.4531,697.3438 539.9844,697.3438 C539.7656,697.3438 539.5625,697.4219 539.375,697.6094 C538.9219,698.0938 538.9219,698.0938 538.7344,698.1875 C538.3125,698.4531 537.625,698.5781 536.8594,698.5781 C534.8125,698.5781 533.5156,697.4844 533.5156,695.7813 L533.5156,694.6875 C533.5156,692.9063 534.7656,691.5938 536.5,691.5938 C537.0781,691.5938 537.6875,691.75 538.1563,692 C538.6406,692.2813 538.8125,692.5 538.9063,692.9063 C538.9688,693.3125 539,693.4375 539.1406,693.5625 C539.2813,693.7031 539.5156,693.8125 539.7344,693.8125 C540,693.8125 540.2656,693.6719 540.4375,693.4531 C540.5469,693.2969 540.5781,693.1094 540.5781,692.6875 L540.5781,691.2656 C540.5781,690.8281 540.5625,690.7031 540.4688,690.5469 C540.3125,690.2813 540.0313,690.1406 539.7344,690.1406 C539.4375,690.1406 539.2344,690.2344 539.0156,690.5469 L538.8438,690.4688 Z " fill="#000000"/><text fill="#000000" font-family="sans-serif" font-size="14" lengthAdjust="spacing" textLength="123" x="550.5" y="699.6436">PaymentRequest</text><line style="stroke:#181818;stroke-width:0.5;" x1="522.5" x2="675.5" y1="710.7969" y2="710.7969"/><text fill="#000000" font-family="sans-serif" font-size="14" lengthAdjust="spacing" textLength="99" x="527.5" y="727.792">invoice String</text></g><!--link Token to Mac--><g id="link_Token_Mac"><path codeLine="102" d="M952.983,1294.2402 C964.356,1285.2898 975.71,1275.1201 985,1264.2969 C1037.18,1203.5059 1077.42,1118.5489 1098.84,1067.5739 " fill="none" id="Token-Mac" style="stroke:#181818;stroke-width:1.0;"/><polygon fill="#000000" points="1069.7057,1176.6586,1062.3396,1182.6746,1067.2825,1185.8553,1069.7057,1176.6586" style="stroke:#000000;stroke-width:1.0;"/><text fill="#000000" font-family="sans-serif" font-size="13" lengthAdjust="spacing" textLength="26" x="1076" y="1185.3638">Sert</text><text fill="#000000" font-family="sans-serif" font-size="13" lengthAdjust="spacing" textLength="8" x="954.1986" y="1283.2338">1</text><text fill="#000000" font-family="sans-serif" font-size="13" lengthAdjust="spacing" textLength="8" x="1087.7321" y="1087.3367">1</text></g><!--link pToken to Token--><g id="link_pToken_Token"><path codeLine="103" d="M691.173,1217.3669 C708.728,1233.0099 730.512,1250.8409 752,1264.2969 C773.431,1277.7164 798.08,1289.8337 820.994,1299.8923 " fill="none" id="pToken-Token" style="stroke:#181818;stroke-width:1.0;"/><polygon fill="#000000" points="761.2196,1258.5456,755.1629,1251.213,752.0096,1256.1734,761.2196,1258.5456" style="stroke:#000000;stroke-width:1.0;"/><text fill="#000000" font-family="sans-serif" font-size="13" lengthAdjust="spacing" textLength="47" x="766" y="1260.3638">Génére</text><text fill="#000000" font-family="sans-serif" font-size="13" lengthAdjust="spacing" textLength="8" x="688.8746" y="1237.0546">1</text><text fill="#000000" font-family="sans-serif" font-size="13" lengthAdjust="spacing" textLength="8" x="804.9215" y="1293.2052">1</text></g><!--link Mi to pToken--><g id="link_Mi_pToken"><path codeLine="104" d="M924.419,341.1469 C700.846,363.3269 390,414.2189 390,525.7969 C390,525.7969 390,525.7969 390,1023.7969 C390,1110.9729 498.016,1150.4519 575.863,1167.5849 " fill="none" id="Mi-pToken" style="stroke:#181818;stroke-width:1.0;"/><polygon fill="#000000" points="393.057,794.4703,399.2799,787.2782,393.864,784.994,393.057,794.4703" style="stroke:#000000;stroke-width:1.0;"/><text fill="#000000" font-family="sans-serif" font-size="13" lengthAdjust="spacing" textLength="26" x="404" y="794.3638">Mint</text><text fill="#000000" font-family="sans-serif" font-size="13" lengthAdjust="spacing" textLength="8" x="908.2403" y="338.5567">1</text><text fill="#000000" font-family="sans-serif" font-size="13" lengthAdjust="spacing" textLength="7" x="561.082" y="1162.7033">*</text></g><!--link PR to pToken--><g id="link_PR_pToken"><path codeLine="105" d="M602.155,734.8689 C611.536,815.3779 639.264,1053.3359 649.839,1144.0849 " fill="none" id="PR-pToken" style="stroke:#181818;stroke-width:1.0;"/><polygon fill="#000000" points="632.5787,944.8297,634.451,935.5052,628.6126,936.1855,632.5787,944.8297" style="stroke:#000000;stroke-width:1.0;"/><text fill="#000000" font-family="sans-serif" font-size="13" lengthAdjust="spacing" textLength="61" x="641" y="944.3638">Compose</text><text fill="#000000" font-family="sans-serif" font-size="13" lengthAdjust="spacing" textLength="8" x="593.9596" y="755.1428">1</text><text fill="#000000" font-family="sans-serif" font-size="13" lengthAdjust="spacing" textLength="8" x="640.3853" y="1133.3245">1</text></g><!--link Mac to pToken--><g id="link_Mac_pToken"><path codeLine="106" d="M1050.3,1045.9819 C966.468,1074.2879 821.649,1123.1879 732.218,1153.3859 " fill="none" id="Mac-pToken" style="stroke:#181818;stroke-width:1.0;"/><polygon fill="#000000" points="885.2628,1107.4629,894.7727,1107.3537,892.8923,1101.7847,885.2628,1107.4629" style="stroke:#000000;stroke-width:1.0;"/><text fill="#000000" font-family="sans-serif" font-size="13" lengthAdjust="spacing" textLength="61" x="899" y="1110.3638">Compose</text><text fill="#000000" font-family="sans-serif" font-size="13" lengthAdjust="spacing" textLength="8" x="1034.6766" y="1044.7776">1</text><text fill="#000000" font-family="sans-serif" font-size="13" lengthAdjust="spacing" textLength="8" x="740.0544" y="1147.151">1</text></g><!--link Tid to Token--><g id="link_Tid_Token"><path codeLine="108" d="M841.71,751.5009 C840.897,782.7729 840,825.8729 840,863.7969 C840,863.7969 840,863.7969 840,1181.7969 C840,1222.4589 859.454,1265.2219 876.02,1294.267 " fill="none" id="Tid-Token" style="stroke:#181818;stroke-width:1.0;"/><polygon fill="#000000" points="845.3154,1027.8533,847.6779,1018.6408,841.8117,1019.0117,845.3154,1027.8533" style="stroke:#000000;stroke-width:1.0;"/><text fill="#000000" font-family="sans-serif" font-size="13" lengthAdjust="spacing" textLength="51" x="854" y="1027.3638">Identifie</text><text fill="#000000" font-family="sans-serif" font-size="13" lengthAdjust="spacing" textLength="8" x="832.933" y="771.253">1</text><text fill="#000000" font-family="sans-serif" font-size="13" lengthAdjust="spacing" textLength="8" x="863.0456" y="1283.2656">1</text></g><!--link Mac to Ser--><g id="link_Mac_Ser"><path codeLine="109" d="M1181.68,1050.1979 C1230.04,1069.1829 1297.61,1094.7729 1358,1114.2969 C1422.48,1135.1409 1498.08,1155.1299 1546.72,1167.4259 " fill="none" id="Mac-Ser" style="stroke:#181818;stroke-width:1.0;"/><polygon fill="#000000" points="1367.7605,1107.3921,1360.0472,1101.8283,1358.25,1107.4246,1367.7605,1107.3921" style="stroke:#000000;stroke-width:1.0;"/><text fill="#000000" font-family="sans-serif" font-size="13" lengthAdjust="spacing" textLength="70" x="1372" y="1110.3638">Authentifie</text><text fill="#000000" font-family="sans-serif" font-size="13" lengthAdjust="spacing" textLength="8" x="1189.3013" y="1049.4547">1</text><text fill="#000000" font-family="sans-serif" font-size="13" lengthAdjust="spacing" textLength="7" x="1532.1572" y="1161.5957">*</text></g><!--link Ca to Mac--><g id="link_Ca_Mac"><path codeLine="110" d="M1091.42,901.3069 C1091.66,915.9369 1092.57,933.0089 1095,948.2969 C1096.56,958.1269 1099.01,968.5059 1101.69,978.2689 " fill="none" id="Ca-Mac" style="stroke:#181818;stroke-width:1.0;"/><polygon fill="#000000" points="1100.6614,944.8193,1102.3781,935.465,1096.5519,936.2425,1100.6614,944.8193" style="stroke:#000000;stroke-width:1.0;"/><text fill="#000000" font-family="sans-serif" font-size="13" lengthAdjust="spacing" textLength="58" x="1109" y="944.3638">Restreint</text><text fill="#000000" font-family="sans-serif" font-size="13" lengthAdjust="spacing" textLength="7" x="1083.7188" y="920.9843">*</text><text fill="#000000" font-family="sans-serif" font-size="13" lengthAdjust="spacing" textLength="7" x="1091.9628" y="967.3875">*</text></g><!--link Mi to Ch--><g id="link_Mi_Ch"><path codeLine="112" d="M961.751,393.3169 C868.151,427.5009 759.232,467.2789 685.355,494.2589 " fill="none" id="Mi-Ch" style="stroke:#181818;stroke-width:1.0;"/><polygon fill="#000000" points="874.3034,433.5785,883.8078,433.2362,881.7914,427.715,874.3034,433.5785" style="stroke:#000000;stroke-width:1.0;"/><text fill="#000000" font-family="sans-serif" font-size="13" lengthAdjust="spacing" textLength="38" x="888" y="436.3638">Utilise</text><text fill="#000000" font-family="sans-serif" font-size="13" lengthAdjust="spacing" textLength="8" x="934.1316" y="413.2946">1</text><text fill="#000000" font-family="sans-serif" font-size="13" lengthAdjust="spacing" textLength="8" x="694.3407" y="483.1267">1</text></g><!--link Mi to SS--><g id="link_Mi_SS"><path codeLine="113" d="M1083.75,393.4569 C1057.53,421.2709 1027.84,452.7689 1004.002,478.0559 " fill="none" id="Mi-SS" style="stroke:#181818;stroke-width:1.0;"/><polygon fill="#000000" points="1055.5703,435.5016,1063.9132,430.9357,1059.6361,426.9039,1055.5703,435.5016" style="stroke:#000000;stroke-width:1.0;"/><text fill="#000000" font-family="sans-serif" font-size="13" lengthAdjust="spacing" textLength="38" x="1068" y="436.3638">Utilise</text><text fill="#000000" font-family="sans-serif" font-size="13" lengthAdjust="spacing" textLength="8" x="1069.0316" y="413.0888">1</text><text fill="#000000" font-family="sans-serif" font-size="13" lengthAdjust="spacing" textLength="8" x="1001.7679" y="467.2122">1</text></g><!--link Mi to SM--><g id="link_Mi_SM"><path codeLine="114" d="M1236.43,393.4879 C1247.97,403.2079 1259.45,413.3039 1270,423.2969 C1285.37,437.8459 1301.1,454.5849 1315.12,470.2619 " fill="none" id="Mi-SM" style="stroke:#181818;stroke-width:1.0;"/><polygon fill="#000000" points="1295.5788,435.355,1291.157,426.9349,1287.0523,431.142,1295.5788,435.355" style="stroke:#000000;stroke-width:1.0;"/><text fill="#000000" font-family="sans-serif" font-size="13" lengthAdjust="spacing" textLength="38" x="1301" y="436.3638">Utilise</text><text fill="#000000" font-family="sans-serif" font-size="13" lengthAdjust="spacing" textLength="8" x="1236.7411" y="413.1229">1</text><text fill="#000000" font-family="sans-serif" font-size="13" lengthAdjust="spacing" textLength="8" x="1300.601" y="459.1038">1</text></g><!--link SS to U--><g id="link_SS_U"><path codeLine="116" d="M1027.87,575.4979 C1070.84,605.2589 1125.24,642.9369 1164.48,670.1119 " fill="none" id="SS-U" style="stroke:#181818;stroke-width:1.0;"/><polygon fill="#000000" points="1112.1104,626.7101,1106.3479,619.1441,1103.0013,623.9762,1112.1104,626.7101" style="stroke:#000000;stroke-width:1.0;"/><text fill="#000000" font-family="sans-serif" font-size="13" lengthAdjust="spacing" textLength="54" x="1117" y="628.3638">Contient</text><text fill="#000000" font-family="sans-serif" font-size="13" lengthAdjust="spacing" textLength="8" x="1028.9923" y="595.4664">1</text><text fill="#000000" font-family="sans-serif" font-size="13" lengthAdjust="spacing" textLength="7" x="1147.6796" y="659.3563">*</text></g><!--link SS to Token--><g id="link_SS_Token"><path codeLine="117" d="M959,575.3939 C959,611.2439 959,661.6059 959,705.7969 C959,705.7969 959,705.7969 959,1181.7969 C959,1222.4149 939.351,1265.0129 922.541,1294.0222 " fill="none" id="SS-Token" style="stroke:#181818;stroke-width:1.0;"/><polygon fill="#000000" points="963.7467,944.8569,967.1401,935.9723,961.2698,935.6745,963.7467,944.8569" style="stroke:#000000;stroke-width:1.0;"/><text fill="#000000" font-family="sans-serif" font-size="13" lengthAdjust="spacing" textLength="54" x="973" y="944.3638">Contient</text><text fill="#000000" font-family="sans-serif" font-size="13" lengthAdjust="spacing" textLength="8" x="950.4375" y="595.3478">1</text><text fill="#000000" font-family="sans-serif" font-size="13" lengthAdjust="spacing" textLength="7" x="919.1108" y="1283.2506">*</text></g><!--link SS to Uid--><g id="link_SS_Uid"><path codeLine="118" d="M1064.86,478.2599 C1108.65,460.6979 1160.55,443.0449 1209.5,434.2969 C1265.94,424.2099 1504.27,435.3879 1577,470.2969 C1595.97,479.4009 1612.39,497.4219 1622.67,510.6739 " fill="none" id="SS-Uid" style="stroke:#181818;stroke-width:1.0;"/><polygon fill="#000000" points="1219.4916,432.1533,1210.6322,428.6946,1210.2912,434.5626,1219.4916,432.1533" style="stroke:#000000;stroke-width:1.0;"/><text fill="#000000" font-family="sans-serif" font-size="13" lengthAdjust="spacing" textLength="38" x="1223.5" y="436.3638">Utilise</text><text fill="#000000" font-family="sans-serif" font-size="13" lengthAdjust="spacing" textLength="8" x="1071.8207" y="467.0946">1</text><text fill="#000000" font-family="sans-serif" font-size="13" lengthAdjust="spacing" textLength="7" x="1610.5722" y="499.6432">*</text></g><!--link SS to Tid--><g id="link_SS_Tid"><path codeLine="119" d="M910.68,575.3479 C899.697,587.6929 888.714,601.4359 880,615.2969 C870.966,629.6669 863.344,646.6199 857.409,661.9449 " fill="none" id="SS-Tid" style="stroke:#181818;stroke-width:1.0;"/><polygon fill="#000000" points="882.3802,628.122,889.6227,621.9578,884.6162,618.878,882.3802,628.122" style="stroke:#000000;stroke-width:1.0;"/><text fill="#000000" font-family="sans-serif" font-size="13" lengthAdjust="spacing" textLength="38" x="894" y="628.3638">Utilise</text><text fill="#000000" font-family="sans-serif" font-size="13" lengthAdjust="spacing" textLength="8" x="894.9955" y="595.6455">1</text><text fill="#000000" font-family="sans-serif" font-size="13" lengthAdjust="spacing" textLength="7" x="852.0113" y="651.3404">*</text></g><!--link U to Sec--><g id="link_U_Sec"><path codeLine="120" d="M1216,743.5869 C1216,776.6899 1216,824.3079 1216,848.4749 " fill="none" id="U-Sec" style="stroke:#181818;stroke-width:1.0;"/><polygon fill="#000000" points="1221,794.8633,1223.9389,785.8182,1218.0611,785.8182,1221,794.8633" style="stroke:#000000;stroke-width:1.0;"/><text fill="#000000" font-family="sans-serif" font-size="13" lengthAdjust="spacing" textLength="54" x="1230" y="794.3638">Possède</text><text fill="#000000" font-family="sans-serif" font-size="13" lengthAdjust="spacing" textLength="8" x="1207.3375" y="763.0339">1</text><text fill="#000000" font-family="sans-serif" font-size="13" lengthAdjust="spacing" textLength="8" x="1206.675" y="837.6727">1</text></g><!--link Uid to U--><g id="link_Uid_U"><path codeLine="121" d="M1627.05,543.1049 C1618.06,561.1649 1600.7,590.8149 1577,607.2969 C1485.52,670.8999 1354.6,693.4909 1278.13,701.4749 " fill="none" id="Uid-U" style="stroke:#181818;stroke-width:1.0;"/><polygon fill="#000000" points="1560.447,625.9298,1569.8981,624.8676,1567.4687,619.5153,1560.447,625.9298" style="stroke:#000000;stroke-width:1.0;"/><text fill="#000000" font-family="sans-serif" font-size="13" lengthAdjust="spacing" textLength="51" x="1574" y="628.3638">Identifie</text><text fill="#000000" font-family="sans-serif" font-size="13" lengthAdjust="spacing" textLength="8" x="1615.5597" y="562.7817">1</text><text fill="#000000" font-family="sans-serif" font-size="13" lengthAdjust="spacing" textLength="8" x="1286.1896" y="697.0119">1</text></g><!--link Sec to Mac--><g id="link_Sec_Mac"><path codeLine="122" d="M1208.91,880.8089 C1200.73,897.6619 1186.55,925.6189 1172,948.2969 C1165.68,958.1529 1158.4,968.3649 1151.24,977.9279 " fill="none" id="Sec-Mac" style="stroke:#181818;stroke-width:1.0;"/><polygon fill="#000000" points="1184.4471,944.1624,1191.5923,937.8857,1186.5383,934.8846,1184.4471,944.1624" style="stroke:#000000;stroke-width:1.0;"/><text fill="#000000" font-family="sans-serif" font-size="13" lengthAdjust="spacing" textLength="47" x="1196" y="944.3638">Génére</text><text fill="#000000" font-family="sans-serif" font-size="13" lengthAdjust="spacing" textLength="8" x="1197.0978" y="900.9808">1</text><text fill="#000000" font-family="sans-serif" font-size="13" lengthAdjust="spacing" textLength="7" x="1148.9018" y="967.3209">*</text></g><!--link Ser to SM--><g id="link_Ser_SM"><path codeLine="124" d="M1546.78,1146.7599 C1510.92,1118.7909 1469,1075.1209 1469,1023.7969 C1469,705.7969 1469,705.7969 1469,705.7969 C1469,660.1859 1442.87,616.1879 1416.44,583.3459 " fill="none" id="Ser-SM" style="stroke:#181818;stroke-width:1.0;"/><polygon fill="#000000" points="1475.1269,869.7346,1475.9516,860.2599,1470.225,861.5847,1475.1269,869.7346" style="stroke:#000000;stroke-width:1.0;"/><text fill="#000000" font-family="sans-serif" font-size="13" lengthAdjust="spacing" textLength="31" x="1483" y="869.3638">Gère</text><text fill="#000000" font-family="sans-serif" font-size="13" lengthAdjust="spacing" textLength="8" x="1531.1553" y="1138.0235">1</text><text fill="#000000" font-family="sans-serif" font-size="13" lengthAdjust="spacing" textLength="7" x="1416.2851" y="603.9978">*</text></g><!--link Ch to PR--><g id="link_Ch_PR"><path codeLine="125" d="M599,559.6199 C599,593.5189 599,646.6109 599,678.6189 " fill="none" id="Ch-PR" style="stroke:#181818;stroke-width:1.0;"/><polygon fill="#000000" points="604,628.8633,606.9389,619.8182,601.0611,619.8182,604,628.8633" style="stroke:#000000;stroke-width:1.0;"/><text fill="#000000" font-family="sans-serif" font-size="13" lengthAdjust="spacing" textLength="58" x="613" y="628.3638">Construit</text><text fill="#000000" font-family="sans-serif" font-size="13" lengthAdjust="spacing" textLength="8" x="590.2875" y="578.9201">1</text><text fill="#000000" font-family="sans-serif" font-size="13" lengthAdjust="spacing" textLength="7" x="591.2344" y="667.8633">*</text></g><!--link Se to Mi--><g id="link_Se_Mi"><path codeLine="127" d="M1242.26,178.3769 C1227.73,200.7169 1209.16,229.2569 1192.36,255.0969 " fill="none" id="Se-Mi" style="stroke:#181818;stroke-width:1.0;"/><polygon fill="#000000" points="1225.2738,221.0547,1232.6692,215.0748,1227.7419,211.8699,1225.2738,221.0547" style="stroke:#000000;stroke-width:1.0;"/><text fill="#000000" font-family="sans-serif" font-size="13" lengthAdjust="spacing" textLength="54" x="1237" y="221.3638">Contient</text><text fill="#000000" font-family="sans-serif" font-size="13" lengthAdjust="spacing" textLength="8" x="1229.5202" y="198.1283">1</text><text fill="#000000" font-family="sans-serif" font-size="13" lengthAdjust="spacing" textLength="8" x="1188.5221" y="244.2738">1</text></g><!--link Se to Ser--><g id="link_Se_Ser"><path codeLine="128" d="M1331.17,145.8469 C1478.6,164.0469 1833,218.6869 1833,323.2969 C1833,323.2969 1833,323.2969 1833,1023.7969 C1833,1112.2029 1716.33,1153.4119 1647.05,1170.0879 " fill="none" id="Se-Ser" style="stroke:#181818;stroke-width:1.0;"/><polygon fill="#000000" points="1839.4735,711.6412,1839.6163,702.1317,1833.9995,703.864,1839.4735,711.6412" style="stroke:#000000;stroke-width:1.0;"/><text fill="#000000" font-family="sans-serif" font-size="13" lengthAdjust="spacing" textLength="33" x="1847" y="711.3638">Offre</text><text fill="#000000" font-family="sans-serif" font-size="13" lengthAdjust="spacing" textLength="8" x="1338.9365" y="142.9932">1</text><text fill="#000000" font-family="sans-serif" font-size="13" lengthAdjust="spacing" textLength="7" x="1654.9152" y="1164.5199">*</text></g><!--link LN to Ch--><g id="link_LN_Ch"><path codeLine="130" d="M278.275,360.9069 C351.821,398.7219 466.963,457.9159 537.432,494.1449 " fill="none" id="LN-Ch" style="stroke:#181818;stroke-width:1.0;"/><polygon fill="#000000" points="437.4467,434.1494,430.7463,427.4,428.0587,432.6275,437.4467,434.1494" style="stroke:#000000;stroke-width:1.0;"/><text fill="#000000" font-family="sans-serif" font-size="13" lengthAdjust="spacing" textLength="50" x="442" y="436.3638">Devient</text><text fill="#000000" font-family="sans-serif" font-size="13" lengthAdjust="spacing" textLength="8" x="281.0862" y="380.3241">1</text><text fill="#000000" font-family="sans-serif" font-size="13" lengthAdjust="spacing" textLength="7" x="517.0117" y="482.9892">*</text></g><!--link LN to PR--><g id="link_LN_PR"><path codeLine="131" d="M222.768,361.1569 C246.879,419.7619 301.917,536.5869 382,607.2969 C422.008,642.6219 476.796,667.3569 521.31,683.2059 " fill="none" id="LN-PR" style="stroke:#181818;stroke-width:1.0;"/><polygon fill="#000000" points="390.3992,530.5301,386.4053,521.8988,382.0947,525.8947,390.3992,530.5301" style="stroke:#000000;stroke-width:1.0;"/><text fill="#000000" font-family="sans-serif" font-size="13" lengthAdjust="spacing" textLength="30" x="396" y="531.3638">Crée</text><text fill="#000000" font-family="sans-serif" font-size="13" lengthAdjust="spacing" textLength="8" x="216.3248" y="380.3366">1</text><text fill="#000000" font-family="sans-serif" font-size="13" lengthAdjust="spacing" textLength="7" x="506.5716" y="677.3016">*</text></g><!--link Ser to Rs--><g id="link_Ser_Rs"><path codeLine="133" d="M1597,1217.6239 C1597,1240.8069 1597,1270.8748 1597,1294.044 " fill="none" id="Ser-Rs" style="stroke:#181818;stroke-width:1.0;"/><polygon fill="#000000" points="1602,1260.8633,1604.9389,1251.8182,1599.0611,1251.8182,1602,1260.8633" style="stroke:#000000;stroke-width:1.0;"/><text fill="#000000" font-family="sans-serif" font-size="13" lengthAdjust="spacing" textLength="33" x="1611" y="1260.3638">Offre</text><text fill="#000000" font-family="sans-serif" font-size="13" lengthAdjust="spacing" textLength="8" x="1588.3375" y="1237.0771">1</text><text fill="#000000" font-family="sans-serif" font-size="13" lengthAdjust="spacing" textLength="8" x="1588.2875" y="1283.2763">1</text></g><!--link Mi to Ser--><g id="link_Mi_Ser"><path codeLine="134" d="M1371.91,360.8369 C1534.1,393.1249 1725,447.7179 1725,525.7969 C1725,525.7969 1725,525.7969 1725,1023.7969 C1725,1075.1209 1683.08,1118.7909 1647.22,1146.7599 " fill="none" id="Mi-Ser" style="stroke:#181818;stroke-width:1.0;"/><polygon fill="#000000" points="1731.653,794.5821,1731.4363,785.074,1725.889,787.0173,1731.653,794.5821" style="stroke:#000000;stroke-width:1.0;"/><text fill="#000000" font-family="sans-serif" font-size="13" lengthAdjust="spacing" textLength="70" x="1739" y="794.3638">Authentifie</text><text fill="#000000" font-family="sans-serif" font-size="13" lengthAdjust="spacing" textLength="8" x="1379.3883" y="358.8629">1</text><text fill="#000000" font-family="sans-serif" font-size="13" lengthAdjust="spacing" textLength="7" x="1655.1101" y="1137.7656">*</text></g><!--SRC=[VLPVQniv47_NfnZS5pkN10xASPGGQ5tI2yIv4DTzAULGTiUsoEvgJz8Qp97latmEVx7EI5glPFlw4idpvpSplndDnYbN8SnqkNkbi-oWrBLK3GfXdrNJIYDhA2ffBVmd03x9udbbTDUKKrrfStKrHxF1pbnVmxkRcvltqp_5Yn1hLI9OXmQrsxOOVcFTkYtKM3-XiGGbi76A9AE5HNDRZa1QMAXIxELpB0mwBwUh4FB9EYCB5zFnVi7Bf_ORTAg40EP_MkyF0ORJQYbvkKA8ENklYEL59iQ2j2ms0hY0MZLK4Cpy4ML41CiU_K6o5ouBm9iiPO5z3NEd3GRmUGeUp4dsWT8DfkEXY0cCW-mSq1Xj9eaj0txLpzYCoTnVRZ-VW-DB-3a9FeEBbzhn1CvgsNwFBZ_yUPJrT2sh2fjLP6IwFawQP8owjnotHf4hWVpnVW8FSbjJ6n_ntmwjEy6AsP3rJ3QoZp6VdI1c5ednrcCRJWkNbvTpPrIp8eQ-_uZgbAJWDvMjV5ALSWfjxmo9urHkK3fxxFWDZLfketfSX9EZ1b52RR3_WbIfrPsX96jPIADr0xDueL2zCeaqJ5uOAC_1J9sSl7tg6MjHMUnRDVIYrrcU4aX6S1XH2iMPS_0mHiFOdKD6TBXJ5Gznuf8gFCe5VEpSEg1KLZeuomQG7vv8Ud-dLclNK0_kTHdUnDsz47VtX3J7feoJCyudA8HNDHM-3-zTfeOQWhVDHlE4nFDJfweI3JjbA2d_aNsVgi_2tppdHoqaMHkZn_aHBvxY7gMdnWErlqPI8SSKACFgJSD4o29igJY3_T2IoAfL8rrdzaW07JNkds47lXpM6PViLp9XqBMqQ_YB_h1hkZff4rf5MNyBPmOKueUr83tCCsw753QowfBQ4iSuI775XkNRo3f9FzaWx1hz-iVZ7H_3LwZGD4-D8pgUjewdchyo6QDzOxB-UuY7Hmznr0OHsZRwVGGN5_vWyZ_0DMVhH7ka3W8s-B9xQtPlzBpeFVG6PwD-4DY2tvcWo8bxeftgkjMMt2dWhoq4z-va3hSbVpQN2Y63eJIORBRWLnfj1BMELT6YBvIeTZJdb6fQ2Hr-sL_3mj4sjNYWzD-N_rNECgKWuoIrHIoEigBC3fHfzISDw9-53Fp0_K2xoDB2KF63jdRtMf8svtMHSohOFi7k2TitNZ39AUTSzXNfNqb9x2Kgce9O4v7TASU-sTIfWvhnL3F_NYuvBEt0H1dRz1attZDNzd7DxkqWNpheNGse-HIV69-V]--></g><script xmlns=""/></svg>